<svg width="153" height="440" viewBox="0 0 153 440" fill="none" xmlns="http://www.w3.org/2000/svg">
<mask id="mask0" mask-type="alpha" maskUnits="userSpaceOnUse" x="0" y="0" width="153" height="440">
<rect x="0.98584" y="0.190918" width="151.176" height="439.129" fill="#C4C4C4"/>
</mask>
<g mask="url(#mask0)">
<path d="M39.5523 309.584C39.2417 309.584 38.9065 309.506 38.6737 309.191L28.705 296.081V309.453H26.4316V292.987C26.4316 292.332 26.9741 291.807 27.5945 291.807C27.9556 291.807 28.2659 291.912 28.4976 292.227L38.4411 305.311V291.991H40.7142V308.43C40.7142 309.112 40.1718 309.584 39.5523 309.584" fill="#1A1918"/>
<path d="M58.3575 309.742C56.085 309.742 53.7085 309.269 51.4873 308.431L52.03 306.542C54.0703 307.198 56.2913 307.67 58.3575 307.67C61.2245 307.67 62.7224 306.647 62.7224 305.206C62.7224 303.894 61.5598 303.239 57.5566 301.351C53.5535 299.463 51.9785 298.257 51.9785 295.897C51.9785 292.935 54.251 291.728 58.5379 291.728C60.3203 291.728 63.0577 292.096 64.6337 292.568L64.272 294.508C62.5411 294.088 60.3722 293.8 58.5898 293.8C55.5686 293.8 54.3287 294.376 54.3287 295.819C54.3287 297.234 55.2322 297.838 59.468 299.804C63.9363 301.876 65.0726 302.925 65.0726 305.074C65.0726 308.195 62.1278 309.742 58.3574 309.742" fill="#1A1918"/>
<path d="M75.8433 291.99H78.1935V309.452H75.8433V291.99Z" fill="#1A1918"/>
<path d="M98.1818 301.534H92.3441V307.46H98.1818C100.17 307.46 101.384 306.201 101.384 304.444C101.384 302.792 100.119 301.534 98.1818 301.534V301.534ZM97.0447 293.982H92.3441V299.567H97.0447C98.9305 299.567 100.299 298.361 100.299 296.683C100.299 295.031 99.1109 293.982 97.0447 293.982V293.982ZM98.2074 309.452H91.1826C90.5107 309.452 89.9941 308.927 89.9941 308.272V293.17C89.9941 292.54 90.5107 291.99 91.1826 291.99H96.9936C100.558 291.99 102.675 293.746 102.675 296.5C102.675 297.994 101.797 299.384 100.454 300.196C102.443 300.8 103.786 302.451 103.786 304.444C103.786 307.223 101.487 309.452 98.2074 309.452" fill="#1A1918"/>
<path d="M115.073 309.452C114.428 309.452 113.911 308.901 113.911 308.272V291.99H116.261V307.328H125.611V309.452H115.073L115.073 309.452Z" fill="#1A1918"/>
<path d="M141.633 309.742C136.829 309.742 133.936 307.959 133.936 304.367C133.936 302.662 134.892 301.037 136.752 300.276C135.253 299.332 134.479 297.995 134.479 296.527C134.479 293.276 136.985 291.728 141.685 291.728C143.26 291.728 145.481 291.912 147.341 292.332L147.083 294.272C145.12 293.957 143.286 293.774 141.504 293.774C138.456 293.774 136.829 294.612 136.829 296.632C136.829 298.231 138.327 299.49 140.316 299.49H144.345C144.913 299.49 145.352 299.935 145.352 300.486C145.352 301.063 144.913 301.508 144.345 301.508H140.007C137.733 301.508 136.287 302.636 136.287 304.367C136.287 306.91 138.638 307.67 141.582 307.67C143.183 307.67 145.352 307.461 147.108 307.041L147.445 308.955C145.765 309.427 143.57 309.742 141.633 309.742" fill="#1A1918"/>
<path d="M8.94259 295.269L13.0587 305.582L6.84209 300.611L8.94258 295.269L8.94259 295.269ZM16.255 307.958L9.92406 292.489C9.7434 292.044 9.38162 291.808 8.94254 291.808C8.50347 291.808 8.11607 292.044 7.93541 292.489L0.986328 309.457H3.36305L6.11424 302.461L14.3228 309.194C14.6529 309.465 14.8911 309.587 15.2014 309.587C15.8209 309.587 16.3634 309.116 16.3634 308.434C16.3634 308.323 16.3244 308.148 16.2549 307.958H16.255Z" fill="#1A1918"/>
<path d="M147.571 202.924C147.571 243.327 114.821 276.077 74.4176 276.077C34.0176 276.077 1.26416 243.327 1.26416 202.924C1.26416 162.524 34.0177 129.771 74.4176 129.771C114.821 129.771 147.571 162.524 147.571 202.924Z" fill="#1A1918"/>
<path d="M75.6471 174.459L94.5778 221.182L65.9833 198.658L75.6471 174.459V174.459ZM109.277 231.945L80.1578 161.867C79.3266 159.846 77.6644 158.777 75.6471 158.777C73.626 158.777 71.8429 159.846 71.0116 161.867L39.0513 238.733H49.9844L62.6361 207.041L100.392 237.543C101.91 238.771 103.006 239.326 104.43 239.326C107.283 239.326 109.776 237.188 109.776 234.102C109.776 233.599 109.598 232.802 109.277 231.945L109.277 231.945Z" fill="white"/>
</g>
</svg>
