<svg width="325" height="440" viewBox="0 0 325 440" fill="none" xmlns="http://www.w3.org/2000/svg">
<mask id="mask0" mask-type="alpha" maskUnits="userSpaceOnUse" x="0" y="0" width="325" height="440">
<rect x="0.322266" y="0.159668" width="323.948" height="439.129" fill="#C4C4C4"/>
</mask>
<g mask="url(#mask0)">
<path d="M91.6155 185.697C91.6155 189.684 92.0464 192.916 92.8006 195.286C93.6626 197.656 94.74 200.242 96.2484 203.044C96.7871 203.905 97.0026 204.767 97.0026 205.522C97.0026 206.599 96.3561 207.676 94.9555 208.754L88.1677 213.279C87.1981 213.925 86.2284 214.249 85.3665 214.249C84.289 214.249 83.2116 213.71 82.1342 212.74C80.6258 211.124 79.3329 209.4 78.2555 207.676C77.1781 205.845 76.1007 203.798 74.9155 201.32C66.5117 211.232 55.953 216.188 43.2395 216.188C34.1892 216.188 26.9705 213.602 21.6911 208.431C16.4118 203.259 13.7183 196.364 13.7183 187.744C13.7183 178.586 16.9505 171.152 23.5228 165.549C30.095 159.947 38.8221 157.146 49.9195 157.146C53.5827 157.146 57.3536 157.469 61.3401 158.007C65.3265 158.546 69.4207 159.408 73.7304 160.378V152.513C73.7304 144.324 72.0065 138.614 68.6665 135.274C65.2188 131.934 59.4007 130.318 51.1046 130.318C47.3337 130.318 43.455 130.749 39.4685 131.719C35.4821 132.688 31.6034 133.873 27.8324 135.382C26.1086 136.136 24.8157 136.567 24.0615 136.782C23.3073 136.998 22.7686 137.106 22.3376 137.106C20.8292 137.106 20.075 136.028 20.075 133.766V128.486C20.075 126.762 20.2905 125.47 20.8292 124.715C21.3679 123.961 22.3376 123.207 23.846 122.453C27.6169 120.513 32.1421 118.897 37.4214 117.604C42.7008 116.204 48.3033 115.557 54.2291 115.557C67.0504 115.557 76.4239 118.466 82.4574 124.284C88.3832 130.102 91.4 138.937 91.4 150.789V185.697H91.6155ZM47.8724 202.074C51.4278 202.074 55.0911 201.427 58.9698 200.134C62.8485 198.842 66.2962 196.471 69.2052 193.239C70.9291 191.192 72.222 188.929 72.8684 186.344C73.5149 183.758 73.9458 180.633 73.9458 176.97V172.445C70.8213 171.691 67.4813 171.044 64.0336 170.613C60.5859 170.182 57.2459 169.967 53.9059 169.967C46.6872 169.967 41.4079 171.367 37.8524 174.276C34.2969 177.186 32.5731 181.28 32.5731 186.667C32.5731 191.731 33.8659 195.502 36.5595 198.087C39.1453 200.781 42.9162 202.074 47.8724 202.074V202.074ZM134.389 213.71C132.45 213.71 131.157 213.387 130.295 212.633C129.433 211.986 128.679 210.478 128.032 208.431L102.713 125.146C102.066 122.991 101.743 121.591 101.743 120.837C101.743 119.113 102.605 118.143 104.329 118.143H114.888C116.935 118.143 118.335 118.466 119.09 119.22C119.952 119.867 120.598 121.375 121.244 123.422L139.345 194.747L156.153 123.422C156.691 121.268 157.338 119.867 158.2 119.22C159.062 118.574 160.57 118.143 162.509 118.143H171.129C173.176 118.143 174.577 118.466 175.438 119.22C176.3 119.867 177.055 121.375 177.486 123.422L194.509 195.609L213.148 123.422C213.795 121.268 214.549 119.867 215.303 119.22C216.165 118.574 217.565 118.143 219.505 118.143H229.525C231.249 118.143 232.218 119.005 232.218 120.837C232.218 121.375 232.111 121.914 232.003 122.56C231.895 123.207 231.68 124.069 231.249 125.254L205.283 208.538C204.636 210.693 203.882 212.094 203.02 212.74C202.158 213.387 200.758 213.818 198.926 213.818H189.66C187.613 213.818 186.213 213.494 185.351 212.74C184.489 211.986 183.735 210.585 183.304 208.431L166.604 138.937L150.011 208.323C149.473 210.478 148.826 211.878 147.964 212.633C147.102 213.387 145.594 213.71 143.655 213.71H134.389V213.71ZM272.837 216.619C267.234 216.619 261.632 215.972 256.245 214.68C250.858 213.387 246.656 211.986 243.854 210.37C242.131 209.4 240.945 208.323 240.514 207.353C240.083 206.383 239.868 205.306 239.868 204.336V198.842C239.868 196.579 240.73 195.502 242.346 195.502C242.993 195.502 243.639 195.609 244.285 195.825C244.932 196.04 245.902 196.471 246.979 196.902C250.642 198.518 254.629 199.811 258.831 200.673C263.14 201.535 267.342 201.966 271.652 201.966C278.44 201.966 283.719 200.781 287.382 198.411C291.045 196.04 292.985 192.593 292.985 188.175C292.985 185.158 292.015 182.68 290.076 180.633C288.136 178.586 284.473 176.755 279.194 175.031L263.571 170.182C255.706 167.704 249.888 164.041 246.333 159.193C242.777 154.452 240.945 149.173 240.945 143.57C240.945 139.045 241.915 135.059 243.854 131.611C245.794 128.163 248.38 125.146 251.612 122.776C254.844 120.298 258.507 118.466 262.817 117.173C267.127 115.881 271.652 115.342 276.392 115.342C278.763 115.342 281.241 115.45 283.611 115.773C286.089 116.096 288.352 116.527 290.614 116.958C292.769 117.497 294.816 118.035 296.756 118.682C298.695 119.328 300.203 119.975 301.281 120.621C302.789 121.483 303.867 122.345 304.513 123.315C305.159 124.177 305.483 125.362 305.483 126.87V131.934C305.483 134.197 304.621 135.382 303.005 135.382C302.143 135.382 300.742 134.951 298.91 134.089C292.769 131.288 285.874 129.887 278.224 129.887C272.083 129.887 267.234 130.857 263.894 132.904C260.554 134.951 258.831 138.075 258.831 142.493C258.831 145.509 259.908 148.095 262.063 150.142C264.218 152.189 268.204 154.237 273.914 156.068L289.214 160.917C296.971 163.395 302.574 166.842 305.914 171.26C309.254 175.677 310.87 180.741 310.87 186.344C310.87 190.976 309.9 195.178 308.068 198.842C306.129 202.505 303.543 205.737 300.203 208.323C296.863 211.016 292.877 212.956 288.244 214.356C283.396 215.865 278.332 216.619 272.837 216.619V216.619Z" fill="#252F3E"/>
<path d="M293.199 268.981C257.752 295.162 206.251 309.061 161.969 309.061C99.91 309.061 43.9921 286.112 1.7574 247.971C-1.58259 244.955 1.43418 240.861 5.42062 243.231C51.1031 269.735 107.452 285.789 165.74 285.789C205.066 285.789 248.27 277.6 288.027 260.793C293.953 258.099 299.017 264.671 293.199 268.981Z" fill="#FF9900"/>
<path d="M307.959 252.174C303.434 246.356 278.007 249.373 266.479 250.774C263.031 251.204 262.492 248.188 265.617 245.925C285.872 231.703 319.164 235.797 323.043 240.538C326.922 245.386 321.966 278.679 303.003 294.624C300.094 297.102 297.293 295.81 298.586 292.577C302.895 281.911 312.484 257.884 307.959 252.174V252.174Z" fill="#FF9900"/>
</g>
</svg>
