<svg width="721" height="440" viewBox="0 0 721 440" fill="none" xmlns="http://www.w3.org/2000/svg">
<mask id="mask0" mask-type="alpha" maskUnits="userSpaceOnUse" x="0" y="0" width="721" height="440">
<rect x="0.322266" y="0.640625" width="719.884" height="439.129" fill="#C4C4C4"/>
</mask>
<g mask="url(#mask0)">
<path d="M152.964 181.011H192.084C211.16 181.011 220.374 190.386 220.374 205.418C220.374 216.732 215.201 223.682 204.693 226.107C218.434 228.37 225.385 235.967 225.385 249.221C225.385 264.092 215.363 274.436 194.348 274.436H152.964V181.011ZM165.897 193.133V220.935H190.468C202.592 220.935 207.603 215.439 207.603 206.387C207.603 197.336 202.269 192.972 190.468 192.972H165.897V193.133ZM165.897 232.411V261.505H194.994C207.28 261.505 212.776 257.141 212.776 247.766C212.776 237.745 207.442 232.411 194.671 232.411H165.897Z" fill="#253858"/>
<path d="M246.399 175.995C251.41 175.995 254.967 179.066 254.967 184.562C254.967 189.896 251.41 193.129 246.399 193.129C241.388 193.129 237.832 190.057 237.832 184.562C237.832 179.066 241.388 175.995 246.399 175.995ZM240.095 203.311H252.38V274.431H240.095V203.311Z" fill="#253858"/>
<path d="M298.939 262.794C301.848 262.794 304.435 262.148 306.698 261.824V273.625C304.596 274.271 302.172 274.756 298.454 274.756C283.258 274.756 275.822 265.866 275.822 252.61V214.623H264.345V203.308H275.822V188.275H287.784V203.308H306.698V214.623H287.784V252.287C287.784 258.591 291.503 262.794 298.939 262.794Z" fill="#253858"/>
<path d="M334.502 261.823V274.268H322.217V173.412H334.502V215.92C339.029 206.546 347.596 201.697 358.589 201.697C377.502 201.697 387.04 217.698 387.04 238.71C387.04 258.752 377.017 275.723 357.134 275.723C346.788 275.723 338.867 271.035 334.502 261.823ZM355.356 213.173C344.363 213.173 334.664 220.123 334.664 235.962V241.619C334.664 257.459 343.555 264.409 354.062 264.409C367.803 264.409 374.916 255.357 374.916 238.871C374.754 221.739 367.965 213.173 355.356 213.173Z" fill="#253858"/>
<path d="M399.809 203.308H412.095V246.304C412.095 259.073 417.268 264.73 428.907 264.73C440.222 264.73 448.143 257.133 448.143 242.748V203.146H460.429V274.267H448.143V262.629C443.617 271.034 435.211 275.722 425.674 275.722C409.347 275.722 399.971 264.407 399.971 244.849V203.308H399.809Z" fill="#253858"/>
<path d="M528.97 272.49C524.767 274.753 518.139 275.723 511.673 275.723C486.293 275.723 474.493 260.367 474.493 238.546C474.493 217.049 486.293 201.693 511.673 201.693C518.139 201.693 522.989 202.501 528.647 205.087V216.402C524.121 214.301 519.271 213.008 512.643 213.008C494.215 213.008 486.617 224.646 486.617 238.546C486.617 252.447 494.376 264.085 512.967 264.085C520.241 264.085 524.767 263.115 529.132 261.499V272.49H528.97Z" fill="#253858"/>
<path d="M542.873 274.431V173.573H555.158V236.609L585.71 203.313H601.713L568.252 238.226L603.168 274.431H586.518L555.158 241.135V274.431H542.873Z" fill="#253858"/>
<path d="M643.581 275.723C616.909 275.723 605.27 260.367 605.27 238.546C605.27 217.049 617.232 201.693 638.893 201.693C660.878 201.693 669.607 216.887 669.607 238.546V244.042H617.717C619.495 256.165 627.254 263.923 644.066 263.923C652.31 263.923 659.262 262.307 665.728 260.044V271.359C659.908 274.591 650.856 275.723 643.581 275.723ZM617.555 233.697H657.322C656.675 220.443 650.694 213.008 638.408 213.008C625.476 213.008 618.848 221.251 617.555 233.697Z" fill="#253858"/>
<path d="M712.446 262.794C715.356 262.794 717.942 262.148 720.205 261.824V273.625C718.104 274.271 715.679 274.756 711.961 274.756C696.766 274.756 689.33 265.866 689.33 252.61V214.623H677.853V203.308H689.33V188.275H701.292V203.308H720.205V214.623H701.292V252.287C701.13 258.591 704.848 262.794 712.446 262.794Z" fill="#253858"/>
<path d="M3.59673 183.591C1.65689 183.591 0.0403602 185.369 0.363667 187.309L14.1042 270.546C14.4275 272.647 16.2057 274.263 18.4688 274.263H84.2617C85.8783 274.263 87.1715 273.132 87.4948 271.516L101.235 187.309C101.559 185.369 100.104 183.591 98.0023 183.591H3.59673ZM61.4686 243.878H40.4537L34.7958 214.139H66.4799L61.4686 243.878Z" fill="#2684FF"/>
<path d="M96.8707 214.143H66.4799L61.4686 243.883H40.4537L15.7207 273.301C15.7207 273.301 16.8523 274.432 18.6305 274.432H84.4234C86.0399 274.432 87.3332 273.301 87.6565 271.685L96.8707 214.143Z" fill="url(#paint0_linear)"/>
</g>
<defs>
<linearGradient id="paint0_linear" x1="103.855" y1="222.458" x2="53.7149" y2="261.602" gradientUnits="userSpaceOnUse">
<stop offset="0.176" stop-color="#0052CC"/>
<stop offset="1" stop-color="#2684FF"/>
</linearGradient>
</defs>
</svg>
