<svg width="376" height="441" viewBox="0 0 376 441" fill="none" xmlns="http://www.w3.org/2000/svg">
<mask id="mask0" mask-type="alpha" maskUnits="userSpaceOnUse" x="0" y="0" width="376" height="441">
<rect x="0.98584" y="0.910645" width="374.34" height="439.129" fill="#C4C4C4"/>
</mask>
<g mask="url(#mask0)">
<path d="M158.513 205.72V205.573C158.292 191.855 169.28 180.498 182.998 180.277H184.03C191.258 179.908 198.264 182.637 203.353 187.799L196.494 195.69C193.175 192.298 188.677 190.38 183.957 190.233C175.697 190.233 169.797 197.092 169.797 205.499C169.797 213.906 175.623 220.913 183.957 220.913C189.562 220.913 192.954 218.7 196.789 215.16L203.648 222.093C198.633 227.919 191.258 231.164 183.588 230.795C169.944 231.016 158.734 220.101 158.513 206.458V205.72V205.72ZM216.185 181.162H226.952V200.484H246.791V181.162H257.558V230.058H246.791V210.44H226.952V230.058H216.185V181.162ZM270.686 181.162H307.634V190.749H281.379V200.632H304.463V210.219H281.379V220.47H308.003V230.058H270.686V181.162ZM322.015 181.162H359.332V190.897H332.783V201.369H356.161V211.104H332.783V230.058H322.015V181.162ZM367.371 188.242V183.3H369.436C369.805 183.3 370.247 183.3 370.616 183.448C370.837 183.522 371.059 183.669 371.206 183.89C371.354 184.112 371.427 184.407 371.427 184.702C371.427 184.923 371.354 185.218 371.28 185.439C371.206 185.513 371.206 185.587 371.132 185.66C370.911 185.882 370.616 186.029 370.321 186.103C370.469 186.25 370.616 186.398 370.69 186.545C370.911 186.767 371.059 187.062 371.28 187.357L371.87 188.315H370.69L369.952 187.209C369.805 186.988 369.584 186.693 369.436 186.472C369.362 186.398 369.289 186.324 369.141 186.25C368.994 186.177 368.772 186.177 368.625 186.177H368.404V188.242H367.371V188.242ZM368.404 185.365H369.141C369.436 185.365 369.731 185.365 370.026 185.292C370.174 185.292 370.247 185.218 370.321 185.07C370.395 184.923 370.395 184.849 370.395 184.702C370.395 184.554 370.321 184.407 370.247 184.333C370.174 184.259 370.026 184.185 369.879 184.112H368.33L368.404 185.365V185.365Z" fill="#425563"/>
<path d="M369.29 190.159C368.7 190.159 368.11 190.011 367.594 189.79C367.299 189.716 367.078 189.569 366.857 189.348C366.635 189.2 366.414 188.979 366.193 188.831C365.972 188.61 365.824 188.389 365.677 188.168C364.866 186.914 364.718 185.365 365.234 183.964C365.382 183.669 365.456 183.448 365.677 183.226C365.824 183.005 366.046 182.784 366.193 182.563C366.414 182.341 366.635 182.194 366.857 182.046C367.078 181.899 367.373 181.751 367.594 181.604C368.7 181.161 369.954 181.161 370.987 181.604C371.282 181.751 371.503 181.825 371.724 182.046C371.945 182.194 372.167 182.415 372.388 182.563C372.609 182.784 372.757 183.005 372.904 183.226C373.052 183.448 373.199 183.743 373.273 183.964C373.715 185.07 373.715 186.324 373.273 187.43C373.199 187.725 373.052 187.946 372.904 188.168C372.757 188.389 372.535 188.61 372.388 188.831C372.019 189.2 371.503 189.569 370.987 189.79C370.397 190.085 369.88 190.159 369.29 190.159ZM369.29 181.751C367.078 181.751 365.234 183.521 365.234 185.808C365.234 188.02 367.004 189.864 369.29 189.864C371.503 189.864 373.347 188.094 373.347 185.808C373.273 183.521 371.503 181.751 369.29 181.751V181.751ZM0.986328 207.49C1.20758 215.455 2.83006 223.272 5.78003 230.647L14.1137 227.255C11.5325 220.838 10.1312 214.054 9.91 207.121L0.986328 207.49V207.49Z" fill="#425563"/>
<path d="M68.8371 146.574C81.1533 146.574 93.0269 150.409 103.057 157.562L108.293 150.335C77.8346 128.579 35.4287 135.585 13.5989 166.043C10.9439 169.805 8.73145 173.861 6.81396 178.065L15.0001 181.752C24.4401 160.365 45.4586 146.647 68.8371 146.574V146.574Z" fill="#EF9600"/>
<path d="M135.872 195.099C134.545 186.618 131.669 178.432 127.244 171.057L119.5 175.482C123.114 181.456 125.547 188.093 126.801 195.099H135.872V195.099Z" fill="#425563"/>
<path d="M126.803 215.897C121.124 247.904 90.5182 269.218 58.511 263.466C46.7848 261.327 36.0912 255.796 27.61 247.536L21.415 253.952C48.186 280.207 91.1819 279.69 117.363 252.919C127.319 242.816 133.735 229.836 135.948 215.823L126.803 215.897V215.897ZM112.717 195.1H121.862C118.322 177.548 106.522 162.871 90.0757 155.865L86.4619 163.978C99.6631 169.583 109.398 181.161 112.717 195.1Z" fill="#EF9600"/>
<path d="M27.5353 187.284C34.7627 170.985 50.8401 160.439 68.6874 160.366L68.7612 151.442C47.4476 151.442 28.0515 164.053 19.3491 183.597L27.5353 187.284V187.284Z" fill="#425563"/>
<path d="M51.3551 247.094C35.0565 240.235 24.2153 224.6 23.6991 206.9L14.7754 207.195C15.4391 228.361 28.419 247.241 48.0363 255.427L51.3551 247.094Z" fill="#EF9600"/>
<path d="M112.715 215.897C107.995 235.884 90.369 250.117 69.793 250.633L70.088 259.557C95.4577 258.893 116.919 240.751 121.86 215.897H112.715V215.897Z" fill="#425563"/>
<path d="M98.4107 215.898C92.6582 232.197 74.8109 240.751 58.5123 235.073C42.2137 229.394 33.6587 211.473 39.3374 195.174C45.0161 178.876 62.9372 170.321 79.2358 176C88.1595 179.171 95.2394 186.177 98.4107 195.174H107.777C102.024 173.713 79.9733 160.955 58.5123 166.633C37.0512 172.312 24.2926 194.437 29.9713 215.898C35.65 237.359 57.7748 250.118 79.2358 244.439C93.1007 240.678 104.016 229.91 107.777 215.898H98.4107V215.898Z" fill="#425563"/>
<path d="M82.9236 215.897C81.1536 218.331 78.7199 220.175 76.0649 221.429L79.9737 229.467C85.8736 226.665 90.5936 221.871 93.101 215.897H82.9236Z" fill="#EF9600"/>
<path d="M68.8349 223.051C64.1887 223.051 59.6162 221.133 56.2975 217.814L50.1025 224.231C55.1175 229.172 61.8287 232.048 68.8349 232.048H69.1299L68.8349 223.051Z" fill="#425563"/>
<path d="M68.2436 188.02V179.096C53.6413 179.317 42.0626 191.412 42.2839 206.015C42.3576 209.186 42.9476 212.21 44.1276 215.16L52.3875 211.767C48.9213 202.77 53.42 192.666 62.4174 189.2C64.3349 188.462 66.3262 188.094 68.2436 188.02V188.02Z" fill="#EF9600"/>
<path d="M79.1616 181.162L75.5479 189.348C78.4978 190.602 81.0053 192.593 82.9228 195.1H93.1739C90.4452 188.832 85.3565 183.89 79.1616 181.162V181.162Z" fill="#425563"/>
<path d="M198.192 280.28C198.192 280.723 197.897 281.313 197.454 281.534L187.498 287.286V265.088L168.25 253.952L178.206 248.199C178.575 247.978 179.238 247.978 179.607 248.199L198.118 258.893V280.28H198.192ZM183.221 267.521L170.02 259.925C169.651 259.704 168.987 259.704 168.618 259.925L159.695 265.088L173.56 273.126V289.204L182.483 284.041C182.852 283.82 183.221 283.23 183.221 282.788V267.521V267.521ZM159.695 281.091L169.282 286.623V275.56L159.695 281.091Z" fill="#5CE500"/>
<path d="M219.356 258.894H208.884V287.287H213.53V276.151H219.43C225.772 276.151 229.312 273.053 229.312 267.375C229.239 264.794 228.28 258.894 219.356 258.894ZM224.519 267.448C224.519 270.62 222.822 271.947 218.766 271.947H213.53V263.024H219.43C222.822 263.024 224.519 264.499 224.519 267.448V267.448ZM243.103 266.563L243.472 266.711L242.661 270.915L242.145 270.767C241.702 270.62 241.26 270.546 240.817 270.546C236.466 270.546 236.097 274.012 236.097 278.216V287.287H231.82V266.416H235.876V268.923C236.982 267.227 238.31 266.342 240.08 266.121C241.112 266.047 242.218 266.195 243.103 266.563V266.563ZM253.723 265.973C250.331 265.973 247.602 267.301 245.832 269.735C243.988 272.316 243.693 275.34 243.693 276.888C243.693 283.452 247.602 287.73 253.65 287.73C261.025 287.73 263.606 281.83 263.606 276.741C263.606 273.791 262.721 271.136 261.172 269.292C259.476 267.153 256.821 265.973 253.723 265.973V265.973ZM253.723 283.895C250.331 283.895 248.266 281.24 248.266 276.888C248.266 272.537 250.331 269.808 253.723 269.808C257.042 269.808 259.255 272.537 259.255 276.815C259.181 281.166 257.116 283.895 253.723 283.895ZM299.89 266.563L300.259 266.711L299.448 270.915L298.932 270.767C298.489 270.62 298.047 270.546 297.604 270.546C293.253 270.546 292.884 274.012 292.884 278.216V287.287H288.607V266.416H292.663V268.923C293.769 267.227 295.097 266.342 296.867 266.121C297.899 266.047 299.005 266.195 299.89 266.563V266.563ZM315.304 280.576L315.23 280.797C314.345 283.378 312.207 283.895 310.51 283.895C307.265 283.895 305.127 281.756 304.979 278.216H319.729L319.803 277.773C319.877 277.257 319.877 276.593 319.877 276.151V275.782C319.655 269.956 315.82 266.047 310.437 266.047C307.265 266.047 304.61 267.301 302.914 269.661C301.513 271.578 300.702 274.233 300.702 276.962C300.702 283.378 304.684 287.73 310.658 287.73C315.304 287.73 318.475 285.37 319.582 281.166L319.729 280.65H315.304V280.576ZM305.127 274.455C305.495 271.578 307.487 269.735 310.289 269.735C312.428 269.735 315.009 270.988 315.304 274.455H305.127ZM280.716 268.186C279.314 266.711 277.471 266.047 275.184 266.047C268.842 266.047 265.966 271.578 265.966 276.741C265.966 282.051 268.842 287.361 275.184 287.361C277.323 287.361 279.167 286.55 280.568 285.148C280.568 286.033 280.494 286.918 280.494 287.287C280.273 290.753 278.577 292.302 275.258 292.302C273.488 292.302 271.423 291.638 270.981 289.868L270.907 289.5H266.63L266.703 290.09C267.146 293.777 270.391 296.063 275.111 296.063C279.314 296.063 282.264 294.514 283.666 291.491C284.329 290.09 284.698 287.951 284.698 285.296V266.342H280.642V268.186H280.716ZM275.406 283.526C273.931 283.526 270.391 282.862 270.391 276.52C270.391 272.39 272.382 269.808 275.479 269.808C277.913 269.808 280.494 271.578 280.494 276.52C280.568 280.945 278.651 283.526 275.406 283.526ZM339.715 281.018C339.715 284.337 336.986 287.656 330.791 287.656C325.334 287.656 322.089 285.296 321.646 281.018L321.573 280.576H325.776L325.85 280.871C326.366 283.452 328.8 283.968 330.791 283.968C332.93 283.968 335.216 283.305 335.216 281.313C335.216 280.355 334.553 279.617 333.299 279.248C332.561 279.027 331.603 278.732 330.644 278.511C328.948 278.068 327.251 277.552 326.145 277.183C323.49 276.225 322.015 274.381 322.015 272.095C322.015 267.891 326.071 265.973 330.128 265.973C335.585 265.973 338.388 268.038 338.683 272.242V272.685H334.479L334.405 272.39C333.963 269.956 331.603 269.587 330.201 269.587C329.021 269.587 326.219 269.808 326.219 271.8C326.219 272.685 327.03 273.348 328.579 273.865C329.021 274.012 329.759 274.16 330.57 274.381C332.266 274.823 334.405 275.34 335.438 275.708C338.388 276.667 339.715 278.437 339.715 281.018V281.018ZM359.627 281.018C359.627 284.337 356.899 287.656 350.704 287.656C345.246 287.656 342.001 285.296 341.559 281.018L341.485 280.576H345.763L345.836 280.871C346.353 283.452 348.786 283.968 350.777 283.968C352.916 283.968 355.202 283.305 355.202 281.313C355.202 280.355 354.539 279.617 353.285 279.248C352.547 279.027 351.589 278.732 350.63 278.511C348.934 278.068 347.238 277.552 346.131 277.183C343.476 276.225 342.001 274.381 342.001 272.095C342.001 267.891 346.058 265.973 350.114 265.973C355.571 265.973 358.374 268.038 358.669 272.242L358.742 272.685H354.539L354.465 272.39C354.022 269.956 351.662 269.587 350.261 269.587C349.081 269.587 346.279 269.808 346.279 271.8C346.279 272.685 347.09 273.348 348.639 273.865C349.081 274.012 349.819 274.16 350.63 274.381C352.326 274.823 354.465 275.34 355.497 275.708C358.3 276.667 359.627 278.437 359.627 281.018V281.018ZM363.02 268.628C361.397 268.628 360.07 267.375 360.07 265.679C360.07 263.982 361.397 262.729 363.02 262.729C364.642 262.729 365.97 263.982 365.97 265.679C365.97 267.375 364.642 268.628 363.02 268.628ZM363.02 263.245C361.692 263.245 360.586 264.277 360.586 265.679C360.586 267.153 361.692 268.112 363.02 268.112C364.347 268.112 365.454 267.08 365.454 265.679C365.454 264.204 364.347 263.245 363.02 263.245ZM362.725 266.195V267.153H361.84V264.056H363.315C363.979 264.056 364.495 264.499 364.495 265.162C364.495 265.678 364.274 265.973 363.905 266.121L364.642 267.227H363.684L363.094 266.268H362.725V266.195ZM363.167 264.867H362.725V265.531H363.241C363.536 265.531 363.684 265.383 363.684 265.162C363.61 265.015 363.462 264.867 363.167 264.867Z" fill="#4B4E52"/>
</g>
</svg>
