<svg width="613" height="441" viewBox="0 0 613 441" fill="none" xmlns="http://www.w3.org/2000/svg">
<mask id="mask0" mask-type="alpha" maskUnits="userSpaceOnUse" x="0" y="0" width="613" height="441">
<rect x="0.322266" y="0.879883" width="611.901" height="439.129" fill="#C4C4C4"/>
</mask>
<g mask="url(#mask0)">
<path d="M47.1327 237.596C47.1327 229.335 53.8636 222.299 62.4303 222.299C70.6909 222.299 77.7278 229.029 77.7278 237.596C77.7278 246.163 70.9969 252.894 62.4303 252.894C53.8636 252.894 47.1327 246.163 47.1327 237.596ZM62.4303 173.652C32.4471 173.652 7.35913 194.151 0.322266 221.687C0.322266 221.993 0.322266 222.299 0.322266 222.299C0.322266 224.134 1.54607 225.358 3.38177 225.358H29.0816C30.3054 225.358 31.2233 224.746 31.8352 223.522C37.0364 211.896 48.6625 203.941 62.4303 203.941C80.7873 203.941 96.0848 218.933 96.0848 237.596C96.0848 256.259 81.0933 271.251 62.4303 271.251C48.9684 271.251 37.3423 263.296 31.8352 251.67C31.2233 250.752 30.3054 249.834 29.0816 249.834H3.38177C1.54607 249.834 0.322266 251.058 0.322266 252.894C0.322266 253.2 0.322266 253.2 0.322266 253.505C7.35913 281.041 32.4471 301.54 62.4303 301.54C97.9205 301.54 126.374 272.78 126.374 237.596C126.374 202.106 97.6146 173.652 62.4303 173.652ZM229.785 252.588H221.219C220.607 252.588 219.995 252.894 219.689 253.2C214.488 260.542 206.227 265.438 196.437 265.438C180.833 265.438 168.289 252.894 168.289 237.29C168.289 221.687 180.833 209.143 196.437 209.143C206.227 209.143 214.794 214.038 219.689 221.381C219.995 221.687 220.607 221.993 221.219 221.993H229.785C230.703 221.993 231.621 221.075 231.621 220.157C231.621 219.851 231.621 219.545 231.315 219.239C224.89 206.389 211.428 197.517 196.131 197.517C174.408 197.517 156.663 215.262 156.663 236.984C156.663 258.707 174.408 276.452 196.131 276.452C211.428 276.452 224.89 267.579 231.315 254.729C231.315 254.423 231.621 254.117 231.621 253.811C231.621 253.506 230.703 252.588 229.785 252.588ZM256.097 184.973C256.097 189.256 252.732 192.621 248.448 192.621C244.165 192.621 240.8 189.256 240.8 184.973C240.8 180.689 244.165 177.324 248.448 177.324C252.732 177.63 256.097 180.995 256.097 184.973ZM254.261 273.086V199.964H242.941V273.086C242.941 274.004 243.859 274.922 244.777 274.922H252.426C253.344 275.228 254.261 274.31 254.261 273.086ZM302.908 198.128C291.587 198.74 282.409 203.941 276.596 212.508V202.106C276.596 201.188 275.678 200.27 274.76 200.27H267.111C266.193 200.27 265.276 201.188 265.276 202.106V273.392C265.276 274.31 266.193 275.228 267.111 275.228H274.76C275.678 275.228 276.596 274.31 276.596 273.392V237.596C276.596 222.604 288.222 210.366 302.908 209.449C303.825 209.449 304.743 208.531 304.743 207.613V199.964C304.743 199.046 303.825 198.128 302.908 198.128ZM377.56 252.588H368.993C368.381 252.588 367.769 252.894 367.463 253.2C362.262 260.542 354.001 265.438 344.211 265.438C328.607 265.438 316.063 252.894 316.063 237.29C316.063 221.687 328.607 209.143 344.211 209.143C354.001 209.143 362.568 214.038 367.463 221.381C367.769 221.687 368.381 221.993 368.993 221.993H377.56C378.477 221.993 379.395 221.075 379.395 220.157C379.395 219.851 379.395 219.545 379.089 219.239C372.664 206.389 359.202 197.517 343.905 197.517C322.182 197.517 304.437 215.262 304.437 236.984C304.437 258.707 322.182 276.452 343.905 276.452C359.202 276.452 372.664 267.579 379.089 254.729C379.089 254.423 379.395 254.117 379.395 253.811C379.395 253.506 378.783 252.588 377.56 252.588ZM400.2 175.794H392.551C391.633 175.794 390.715 176.712 390.715 177.63V273.392C390.715 274.31 391.633 275.228 392.551 275.228H400.2C401.118 275.228 402.036 274.31 402.036 273.392V177.63C402.036 176.406 401.118 175.794 400.2 175.794ZM452.517 198.128C430.795 198.128 413.05 215.874 413.05 237.596C413.05 259.319 430.795 277.064 452.517 277.064C467.815 277.064 481.277 268.191 487.702 255.341C487.702 255.035 488.008 254.729 488.008 254.423C488.008 253.505 487.09 252.588 486.172 252.588H477.605C476.993 252.588 476.382 252.894 476.076 253.505C470.874 260.848 462.614 265.744 452.823 265.744C438.444 265.744 426.818 255.035 424.982 241.267H490.455C491.373 241.267 492.291 240.35 492.291 239.432C492.291 238.82 492.291 238.208 492.291 237.596C491.985 215.874 474.546 198.128 452.517 198.128ZM425.594 229.947C428.959 218.015 439.667 209.449 452.823 209.449C465.673 209.449 476.688 218.321 480.053 229.947H425.594ZM600.904 173.958C594.785 173.958 589.583 178.854 589.583 185.278C589.583 191.397 594.479 196.599 600.904 196.599C607.023 196.599 612.224 191.703 612.224 185.278C612.224 178.854 607.328 173.958 600.904 173.958ZM610.388 199.964V273.086C610.388 274.004 609.47 274.922 608.552 274.922H593.561C592.643 274.922 591.725 274.004 591.725 273.086V199.964H610.388ZM542.773 277.064C561.13 277.064 576.427 264.52 581.017 247.386V247.081C581.017 246.163 580.099 245.245 579.181 245.245H563.272C562.66 245.245 561.742 245.551 561.436 246.469C558.07 253.505 551.034 258.401 542.773 258.401C531.453 258.401 522.274 249.222 522.274 237.902C522.274 226.582 531.453 217.403 542.773 217.403C551.034 217.403 558.376 222.299 561.436 229.335C561.742 229.947 562.354 230.559 563.272 230.559H579.181C580.099 230.559 581.017 229.641 581.017 228.723V228.418C576.733 211.284 561.13 198.74 542.773 198.74C521.05 198.74 503.305 216.485 503.305 238.208C503.305 259.319 521.05 277.064 542.773 277.064Z" fill="#343434"/>
</g>
</svg>
