<svg width="815" height="440" viewBox="0 0 815 440" fill="none" xmlns="http://www.w3.org/2000/svg">
<mask id="mask0" mask-type="alpha" maskUnits="userSpaceOnUse" x="0" y="0" width="815" height="440">
<rect x="0.98584" y="0.750488" width="813.469" height="439.129" fill="#C4C4C4"/>
</mask>
<g mask="url(#mask0)">
<path d="M215.402 269C209.663 272.825 200.577 274.419 191.012 274.419C160.725 274.419 143.668 256.249 143.668 227.082C143.668 199.031 160.725 179.427 190.853 179.427C199.78 179.427 208.866 181.18 215.402 185.802V198.075C208.866 193.931 201.533 191.699 190.853 191.699C169.174 191.699 156.421 206.044 156.421 227.241C156.421 248.439 169.811 262.465 191.65 262.465C201.374 262.465 208.866 260.234 215.561 256.887V269H215.402Z" fill="#253858"/>
<path d="M224.169 237.913C224.169 216.875 236.444 201.574 257.486 201.574C278.368 201.574 290.642 216.875 290.642 237.913C290.642 258.951 278.368 274.571 257.486 274.571C236.603 274.412 224.169 258.951 224.169 237.913ZM235.966 237.913C235.966 251.301 242.501 263.255 257.645 263.255C272.47 263.255 279.006 251.142 279.006 237.913C279.006 224.684 272.629 212.73 257.645 212.73C242.661 212.73 235.966 224.525 235.966 237.913Z" fill="#253858"/>
<path d="M364.448 273.139H352.333V230.743C352.333 218.151 347.232 212.573 335.755 212.573C324.596 212.573 316.785 220.064 316.785 234.249V273.299H304.67V203.169H316.785V214.645C321.248 206.357 329.538 201.735 338.943 201.735C355.043 201.735 364.289 212.892 364.289 232.177V273.139H364.448Z" fill="#253858"/>
<path d="M397.923 203.009H416.096V214.165H397.923V273.136H386.127V214.165H374.81V203.009H386.127V195.358C386.127 182.289 393.46 173.523 408.444 173.523C412.111 173.523 414.502 174.16 416.574 174.639V185.795C414.502 185.317 411.792 185.158 408.922 185.158C401.43 185.158 397.764 189.461 397.764 195.836V203.009H397.923Z" fill="#253858"/>
<path d="M447.817 273.46C436.34 273.46 429.007 268.041 429.007 255.13V173.684H441.122V253.696C441.122 260.071 445.267 262.303 450.527 262.303C451.802 262.303 452.599 262.303 454.034 262.143V272.982C453.078 273.141 451.005 273.46 447.817 273.46Z" fill="#253858"/>
<path d="M464.236 203.012H476.351V245.407C476.351 257.998 481.452 263.576 492.93 263.576C504.088 263.576 511.899 256.086 511.899 241.901V202.853H524.014V272.98H511.899V261.504C507.436 269.792 499.147 274.414 489.742 274.414C473.641 274.414 464.396 263.258 464.396 243.973V203.012H464.236Z" fill="#253858"/>
<path d="M575.662 274.415C549.359 274.415 537.882 259.273 537.882 237.756C537.882 216.557 549.678 201.415 571.039 201.415C592.719 201.415 601.327 216.398 601.327 237.756V243.175H550.156C551.91 255.129 559.562 262.779 576.14 262.779C584.27 262.779 591.125 261.186 597.501 258.954V270.111C591.603 273.299 582.835 274.415 575.662 274.415ZM549.997 232.974H589.212C588.574 219.904 582.676 212.572 570.561 212.572C557.649 212.413 551.272 220.701 549.997 232.974Z" fill="#253858"/>
<path d="M675.292 273.139H663.177V230.743C663.177 218.151 658.076 212.573 646.598 212.573C635.439 212.573 627.628 220.064 627.628 234.249V273.299H615.513V203.169H627.628V214.645C632.091 206.357 640.381 201.735 649.786 201.735C665.887 201.735 675.133 212.892 675.133 232.177V273.139H675.292Z" fill="#253858"/>
<path d="M741.606 271.227C737.462 273.458 730.926 274.415 724.55 274.415C699.523 274.415 687.886 259.273 687.886 237.756C687.886 216.557 699.523 201.415 724.55 201.415C730.926 201.415 735.708 202.212 741.288 204.762V215.92C736.824 213.847 732.042 212.572 725.506 212.572C707.334 212.572 699.841 224.048 699.841 237.756C699.841 251.463 707.493 262.939 725.825 262.939C732.998 262.939 737.462 261.983 741.766 260.389V271.227H741.606Z" fill="#253858"/>
<path d="M788.789 274.415C762.487 274.415 751.01 259.273 751.01 237.756C751.01 216.557 762.806 201.415 784.166 201.415C805.846 201.415 814.454 216.398 814.454 237.756V243.175H763.284C765.038 255.129 772.689 262.779 789.267 262.779C797.397 262.779 804.251 261.186 810.628 258.954V270.111C804.889 273.299 795.962 274.415 788.789 274.415ZM763.125 232.974H802.339C801.701 219.904 795.803 212.572 783.688 212.572C770.936 212.413 764.4 220.701 763.125 232.974Z" fill="#253858"/>
<path d="M4.66473 252.26C3.70828 254.014 2.43302 255.926 1.47658 257.52C0.520135 258.955 0.998357 260.867 2.59243 261.824L23.3154 274.575C24.9095 275.531 26.8224 275.053 27.7788 273.459C28.5758 272.025 29.6917 270.271 30.8075 268.359C39.0967 254.811 47.2265 256.404 62.2108 263.577L82.7743 273.3C84.3684 274.097 86.2813 273.3 87.0783 271.706L96.9616 249.391C97.5992 247.797 96.9616 245.885 95.3675 245.247C91.0635 243.175 82.4555 239.19 74.6446 235.365C46.4295 221.816 22.8372 222.773 4.66473 252.26Z" fill="url(#paint0_linear)"/>
<path d="M97.2869 201.734C98.2434 199.98 99.5186 198.068 100.475 196.474C101.432 195.039 100.953 193.126 99.3592 192.17L78.6362 179.418C77.0422 178.461 75.1293 178.94 74.1728 180.534C73.3758 181.968 72.2599 183.722 71.1441 185.634C62.8549 199.183 54.7251 197.589 39.7408 190.416L19.1772 180.693C17.5831 179.896 15.6703 180.693 14.8732 182.287L4.98995 204.603C4.35232 206.197 4.98995 208.11 6.58402 208.747C10.888 210.82 19.496 214.805 27.307 218.63C55.5221 232.02 79.2739 231.223 97.2869 201.734Z" fill="url(#paint1_linear)"/>
</g>
<defs>
<linearGradient id="paint0_linear" x1="96.1864" y1="281.185" x2="33.4927" y2="245.155" gradientUnits="userSpaceOnUse">
<stop stop-color="#0052CC"/>
<stop offset="0.9182" stop-color="#2380FB"/>
<stop offset="1" stop-color="#2684FF"/>
</linearGradient>
<linearGradient id="paint1_linear" x1="5.78858" y1="172.776" x2="68.4837" y2="208.804" gradientUnits="userSpaceOnUse">
<stop stop-color="#0052CC"/>
<stop offset="0.9182" stop-color="#2380FB"/>
<stop offset="1" stop-color="#2684FF"/>
</linearGradient>
</defs>
</svg>
