<svg width="181" height="440" viewBox="0 0 181 440" fill="none" xmlns="http://www.w3.org/2000/svg">
<mask id="mask0" mask-type="alpha" maskUnits="userSpaceOnUse" x="0" y="0" width="181" height="440">
<rect x="0.322266" y="0.777344" width="179.971" height="439.129" fill="#C4C4C4"/>
</mask>
<g mask="url(#mask0)">
<path d="M175.277 292.683V299.074C174.109 299.348 173.078 299.555 172.185 299.555C166.069 299.555 163.045 296.256 163.045 289.728C163.045 283.681 166.275 280.657 172.734 280.657C175.414 280.657 177.957 281.138 180.293 282.169V277.634C177.957 276.74 175.346 276.328 172.391 276.328C162.702 276.328 157.891 280.795 157.891 289.728C157.891 299.142 162.633 303.884 172.116 303.884C175.414 303.884 178.094 303.403 180.293 302.441V288.216H172.253L170.535 292.683H175.277ZM141.124 299.486C146.553 299.486 149.233 296.325 149.233 290.003C149.233 283.75 146.553 280.657 141.124 280.657C135.558 280.657 132.81 283.75 132.81 290.003C132.81 296.325 135.558 299.486 141.124 299.486ZM127.587 290.14C127.587 280.932 132.122 276.328 141.124 276.328C149.989 276.328 154.456 280.932 154.456 290.14C154.456 299.28 150.058 303.884 141.124 303.884C132.535 303.884 127.999 299.28 127.587 290.14ZM104.979 299.28H110.889C116.455 299.28 119.272 295.981 119.272 289.316C119.272 283.681 116.455 280.795 110.889 280.795H104.979V299.28ZM111.645 303.678H99.9626V276.466H111.645C120.028 276.466 124.289 280.726 124.289 289.316C124.22 298.867 120.028 303.678 111.645 303.678ZM73.3002 303.678H68.1464L79.5535 276.466H84.9135L96.5954 303.678H91.2355L87.8683 296.256H79.2786L80.9966 291.858H86.5627L82.1648 281.619L73.3002 303.678ZM50.3486 276.466H70.7577V280.863H63.0613V303.678H58.0449V280.863H50.3486V276.466ZM29.8021 303.678H24.6482L36.0553 276.466H41.484L53.166 303.678H47.806L44.4389 296.256H35.7805L37.4984 291.858H43.0645L38.6666 281.619L29.8021 303.678ZM5.26992 299.28H11.2483C16.8145 299.28 19.6319 295.981 19.6319 289.316C19.6319 283.681 16.8145 280.795 11.2483 280.795H5.33864V299.28H5.26992ZM12.0042 303.678H0.322266V276.466H12.0042C20.3878 276.466 24.6482 280.726 24.6482 289.316C24.5795 298.867 20.3878 303.678 12.0042 303.678Z" fill="#7749A3"/>
<path d="M152.807 196.134L149.165 196.821L142.087 123.156L22.4497 137.243L37.224 258.736L51.2423 256.674C50.1428 255.025 48.3562 253.101 45.4013 250.558C41.2783 247.054 42.7214 241.144 45.1952 237.433C48.4249 231.111 64.9858 223.14 64.0925 213.039C63.7489 209.397 63.1992 204.586 59.832 201.357C59.6946 202.731 59.9007 204.037 59.9007 204.037C59.9007 204.037 58.5264 202.25 57.8392 199.845C57.152 198.883 56.6023 198.608 55.9151 197.371C55.3654 198.814 55.4341 200.463 55.4341 200.463C55.4341 200.463 54.3346 197.783 54.1285 195.516C53.4413 196.546 53.3039 198.471 53.3039 198.471C53.3039 198.471 51.8608 194.21 52.2044 191.942C51.5172 189.95 49.5931 185.964 50.1428 176.962C53.7849 179.573 61.8248 178.955 64.9858 174.282C66.0166 172.702 66.7038 168.51 64.4361 160.126C62.993 154.766 59.351 146.795 57.9766 143.771L57.8392 143.909C58.5951 146.314 60.1069 151.468 60.7253 153.942C62.512 161.432 62.993 164.043 62.1684 167.548C61.4812 170.571 59.7633 172.564 55.4341 174.763C51.1049 176.962 45.4013 171.602 45.0578 171.327C40.866 167.96 37.6363 162.394 37.2927 159.714C36.9491 156.759 38.9419 154.972 39.9727 152.567C38.5296 152.98 36.8804 153.736 36.8804 153.736C36.8804 153.736 38.8732 151.674 41.2783 149.887C42.3091 149.2 42.8588 148.788 43.9583 147.895C42.4465 147.895 41.2096 147.895 41.2096 147.895C41.2096 147.895 43.7521 146.52 46.4321 145.489C44.508 145.421 42.6526 145.489 42.6526 145.489C42.6526 145.489 47.9439 142.741 52.4792 140.885C55.5715 139.58 58.5951 139.992 60.313 142.466C62.512 145.764 64.8484 147.482 69.8648 148.582C72.8883 147.207 73.8504 146.52 77.6298 145.421C80.997 141.641 83.677 141.16 83.677 141.16C83.677 141.16 82.3713 142.397 82.0278 144.321C83.9518 142.809 86.0134 141.504 86.0134 141.504C86.0134 141.504 85.1888 142.535 84.4329 144.115L84.639 144.39C86.838 143.016 89.518 141.985 89.518 141.985C89.518 141.985 88.7621 142.947 87.8687 144.184C89.518 144.184 92.9538 144.253 94.2595 144.39C102.093 144.596 103.674 135.938 106.697 134.838C110.477 133.464 112.126 132.639 118.517 139.03C124.014 144.527 128.275 154.285 126.144 156.484C124.358 158.34 120.853 155.797 116.936 150.849C114.875 148.238 113.294 145.146 112.607 141.229C111.989 137.931 109.583 136.006 109.583 136.006C109.583 136.006 110.958 139.167 110.958 141.916C110.958 143.428 111.164 149.131 113.569 152.292C113.363 152.773 113.225 154.56 112.951 154.972C110.133 151.537 104.155 149.131 103.193 148.376C106.491 151.124 114.05 157.446 117.005 163.493C119.754 169.197 118.104 174.488 119.547 175.794C119.96 176.206 125.457 183.215 126.557 186.72C128.412 192.836 126.694 199.295 124.22 203.281L117.417 204.38C116.455 204.105 115.768 203.968 114.875 203.418C115.356 202.525 116.318 200.326 116.318 199.914L115.905 199.226C113.775 202.25 110.271 205.205 107.316 206.923C103.468 209.122 99.0697 208.778 96.1836 207.885C88.0062 205.342 80.2411 199.707 78.3857 198.196C78.3857 198.196 78.317 199.364 78.6606 199.639C80.7221 201.975 85.4636 206.304 89.999 209.259L80.2411 210.359L84.8452 246.779C82.7837 247.054 82.5088 247.191 80.2411 247.535C78.2483 240.457 74.4688 235.853 70.3458 233.173C66.7038 230.768 61.6874 230.287 56.8772 231.249L56.6023 231.592C59.9694 231.249 63.8863 231.73 67.9407 234.341C71.9263 236.884 75.0873 243.481 76.3242 247.466C77.836 252.551 78.8668 257.98 74.8124 263.683C71.9263 267.738 63.474 270.005 56.671 265.127C58.4577 268.081 60.9315 270.555 64.2299 270.967C69.1776 271.655 73.7817 270.761 77.0114 267.463C79.7601 264.577 81.2031 258.598 80.7908 252.276L85.12 251.658L86.7005 262.996L158.51 254.2L152.807 196.134ZM84.0206 212.901L93.0913 211.664C94.5343 212.352 95.5651 212.558 97.3518 213.039C100.1 213.795 103.261 214.482 107.934 212.077C109.034 211.527 111.301 209.397 112.195 208.228L149.233 201.425L153.013 247.878L89.5867 259.492L84.0206 212.901Z" fill="#7749A3"/>
<path d="M136.52 228.293L124.426 220.185L114.255 237.364L102.505 233.86L92.1284 249.939L92.6782 254.956L149.026 244.442L145.728 208.709L136.52 228.293Z" fill="#7749A3"/>
<path d="M108.209 192.767C111.301 195.103 114.05 196.684 116.936 196.34C118.723 196.134 120.235 193.248 121.334 190.705C122.09 188.919 122.09 186.995 120.991 186.376C120.441 186.033 117.83 186.17 115.974 186.376C112.47 186.789 108.759 188.025 107.934 188.644C106.422 189.881 107.11 191.874 108.209 192.767Z" fill="#7749A3"/>
<path d="M109.034 167.686V167.754L109.103 167.96L109.309 168.442C110.134 170.228 111.096 171.877 112.676 172.771C113.088 172.702 113.501 172.633 113.913 172.633C115.356 172.565 116.318 172.771 116.868 173.114C116.937 172.839 116.937 172.358 116.868 171.74C116.73 169.472 117.28 165.693 113.088 163.7C111.508 162.944 109.24 163.15 108.484 164.112C108.622 164.112 108.759 164.181 108.828 164.181C109.927 164.593 109.172 165.006 108.965 165.418C108.897 165.899 108.553 166.174 109.034 167.686Z" fill="#7749A3"/>
<path d="M80.6516 169.128C77.2845 171.464 77.2158 176.481 80.3768 179.298C80.7204 179.573 80.9952 179.779 81.2014 179.917C82.1634 179.436 83.1942 179.023 84.4311 178.611C86.4926 177.924 88.2793 177.58 89.6536 177.374C90.3408 176.618 91.0967 175.244 90.9593 172.77C90.6844 169.403 88.2106 169.953 90.0659 168.166C91.0967 167.273 85.2557 165.967 80.6516 169.128Z" fill="#7749A3"/>
</g>
</svg>
