<svg width="575" height="440" viewBox="0 0 575 440" fill="none" xmlns="http://www.w3.org/2000/svg">
<mask id="mask0" mask-type="alpha" maskUnits="userSpaceOnUse" x="0" y="0" width="575" height="440">
<rect x="0.322266" y="0.0888672" width="574.419" height="439.129" fill="#C4C4C4"/>
</mask>
<g mask="url(#mask0)">
<path d="M416.029 198.933H402.765C399.008 198.933 396.417 199.653 394.848 201.207C393.279 202.762 392.487 205.374 392.487 208.973V254.761H384.57V208.433C384.613 204.928 385.24 201.114 387.068 198.213C390.407 192.844 396.885 191.786 401.707 191.786H416.029V198.933Z" fill="#424143"/>
<path d="M364.982 247.621C361.225 247.621 358.642 246.901 357.066 245.339C355.489 243.777 354.698 241.302 354.698 237.71V198.932H371.323V191.785H354.698V172.893H346.781V238.113C346.824 241.625 347.45 245.433 349.278 248.333C352.654 253.702 359.153 254.76 363.946 254.76H378.268V247.621H364.982Z" fill="#424143"/>
<path d="M157.439 172.893V191.785H140.807C130.731 191.785 124.591 194.801 120.82 198.464C114.998 204.121 114.998 212.261 114.998 213.125V233.421C114.998 234.284 114.998 242.424 120.82 248.081C124.591 251.745 130.709 254.76 140.807 254.76H148.212C153.013 254.76 159.512 253.702 162.887 248.333C164.708 245.454 165.342 241.618 165.378 238.106V172.893H157.439ZM155.064 245.339C153.488 246.865 150.89 247.613 147.147 247.613H140C133.444 247.613 129.385 245.749 126.866 243.295C125.608 242.028 124.613 240.525 123.937 238.873C123.262 237.22 122.919 235.451 122.929 233.665V212.873C122.919 211.088 123.262 209.318 123.937 207.666C124.613 206.013 125.608 204.51 126.866 203.243C129.385 200.796 133.444 198.925 140 198.925H157.439V237.703C157.439 241.302 156.669 243.792 155.079 245.339" fill="#424143"/>
<path d="M487.743 203.244C490.255 200.797 494.322 198.926 500.878 198.926H519.958V191.786H501.67C491.594 191.786 485.447 194.802 481.676 198.465C475.854 204.122 475.861 212.262 475.861 213.126V233.422C475.861 234.285 475.861 242.425 481.676 248.082C485.447 251.746 491.572 254.761 501.67 254.761H519.958V247.614H500.878C494.322 247.614 490.255 245.75 487.743 243.296C486.485 242.029 485.489 240.527 484.812 238.874C484.135 237.222 483.791 235.452 483.799 233.666V212.874C483.791 211.088 484.135 209.318 484.812 207.666C485.489 206.013 486.485 204.511 487.743 203.244" fill="#424143"/>
<path d="M338.589 213.126C338.589 212.262 338.589 204.122 332.774 198.465C328.995 194.802 322.877 191.786 312.78 191.786H295.118V198.926H313.557C320.114 198.926 324.18 200.797 326.692 203.244C327.957 204.508 328.96 206.009 329.643 207.662C330.326 209.314 330.676 211.086 330.672 212.874V218.955H305.36C300.559 218.955 294.06 220.013 290.685 225.382C288.864 228.261 288.23 232.09 288.194 235.602V238.136C288.194 241.648 288.864 245.455 290.685 248.356C294.06 253.732 300.559 254.79 305.36 254.79H321.409C326.202 254.79 332.702 253.732 336.077 248.356C337.905 245.477 338.538 241.648 338.574 238.136L338.589 213.126ZM328.297 245.34C326.713 246.873 324.123 247.614 320.38 247.614H306.418C302.668 247.614 300.077 246.895 298.501 245.34C296.924 243.786 296.126 241.303 296.126 237.704V235.991C296.126 232.392 296.896 229.895 298.486 228.355C300.077 226.815 302.661 226.073 306.403 226.073H330.672V237.704C330.672 241.303 329.909 243.8 328.318 245.34" fill="#424143"/>
<path d="M469.579 213.126C469.579 212.262 469.579 204.122 463.763 198.465C459.985 194.802 453.867 191.786 443.77 191.786H426.108V198.926H444.547C451.103 198.926 455.17 200.797 457.682 203.244C458.947 204.508 459.949 206.009 460.633 207.662C461.316 209.314 461.665 211.086 461.662 212.874V218.955H436.349C431.549 218.955 425.05 220.013 421.674 225.382C419.853 228.261 419.22 232.09 419.184 235.602V238.136C419.184 241.648 419.853 245.455 421.674 248.356C425.05 253.732 431.549 254.79 436.349 254.79H452.399C457.192 254.79 463.691 253.732 467.067 248.356C468.895 245.477 469.528 241.648 469.564 238.136L469.579 213.126ZM459.287 245.34C457.703 246.873 455.112 247.614 451.37 247.614H437.407C433.658 247.614 431.067 246.895 429.49 245.34C427.914 243.786 427.115 241.303 427.115 237.704V235.991C427.115 232.392 427.885 229.895 429.476 228.355C431.067 226.815 433.65 226.073 437.393 226.073H461.662V237.704C461.662 241.303 460.899 243.8 459.308 245.34" fill="#424143"/>
<path d="M228.366 191.786H220.097L200.038 243.987L179.965 191.786H171.688L195.893 254.761L188.631 273.654H196.907L228.366 191.786Z" fill="#424143"/>
<path d="M281.898 213.126C281.898 212.262 281.898 204.122 276.14 198.465C272.542 194.867 266.662 191.944 257.14 191.786H256.305C246.776 191.944 240.939 194.902 237.305 198.465C231.547 204.122 231.547 212.262 231.547 213.126V254.761H239.464V212.874C239.443 211.094 239.773 209.327 240.435 207.675C241.097 206.023 242.078 204.517 243.321 203.244C245.754 200.847 250.461 199.012 256.723 198.926C262.977 199.005 267.684 200.84 270.124 203.244C271.368 204.517 272.348 206.023 273.01 207.675C273.672 209.327 274.002 211.094 273.981 212.874V254.761H281.898V213.126" fill="#424143"/>
<path d="M568.963 198.465C565.321 194.867 559.484 191.944 549.955 191.786H549.12C539.598 191.944 533.761 194.902 530.12 198.465C524.362 204.122 524.362 212.262 524.362 213.126V233.422C524.362 234.285 524.362 242.425 530.12 248.075C533.761 251.674 539.598 254.596 549.12 254.761H567.833V247.564H549.537C543.283 247.485 538.576 245.65 536.136 243.246C534.892 241.973 533.912 240.467 533.25 238.815C532.588 237.162 532.258 235.396 532.279 233.616V226.232H574.742V213.126C574.742 212.262 574.742 204.122 568.984 198.465H568.963ZM532.279 219.078V212.874C532.258 211.094 532.588 209.327 533.25 207.675C533.912 206.023 534.892 204.517 536.136 203.244C538.576 200.847 543.283 199.012 549.537 198.926C555.799 199.005 560.506 200.84 562.946 203.244C564.19 204.517 565.171 206.023 565.832 207.675C566.494 209.327 566.824 211.094 566.803 212.874V219.078H532.279Z" fill="#424143"/>
<path d="M33.9978 181.299C32.7311 188.151 31.1189 198.277 30.2336 208.555C28.7294 226.706 29.6579 238.855 29.6579 238.855L4.13676 263.145C4.13676 263.145 2.16474 249.514 1.17153 234.191C0.559772 224.713 0.379843 216.342 0.322266 211.29C0.322266 210.988 0.466209 210.707 0.466209 210.426C0.466209 210.146 0.912432 206.72 4.23032 203.553C7.87208 200.091 34.372 179.291 33.9978 181.299Z" fill="#3A8ACA"/>
<g style="mix-blend-mode:multiply" opacity="0.2">
<g style="mix-blend-mode:multiply" opacity="0.2">
<path d="M33.9972 181.3C32.7305 188.151 31.1183 198.278 30.233 208.555C30.233 208.555 1.96982 205.18 0.343262 211.995C0.685171 209.081 2.02232 206.374 4.12896 204.33C7.77072 200.869 34.357 179.292 33.9972 181.3Z" fill="#262424"/>
</g>
</g>
<path d="M0.32379 210.42C0.32379 210.909 0.32379 211.435 0.32379 211.996C0.635674 210.725 1.25333 209.549 2.12308 208.57C4.22465 205.907 7.61451 205.216 8.97477 205.029C15.884 204.13 26.0824 203.014 36.3887 202.697C54.5903 202.136 66.6168 203.647 66.6168 203.647L92.1739 179.371C92.1739 179.371 78.7728 176.802 63.522 175.003C53.5827 173.837 44.7446 173.211 39.8362 172.894C38.5123 172.798 37.1834 172.991 35.941 173.458C34.6986 173.925 33.5721 174.656 32.639 175.6C29.0116 179.076 10.7453 196.414 3.39697 203.395C2.40886 204.276 1.62267 205.359 1.09224 206.572C0.561812 207.784 0.299678 209.097 0.32379 210.42" fill="#C8D643"/>
<path d="M91.2298 241.432C84.3206 242.36 74.1222 243.505 63.8159 243.85C45.6143 244.455 33.5231 242.929 33.5231 242.929L8.00195 267.219C8.00195 267.219 21.5182 269.861 36.7906 271.61C46.1469 272.682 54.4236 273.272 59.476 273.567C59.8287 273.567 60.426 273.279 60.7499 273.294C63.4792 272.792 65.9903 271.469 67.9471 269.501C71.5456 266.032 93.2594 241.158 91.237 241.432" fill="#63308C"/>
<g style="mix-blend-mode:multiply" opacity="0.2">
<g style="mix-blend-mode:multiply" opacity="0.2">
<path d="M91.2306 241.432C84.3213 242.36 74.123 243.505 63.8167 243.85C63.8167 243.85 65.7959 272.243 58.9082 273.531C61.9954 273.389 64.9411 272.195 67.2569 270.149C70.8915 266.687 93.2818 241.158 91.2594 241.432" fill="#262424"/>
</g>
</g>
<path d="M60.4772 273.654L58.9082 273.56C60.1907 273.309 61.3933 272.751 62.4132 271.933C65.1769 269.969 66.0118 266.615 66.2853 265.262C67.5304 258.41 69.1641 248.269 69.9774 237.992C71.4169 219.84 70.5172 207.764 70.5172 207.764L96.0455 183.423C96.0455 183.423 97.9384 196.925 98.9748 212.255C99.6513 222.273 99.8384 231.104 99.8888 236.005C99.9139 237.329 99.6544 238.642 99.1279 239.856C98.6015 241.071 97.8203 242.158 96.8372 243.044L67.6527 270.904C66.7201 271.85 65.594 272.582 64.3518 273.052C63.1095 273.521 61.7804 273.717 60.4556 273.625" fill="#81B950"/>
</g>
</svg>
