<svg width="973" height="440" viewBox="0 0 973 440" fill="none" xmlns="http://www.w3.org/2000/svg">
<mask id="mask0" mask-type="alpha" maskUnits="userSpaceOnUse" x="0" y="0" width="973" height="440">
<rect x="0.322266" y="0.688477" width="971.842" height="439.129" fill="#C4C4C4"/>
</mask>
<g mask="url(#mask0)">
<path d="M104.661 156.261C96.3032 153.339 87.5113 151.852 78.6575 151.864C71.5468 151.864 64.6525 152.808 58.1025 154.579C37.3704 160.175 16.6482 177.17 11.1309 198.502C8.67212 207.992 8.99667 217.867 13.8846 226.531C14.7894 228.144 15.8024 229.688 16.9236 231.163C20.0991 235.383 24.0597 238.95 28.5879 241.667C33.182 244.439 38.2806 246.273 43.5882 247.061C48.8959 247.85 54.3072 247.577 59.5089 246.26C65.7356 244.715 71.5097 241.723 76.3615 237.526C81.2133 233.328 85.0057 228.045 87.4302 222.105H66.1671C65.9454 222.105 65.7259 222.062 65.5213 221.976C65.3166 221.891 65.1307 221.767 64.9744 221.609C64.8181 221.452 64.6945 221.266 64.6105 221.06C64.5266 220.855 64.4841 220.635 64.4854 220.414V206.311C64.4854 205.376 65.2328 204.619 66.1671 204.619H116.374C117.309 204.619 118.066 205.376 118.066 206.311V259.458C118.066 260.393 117.309 261.15 116.374 261.15H102.281C101.832 261.15 101.402 260.972 101.085 260.655C100.768 260.337 100.589 259.907 100.589 259.458V235.009C96.7129 241.99 91.4404 248.098 85.1003 252.952C78.7603 257.807 71.4884 261.304 63.7379 263.225C56.3095 265.102 48.5825 265.487 41.0043 264.358C33.4261 263.228 26.1472 260.607 19.5889 256.646C15.1778 254.005 11.1364 250.79 7.57061 247.086C4.84689 244.269 2.41816 241.181 0.322266 237.871C4.0202 277.889 37.6753 309.223 78.6575 309.223C122.118 309.223 157.337 273.994 157.337 230.544C157.337 196.2 135.336 166.99 104.661 156.261" fill="#258060"/>
<path d="M231.007 239.714H252.811V255.765C250.224 257.732 247.166 259.276 243.645 260.476C239.969 261.679 236.124 262.284 232.256 262.266C227.889 262.266 223.945 261.489 220.424 259.945C216.984 258.467 213.884 256.298 211.317 253.572C208.696 250.813 206.679 247.537 205.397 243.953C204.007 240.036 203.311 235.905 203.341 231.748V231.483C203.341 227.431 204.059 223.565 205.475 219.887C206.81 216.361 208.791 213.116 211.317 210.318C213.796 207.603 216.77 205.387 220.08 203.787C223.489 202.152 227.226 201.315 231.007 201.339C233.672 201.339 236.131 201.575 238.363 202.007C240.471 202.417 242.533 203.033 244.52 203.846C246.389 204.614 248.169 205.577 249.88 206.699C251.237 207.603 252.565 208.587 253.873 209.679L264.239 199.313L264.377 199.145C262.252 197.33 259.99 195.683 257.61 194.218C255.283 192.778 252.819 191.573 250.254 190.618C247.503 189.607 244.665 188.849 241.776 188.356C238.41 187.824 235.005 187.568 231.597 187.589C225.194 187.589 219.284 188.76 213.874 191.1C208.642 193.354 203.899 196.604 199.909 200.67C195.955 204.707 192.846 209.491 190.762 214.744C188.583 220.119 187.477 225.869 187.507 231.669V231.906C187.507 238.17 188.549 243.953 190.684 249.284C192.706 254.468 195.753 259.192 199.643 263.171C203.479 267.115 208.141 270.183 213.579 272.416C219.018 274.658 225.067 275.779 231.725 275.779C235.462 275.779 239.032 275.435 242.445 274.746C245.714 274.082 248.917 273.124 252.014 271.884C254.975 270.655 257.738 269.249 260.305 267.626C262.862 265.993 265.183 264.292 267.308 262.502V226.683H231.007V239.714ZM289.972 237.644C290.621 232.609 292.431 228.527 295.391 225.4C298.361 222.282 302.108 220.708 306.662 220.708C308.813 220.673 310.946 221.094 312.922 221.946C314.897 222.797 316.669 224.058 318.12 225.646C319.497 227.15 320.588 228.93 321.405 231.006C322.211 233.081 322.752 235.294 322.988 237.644H289.972ZM329.872 218.997C327.315 215.84 324.099 213.322 320.244 211.454C316.389 209.585 311.904 208.651 306.78 208.651C302.158 208.651 297.938 209.526 294.113 211.267C290.297 213.018 286.992 215.407 284.189 218.456C281.386 221.505 279.213 225.055 277.669 229.117C276.125 233.179 275.357 237.526 275.357 242.149V242.394C275.357 247.351 276.213 251.885 277.915 255.977C279.516 259.926 281.898 263.512 284.917 266.52C287.922 269.463 291.483 271.78 295.391 273.335C299.52 274.98 303.929 275.808 308.373 275.774C314.294 275.774 319.398 274.673 323.657 272.48C327.879 270.322 331.627 267.343 334.682 263.717L326.037 256.045C323.431 258.553 320.795 260.471 318.12 261.769C315.435 263.058 312.268 263.717 308.619 263.717C303.82 263.717 299.738 262.31 296.365 259.507C293.001 256.704 290.906 252.672 290.1 247.391H337.357C337.524 246.017 337.606 244.634 337.603 243.25C337.603 238.618 336.954 234.212 335.665 230.032C334.448 226.021 332.482 222.277 329.872 218.997V218.997ZM365.972 192.325H351.111V209.988H340.824V222.656H351.111V256.527C351.111 260.107 351.563 263.077 352.458 265.477C353.363 267.877 354.652 269.804 356.333 271.26C358.055 272.75 360.088 273.835 362.283 274.437C364.575 275.086 367.063 275.4 369.748 275.4C372.512 275.4 374.951 275.125 377.056 274.555C379.143 274.003 381.149 273.183 383.025 272.116V260.058C380.199 261.498 377.071 262.25 373.899 262.251C371.371 262.251 369.424 261.622 368.047 260.363C366.66 259.104 365.972 257.058 365.972 254.216V222.656H383.271V209.988H365.972V192.325ZM409.019 202.558H457.505V189.035H394.158V274.304H409.019V239.596H446.569V226.073H409.019V202.558ZM467.989 237.644C468.638 232.609 470.448 228.527 473.408 225.4C476.379 222.282 480.126 220.708 484.679 220.708C487.118 220.708 489.292 221.161 491.2 222.056C493.098 222.941 494.75 224.141 496.127 225.646C497.504 227.15 498.605 228.93 499.422 231.006C500.228 233.081 500.759 235.294 501.005 237.644H467.989ZM507.89 218.997C505.323 215.84 502.117 213.322 498.261 211.454C494.406 209.585 489.911 208.651 484.797 208.651C480.175 208.651 475.946 209.526 472.13 211.267C468.371 212.97 464.996 215.416 462.206 218.456C459.403 221.505 457.23 225.055 455.686 229.117C454.142 233.179 453.375 237.526 453.375 242.149V242.394C453.375 247.351 454.22 251.885 455.932 255.977C457.633 260.088 459.964 263.589 462.934 266.52C465.938 269.465 469.498 271.782 473.408 273.335C477.431 274.958 481.758 275.774 486.381 275.774C492.311 275.774 497.406 274.673 501.674 272.48C505.896 270.322 509.644 267.343 512.699 263.717L504.054 256.045C501.448 258.553 498.812 260.471 496.127 261.769C493.452 263.058 490.285 263.717 486.626 263.717C481.837 263.717 477.755 262.31 474.382 259.507C471.018 256.704 468.924 252.672 468.107 247.391H515.374C515.541 246.017 515.623 244.634 515.62 243.25C515.62 238.618 514.971 234.212 513.673 230.032C512.374 225.852 510.447 222.174 507.89 218.997V218.997ZM536.16 237.644C536.809 232.609 538.619 228.527 541.579 225.4C544.549 222.282 548.296 220.708 552.85 220.708C555.289 220.708 557.463 221.161 559.371 222.056C561.269 222.941 562.921 224.141 564.298 225.646C565.675 227.15 566.776 228.93 567.593 231.006C568.399 233.081 568.93 235.294 569.176 237.644H536.16ZM576.06 218.997C573.494 215.84 570.287 213.322 566.432 211.454C562.577 209.585 558.092 208.651 552.968 208.651C548.346 208.651 544.117 209.526 540.301 211.267C536.542 212.97 533.167 215.416 530.377 218.456C527.574 221.505 525.401 225.055 523.857 229.117C522.313 233.179 521.545 237.526 521.545 242.149V242.394C521.545 247.351 522.391 251.885 524.102 255.977C525.804 260.088 528.135 263.589 531.105 266.52C534.108 269.465 537.669 271.782 541.579 273.335C545.602 274.958 549.929 275.774 554.551 275.774C560.482 275.774 565.576 274.673 569.845 272.48C574.067 270.322 577.815 267.343 580.87 263.717L572.225 256.045C569.619 258.553 566.983 260.471 564.298 261.769C561.623 263.058 558.456 263.717 554.797 263.717C550.008 263.717 545.926 262.31 542.553 259.507C539.189 256.704 537.094 252.672 536.278 247.391H583.545C583.712 246.017 583.794 244.634 583.791 243.25C583.791 238.618 583.142 234.212 581.843 230.032C580.545 225.852 578.618 222.174 576.06 218.997V218.997ZM641.61 242.267C641.61 245.355 641.104 248.168 640.091 250.675C639.148 253.082 637.767 255.292 636.019 257.196C634.318 259.015 632.341 260.422 630.069 261.396C627.847 262.362 625.45 262.861 623.027 262.861C620.519 262.861 618.149 262.369 615.926 261.396C613.703 260.428 611.699 259.019 610.035 257.255C608.273 255.373 606.909 253.155 606.023 250.734C605.028 248.024 604.534 245.154 604.567 242.267V242.031C604.567 238.854 605.059 235.992 606.023 233.435C606.996 230.878 608.334 228.714 610.035 226.914C611.694 225.161 613.7 223.775 615.926 222.843C618.168 221.905 620.574 221.428 623.004 221.438C625.433 221.448 627.836 221.946 630.069 222.902C632.341 223.875 634.318 225.262 636.019 227.042C637.72 228.832 639.078 230.996 640.091 233.563C641.104 236.12 641.605 238.942 641.605 242.031V242.267H641.61ZM641.364 219.971C638.899 216.873 635.942 214.202 632.611 212.064C629.125 209.782 624.748 208.651 619.487 208.651C615.671 208.651 611.893 209.396 608.363 210.844C604.764 212.3 601.577 214.453 598.823 217.296C596.07 220.138 593.867 223.629 592.204 227.77C590.542 231.92 589.706 236.671 589.706 242.031V242.267C589.706 247.636 590.562 252.377 592.263 256.527C593.975 260.668 596.207 264.159 598.971 267.001C601.657 269.789 604.892 271.99 608.471 273.463C611.987 274.911 615.753 275.656 619.555 275.656C624.758 275.656 629.115 274.466 632.646 272.116C636.097 269.848 639.096 266.956 641.487 263.589L641.359 274.309H656.22V185.381H641.359V219.971H641.364ZM717.339 242.267C717.339 245.433 716.847 248.295 715.879 250.862C714.905 253.419 713.587 255.573 711.925 257.314C710.251 259.071 708.236 260.469 706.004 261.422C703.772 262.376 701.37 262.865 698.943 262.861C696.485 262.868 694.052 262.374 691.792 261.41C689.531 260.446 687.49 259.033 685.794 257.255C684.021 255.367 682.631 253.152 681.702 250.734C680.664 248.034 680.15 245.16 680.188 242.267V242.031C680.188 238.942 680.689 236.139 681.702 233.622C682.725 231.104 684.082 228.93 685.794 227.101C687.495 225.272 689.482 223.875 691.754 222.902C694.025 221.928 696.435 221.436 698.943 221.436C701.376 221.425 703.786 221.918 706.02 222.883C708.254 223.847 710.264 225.263 711.925 227.042C713.587 228.832 714.905 230.996 715.879 233.563C716.852 236.12 717.344 238.942 717.344 242.031V242.267H717.339ZM722.881 217.296C720.172 214.511 716.917 212.315 713.322 210.844C709.807 209.392 706.041 208.646 702.238 208.651C697.035 208.651 692.688 209.802 689.206 212.123C685.753 214.389 682.773 217.305 680.434 220.708L680.552 185.381H665.691V274.309H680.552V264.317C682.946 267.438 685.865 270.12 689.177 272.243C692.658 274.506 697.045 275.656 702.307 275.656C706.113 275.656 709.82 274.919 713.43 273.463C717.029 271.988 720.236 269.844 723.029 267.001C725.822 264.159 728.054 260.668 729.716 256.527C731.369 252.377 732.205 247.636 732.205 242.267V242.031C732.205 236.671 731.349 231.92 729.648 227.77C727.936 223.629 725.684 220.138 722.881 217.296V217.296ZM780.799 250.971C780.799 252.997 780.376 254.855 779.521 256.508C778.656 258.182 777.426 259.641 775.921 260.776C774.387 261.956 772.577 262.871 770.512 263.51C768.437 264.169 766.184 264.494 763.745 264.494C760.254 264.494 757.303 263.677 754.914 262.054C752.514 260.432 751.314 258.081 751.314 254.983V254.747C751.314 251.659 752.612 249.22 755.218 247.44C757.815 245.65 761.424 244.755 766.056 244.755C768.899 244.755 771.603 245.001 774.161 245.483C776.718 245.974 778.93 246.584 780.799 247.312V250.971ZM766.794 208.946C761.513 208.946 756.999 209.428 753.271 210.401C749.534 211.375 745.875 212.673 742.305 214.296L746.328 226.118C749.249 224.898 752.13 223.924 754.973 223.197C757.815 222.469 761.06 222.095 764.719 222.095C769.833 222.095 773.747 223.275 776.472 225.626C779.196 227.986 780.553 231.399 780.553 235.864V237.084C777.982 236.254 775.356 235.603 772.695 235.136C769.971 234.645 766.666 234.399 762.772 234.399C759.034 234.399 755.563 234.822 752.356 235.677C749.14 236.533 746.387 237.831 744.066 239.582C741.754 241.332 739.945 243.516 738.647 246.161C737.348 248.797 736.699 251.905 736.699 255.475V255.721C736.699 258.966 737.329 261.828 738.588 264.307C739.846 266.785 741.509 268.85 743.584 270.522C745.738 272.23 748.198 273.512 750.832 274.299C753.586 275.155 756.517 275.578 759.605 275.578C764.473 275.578 768.614 274.683 772.026 272.893C775.439 271.112 778.242 268.919 780.435 266.323V274.23H795.05V236.11C795.05 227.495 792.739 220.817 788.106 216.066C783.474 211.316 776.373 208.946 766.794 208.946V208.946ZM845.493 260.648C842.848 262.153 839.779 262.9 836.298 262.9C833.445 262.9 830.859 262.359 828.498 261.258C826.138 260.156 824.112 258.681 822.401 256.812C820.67 254.895 819.328 252.661 818.447 250.233C817.504 247.66 817.031 244.938 817.051 242.198V241.952C817.051 239.188 817.513 236.553 818.447 234.035C819.381 231.517 820.66 229.344 822.283 227.514C823.906 225.685 825.853 224.22 828.135 223.128C830.453 222.024 832.992 221.463 835.56 221.485C839.297 221.485 842.444 222.233 845.011 223.738C847.559 225.242 849.978 227.17 852.25 229.521L861.386 219.656C858.407 216.344 854.835 213.619 850.853 211.621C846.831 209.585 841.776 208.572 835.688 208.572C830.898 208.572 826.443 209.467 822.342 211.257C818.36 212.958 814.745 215.417 811.7 218.496C808.691 221.577 806.315 225.22 804.708 229.216C803.021 233.335 802.162 237.746 802.18 242.198V242.434C802.18 246.987 803.026 251.295 804.708 255.347C806.38 259.409 808.711 262.94 811.7 265.949C814.69 268.959 818.221 271.329 822.283 273.079C826.483 274.85 831.002 275.74 835.56 275.696C841.815 275.696 846.968 274.574 851.04 272.342C855.13 270.091 858.797 267.145 861.878 263.638L852.987 254.865C850.761 257.121 848.24 259.067 845.493 260.648V260.648ZM928.293 209.915H910.384L883.702 238.416V185.308H868.841V274.235H883.702V255.834L892.721 246.451L912.095 274.235H929.139L902.703 236.105L928.293 209.915Z" fill="#0F1013"/>
<path d="M947.493 212.048H942.654V210.012H954.643V212.048H949.774V225.226H947.493V212.048Z" fill="#0F1013"/>
<path d="M956.417 210.004H960.312L964.226 222.062L968.406 210.004H972.163V225.219H969.911V212.04L965.2 225.219H963.174L958.67 212.177V225.219H956.417V210.004Z" fill="#0F1013"/>
</g>
</svg>
