<svg width="375" height="440" viewBox="0 0 375 440" fill="none" xmlns="http://www.w3.org/2000/svg">
<mask id="mask0" mask-type="alpha" maskUnits="userSpaceOnUse" x="0" y="0" width="375" height="440">
<rect x="0.322266" width="374.34" height="439.129" fill="#C4C4C4"/>
</mask>
<g mask="url(#mask0)">
<path d="M72.4194 216.101H40.9698C40.7756 216.1 40.5831 216.137 40.4034 216.211C40.2237 216.284 40.0605 216.393 39.9231 216.53C39.7858 216.668 39.6772 216.831 39.6035 217.01C39.5298 217.19 39.4926 217.383 39.494 217.577V232.948C39.494 233.142 39.5321 233.334 39.6063 233.513C39.6805 233.692 39.7892 233.855 39.9262 233.992C40.0633 234.129 40.226 234.238 40.405 234.312C40.5841 234.386 40.776 234.424 40.9698 234.424H53.2337V253.537C53.2337 253.537 50.4795 254.472 42.8406 254.472C33.8505 254.472 21.2956 251.188 21.2956 223.584C21.2956 195.98 34.3909 192.332 46.6652 192.332C57.2974 192.332 61.8704 194.203 64.7804 195.107C64.9942 195.148 65.2145 195.142 65.4255 195.088C65.6366 195.035 65.8334 194.936 66.0019 194.798C66.1704 194.66 66.3066 194.487 66.4009 194.291C66.4951 194.095 66.5451 193.88 66.5473 193.662L70.0498 178.8C70.0565 178.578 70.0089 178.358 69.9111 178.159C69.8132 177.96 69.6682 177.787 69.4885 177.657C68.3037 176.805 61.0909 172.772 42.8613 172.772C21.8672 172.772 0.322266 181.71 0.322266 224.655C0.322266 267.599 24.9852 274.012 45.7714 274.012C62.972 274.012 73.4171 266.653 73.4171 266.653C73.5825 266.522 73.7127 266.351 73.7961 266.157C73.8796 265.963 73.9136 265.752 73.8952 265.541V217.577C73.8952 217.185 73.7397 216.81 73.463 216.533C73.1862 216.257 72.8108 216.101 72.4194 216.101V216.101Z" fill="#100E0F"/>
<path d="M234.543 177.969C234.551 177.776 234.521 177.583 234.455 177.401C234.388 177.22 234.286 177.053 234.155 176.911C234.023 176.769 233.865 176.654 233.689 176.574C233.513 176.493 233.323 176.448 233.129 176.442H215.461C215.256 176.428 215.05 176.458 214.856 176.53C214.663 176.602 214.488 176.713 214.34 176.857C214.193 177.001 214.078 177.175 214.003 177.367C213.927 177.558 213.893 177.764 213.902 177.969V212.152H186.298V177.969C186.299 177.776 186.263 177.584 186.189 177.405C186.116 177.226 186.009 177.064 185.873 176.926C185.736 176.789 185.574 176.68 185.396 176.606C185.217 176.532 185.026 176.494 184.833 176.494H167.164C166.967 176.488 166.772 176.522 166.588 176.594C166.405 176.666 166.238 176.774 166.097 176.911C165.957 177.049 165.845 177.214 165.77 177.396C165.694 177.577 165.656 177.772 165.657 177.969V270.603C165.656 270.797 165.693 270.989 165.766 271.169C165.839 271.348 165.946 271.512 166.082 271.65C166.218 271.788 166.38 271.898 166.559 271.973C166.737 272.049 166.929 272.088 167.123 272.09H184.791C184.985 272.088 185.176 272.049 185.355 271.973C185.534 271.898 185.695 271.788 185.832 271.65C185.968 271.512 186.075 271.348 186.148 271.169C186.221 270.989 186.258 270.797 186.256 270.603V230.974H213.902V270.624C213.901 270.818 213.938 271.01 214.011 271.19C214.083 271.369 214.191 271.533 214.327 271.671C214.463 271.809 214.625 271.919 214.804 271.994C214.982 272.069 215.174 272.109 215.368 272.11H233.129C233.52 272.105 233.893 271.946 234.167 271.668C234.441 271.39 234.595 271.015 234.595 270.624L234.543 177.969Z" fill="#100E0F"/>
<path d="M105.843 190.076C105.821 187.82 105.131 185.621 103.861 183.756C102.591 181.891 100.798 180.444 98.7072 179.596C96.6164 178.748 94.3214 178.538 92.1113 178.992C89.9012 179.446 87.8748 180.544 86.2874 182.147C84.6999 183.75 83.6224 185.788 83.1905 188.002C82.7585 190.217 82.9915 192.509 83.8601 194.592C84.7286 196.674 86.1939 198.453 88.0714 199.704C89.9489 200.955 92.1546 201.623 94.4109 201.623C95.9219 201.623 97.4179 201.324 98.8125 200.742C100.207 200.16 101.472 199.308 102.536 198.234C103.599 197.161 104.438 195.887 105.006 194.487C105.574 193.086 105.858 191.587 105.843 190.076Z" fill="#100E0F"/>
<path d="M104.576 251.054V208.265C104.576 207.875 104.422 207.502 104.147 207.225C103.872 206.949 103.5 206.792 103.11 206.789H85.4419C85.029 206.83 84.6455 207.021 84.3639 207.325C84.0823 207.63 83.9222 208.027 83.9141 208.442V269.761C83.9141 271.57 85.0365 272.1 86.4916 272.1H102.393C104.139 272.1 104.565 271.247 104.565 269.74L104.576 251.054Z" fill="#100E0F"/>
<path d="M301.848 206.935H284.273C284.081 206.936 283.89 206.976 283.713 207.051C283.536 207.125 283.375 207.235 283.24 207.372C283.105 207.509 282.998 207.671 282.925 207.849C282.853 208.028 282.817 208.218 282.818 208.411V253.839C279.606 255.948 275.852 257.082 272.009 257.103C265.669 257.103 263.986 254.234 263.986 248.019V208.411C263.987 208.218 263.95 208.028 263.878 207.849C263.806 207.671 263.699 207.509 263.564 207.372C263.429 207.235 263.268 207.125 263.091 207.051C262.913 206.976 262.723 206.936 262.531 206.935H244.686C244.493 206.936 244.303 206.976 244.126 207.051C243.948 207.125 243.787 207.235 243.652 207.372C243.517 207.509 243.41 207.671 243.338 207.849C243.266 208.028 243.229 208.218 243.231 208.411V251.023C243.231 269.46 253.499 273.971 267.634 273.971C279.222 273.971 288.576 267.558 288.576 267.558C288.722 268.83 288.938 270.093 289.22 271.341C289.348 271.574 289.534 271.77 289.76 271.91C289.985 272.05 290.243 272.13 290.509 272.142H301.858C302.248 272.139 302.62 271.982 302.895 271.706C303.17 271.429 303.324 271.055 303.324 270.666V208.411C303.321 208.02 303.164 207.647 302.888 207.37C302.612 207.094 302.238 206.938 301.848 206.935V206.935Z" fill="#100E0F"/>
<path d="M349.895 204.845C344.006 204.809 338.214 206.348 333.12 209.304V177.969C333.122 177.775 333.085 177.584 333.012 177.405C332.939 177.226 332.831 177.063 332.695 176.926C332.559 176.789 332.397 176.68 332.218 176.605C332.04 176.531 331.848 176.493 331.655 176.493H313.893C313.7 176.493 313.508 176.531 313.33 176.605C313.152 176.68 312.99 176.789 312.853 176.926C312.717 177.063 312.609 177.226 312.536 177.405C312.463 177.584 312.426 177.775 312.428 177.969V270.603C312.426 270.797 312.463 270.989 312.536 271.168C312.609 271.348 312.717 271.511 312.853 271.649C312.989 271.787 313.151 271.897 313.329 271.973C313.508 272.048 313.699 272.088 313.893 272.089H326.219C326.485 272.085 326.745 272.009 326.972 271.87C327.198 271.731 327.384 271.534 327.508 271.299C327.862 269.895 328.112 268.468 328.257 267.027C328.257 267.027 335.532 273.908 349.271 273.908C365.412 273.908 374.662 265.718 374.662 237.147C374.662 208.577 359.924 204.845 349.895 204.845ZM342.963 257.071C339.354 256.979 335.829 255.962 332.726 254.119V224.738C335.519 223.141 338.611 222.136 341.809 221.786C348.139 221.225 354.281 223.137 354.281 238.228C354.239 254.182 351.485 257.331 342.963 257.071Z" fill="#100E0F"/>
<path d="M155.479 206.779H142.197V189.235C142.197 188.57 141.854 188.196 141.085 188.196H122.959C122.253 188.196 121.92 188.508 121.92 189.184V207.361C121.92 207.361 112.847 209.554 112.234 209.731C111.931 209.823 111.666 210.01 111.479 210.265C111.292 210.519 111.192 210.828 111.194 211.144V222.577C111.201 222.945 111.346 223.298 111.6 223.565C111.854 223.833 112.198 223.995 112.566 224.021H121.92V251.438C121.92 271.809 136.211 273.804 145.824 273.804C149.402 273.695 152.949 273.112 156.373 272.069C156.631 271.959 156.849 271.772 156.998 271.534C157.147 271.296 157.219 271.019 157.205 270.738V258.204C157.202 257.815 157.047 257.443 156.773 257.167C156.499 256.891 156.128 256.734 155.739 256.728C154.96 256.728 152.985 257.04 150.948 257.04C144.421 257.04 142.207 254.005 142.207 250.077V224.021H155.49C155.684 224.02 155.875 223.98 156.054 223.905C156.232 223.83 156.394 223.72 156.53 223.582C156.667 223.444 156.774 223.28 156.847 223.101C156.92 222.921 156.957 222.729 156.955 222.535V208.265C156.957 208.071 156.92 207.878 156.846 207.697C156.772 207.517 156.664 207.353 156.527 207.215C156.39 207.077 156.226 206.967 156.047 206.892C155.867 206.818 155.674 206.779 155.479 206.779V206.779Z" fill="#100E0F"/>
</g>
</svg>
