<svg width="613" height="440" viewBox="0 0 613 440" fill="none" xmlns="http://www.w3.org/2000/svg">
<mask id="mask0" mask-type="alpha" maskUnits="userSpaceOnUse" x="0" y="0" width="613" height="440">
<rect x="0.322266" y="0.719727" width="611.901" height="439.129" fill="#C4C4C4"/>
</mask>
<g mask="url(#mask0)">
<path d="M430.747 175.164H417.637L417.697 273.332H470.799V261.189H430.807L430.747 175.164Z" fill="#8C929D"/>
<path d="M521.331 256.106C518.024 259.549 512.551 262.993 505.094 262.993C495.111 262.993 491.081 258.039 491.081 251.575C491.081 241.848 497.817 237.197 512.13 237.197C514.836 237.197 519.166 237.499 521.392 237.922V256.106H521.331ZM507.739 196.601C497.155 196.601 487.413 200.346 479.835 206.69L484.466 214.785C489.818 211.643 496.373 208.502 505.815 208.502C516.58 208.502 521.331 214.06 521.331 223.363V228.135C519.226 227.713 514.896 227.411 512.25 227.411C489.277 227.411 477.61 235.506 477.61 252.421C477.61 267.584 486.872 275.195 500.884 275.195C510.325 275.195 519.407 270.846 522.534 263.778L524.939 273.383H534.201V223.121C534.141 207.233 527.285 196.601 507.739 196.601Z" fill="#8C929D"/>
<path d="M576.505 263.442C571.572 263.442 567.243 262.837 563.995 261.327V220.671V215.958C568.445 212.213 573.979 209.495 581.012 209.495C593.702 209.495 598.573 218.496 598.573 233.055C598.573 253.716 590.695 263.442 576.505 263.442ZM582.038 196.627C570.31 196.627 563.995 204.662 563.995 204.662V191.975L563.935 175.181H558.041H551.125L551.186 270.932C557.62 273.651 566.4 275.101 575.96 275.101C600.436 275.101 612.223 259.394 612.223 232.27C612.165 210.823 601.281 196.627 582.038 196.627Z" fill="#8C929D"/>
<path d="M288.005 185.815C299.611 185.815 307.129 189.682 312 193.608L317.653 183.762C310.015 176.995 299.671 173.371 288.606 173.371C260.702 173.371 241.156 190.467 241.156 224.962C241.156 261.087 262.265 275.163 286.381 275.163C298.469 275.163 308.752 272.324 315.488 269.485L315.187 230.882V226.351V218.739H279.405V230.882H302.257L302.558 260.181C299.551 261.692 294.379 262.9 287.343 262.9C267.979 262.9 254.988 250.636 254.988 224.841C254.928 198.562 268.339 185.815 288.005 185.815Z" fill="#8C929D"/>
<path d="M380.333 175.151H367.523L367.584 191.644V198.409V202.336V209.223V248.49V248.611C367.584 264.499 374.44 275.132 393.985 275.132C396.691 275.132 399.337 274.89 401.863 274.406V262.868C399.999 263.17 398.014 263.291 395.909 263.291C385.145 263.291 380.394 257.733 380.394 248.43V209.162H401.863V198.409H380.394L380.333 175.151Z" fill="#8C929D"/>
<path d="M334.949 273.333H347.758V198.423H334.949V273.333Z" fill="#8C929D"/>
<path d="M334.949 188.092H347.758V175.224H334.949V188.092Z" fill="#8C929D"/>
<path d="M101.835 318.158L139.241 202.578H64.4834L101.835 318.158Z" fill="#E24329"/>
<path d="M12.0925 202.578L0.70169 237.693C-0.328936 240.881 0.784164 244.401 3.50458 246.389L101.837 318.157L12.0925 202.578Z" fill="#FCA326"/>
<path d="M12.0942 202.578H64.4867L41.9382 132.97C40.7842 129.409 35.7551 129.409 34.5596 132.97L12.0942 202.578Z" fill="#E24329"/>
<path d="M191.635 202.578L202.985 237.693C204.016 240.881 202.903 244.401 200.182 246.389L101.837 318.158L191.635 202.578Z" fill="#FCA326"/>
<path d="M191.637 202.578H139.245L161.752 132.97C162.906 129.409 167.935 129.409 169.13 132.97L191.637 202.578Z" fill="#E24329"/>
<path d="M101.837 318.158L139.243 202.578H191.635L101.837 318.158Z" fill="#FC6D26"/>
<path d="M101.838 318.158L12.0942 202.578H64.4867L101.838 318.158Z" fill="#FC6D26"/>
</g>
</svg>
