<svg width="728" height="440" viewBox="0 0 728 440" fill="none" xmlns="http://www.w3.org/2000/svg">
<mask id="mask0" mask-type="alpha" maskUnits="userSpaceOnUse" x="0" y="0" width="728" height="440">
<rect x="0.322266" y="0.439941" width="727.083" height="439.129" fill="#C4C4C4"/>
</mask>
<g mask="url(#mask0)">
<path d="M81.0662 303.088C124.289 303.088 159.329 267.271 159.329 223.088C159.329 178.905 124.289 143.088 81.0662 143.088C37.843 143.088 2.80371 178.905 2.80371 223.088C2.80371 267.271 37.843 303.088 81.0662 303.088Z" fill="#D33833"/>
<path d="M77.2621 157.07L71.8847 148.135L30.1889 162.116L18.193 175.85L7.76906 195.787L1.8125 219.035L3.63257 234.505L6.03173 242.861C6.03173 242.943 0.323373 159.469 77.2621 157.07Z" fill="#EF3D3A"/>
<path d="M138.067 165.095C123.507 150.204 103.321 140.938 80.9839 140.938C58.7296 140.938 38.5435 150.204 23.9003 165.095C9.33982 179.986 0.322266 200.586 0.322266 223.337C0.322266 246.088 9.33982 266.687 23.9003 281.579C38.4607 296.47 58.6468 305.736 80.9839 305.736C103.238 305.736 123.424 296.47 138.067 281.579C152.628 266.687 161.646 246.088 161.646 223.337C161.728 200.669 152.711 180.069 138.067 165.095ZM134.593 278.27C120.86 292.334 101.915 300.938 80.9839 300.938C60.0532 300.938 41.1081 292.251 27.3749 278.27C13.6418 264.205 5.12059 244.847 5.12059 223.42C5.12059 201.993 13.6418 182.551 27.3749 168.57C41.1081 154.506 60.0532 145.902 80.9839 145.902C101.915 145.902 120.86 154.588 134.593 168.57C148.326 182.634 156.847 201.993 156.847 223.42C156.847 244.847 148.326 264.205 134.593 278.27Z" fill="#231F20"/>
<path d="M103.817 275.126L107.126 273.306L81.1492 261.062L85.9476 251.879L79.081 254.195L76.4336 250.969L72.8763 235.499L69.898 234.589L63.2796 232.52L57.6539 227.391L51.1183 219.366L43.6726 222.344L19.7637 238.725L21.2528 243.523L28.1194 263.792L31.0977 297.463L33.2486 301.021L63.0314 311.114L64.7687 309.045L61.2113 284.061V276.863L103.817 275.126Z" fill="#335061"/>
<path d="M57.6539 227.39L49.05 219.034L19.7637 238.724L23.0729 247.99L30.8495 281.33L31.1804 298.951L35.3169 300.441C41.2734 286.128 29.6913 239.965 29.6913 239.965L57.6539 227.39Z" fill="#49728B"/>
<path d="M104.891 306.646L106.546 275.374H89.1726L61.21 276.863L61.7063 290.596L64.7673 309.045L70.9721 334.112L84.7052 337.09L107.29 335.27L107.621 330.803L104.891 306.646Z" fill="white"/>
<path d="M108.036 283.73L107.126 273.306L102.658 275.126C102.658 275.126 101.169 306.149 105.637 328.156C105.637 328.156 96.7019 333.781 83.5479 335.27L108.615 334.36L111.593 332.54L108.036 283.73Z" fill="#DCD9D8"/>
<path d="M115.399 305.239C114.158 304.908 111.924 306.149 110.353 305.983C110.187 310.699 110.849 318.227 111.014 323.191C114.158 323.191 115.482 322.529 117.798 321.702C118.129 315.911 115.978 310.533 115.399 305.239Z" fill="#DCD9D8"/>
<path d="M117.55 275.125L106.547 275.374L108.864 303.998L120.198 302.509L117.55 275.125Z" fill="#335061"/>
<path d="M116.971 273.306L106.547 275.374L108.037 283.73C111.925 285.55 118.46 280.751 118.46 280.751L116.971 273.306Z" fill="#49728B"/>
<path d="M125.574 217.298L122.927 214.898L115.812 222.013V249.728L109.524 275.374L126.236 274.464C126.236 274.464 133.102 257.173 133.102 256.263C133.102 255.353 139.059 231.196 139.059 231.196L125.574 217.298Z" fill="#335061"/>
<path d="M122.928 214.898L117.219 221.186L138.067 236.656L138.729 229.542L122.928 214.898Z" fill="#49728B"/>
<path d="M113.661 246.17C113.33 253.864 112.503 263.957 110.435 269.996C115.316 263.791 119.287 256.511 123.423 249.479C121.603 246.583 117.963 244.101 113.661 246.17Z" fill="#81B0C4"/>
<path d="M122.597 237.153C122.514 236.243 122.101 228.135 119.536 226.646C116.558 224.909 112.339 227.722 108.947 230.038C107.623 230.948 106.382 231.775 105.637 232.024L104.976 232.272L105.224 232.934C105.306 233.182 105.472 233.513 105.555 233.761C105.803 234.34 106.051 234.836 106.051 235.498V236.408L106.878 236.16C107.127 236.077 107.292 236.077 107.54 236.077C107.292 236.16 107.044 236.326 106.796 236.491L106.63 236.657L106.547 236.905C106.299 237.649 106.299 238.477 106.382 239.387C106.382 240.048 106.465 240.793 106.382 241.455L106.299 242.117L106.878 242.282C110.849 243.358 115.482 244.02 120.694 244.185H121.025L121.273 243.854C122.68 241.951 122.68 238.559 122.597 237.153Z" fill="#D33833"/>
<path d="M93.9728 237.897C94.9655 237.649 96.041 237.401 96.8683 236.822L97.1992 236.656L97.282 234.423L96.6201 234.34C94.6346 234.175 93.6418 233.513 92.4009 232.768C91.9872 232.52 91.4909 232.189 90.9945 231.941C88.2644 230.452 83.4661 228.384 78.9987 227.556C77.675 227.308 76.5995 227.556 75.7722 228.301C73.4558 230.369 73.7039 235.581 73.8694 239.387V239.717C74.0348 242.613 75.1931 245.591 76.1031 247.99C76.3513 248.735 76.5995 249.314 76.8477 249.893C76.9304 250.141 77.0131 250.39 77.0958 250.555C77.344 251.548 77.675 252.623 78.8332 252.872C78.9986 252.954 79.2468 252.954 79.4123 252.954C81.8942 252.954 87.1062 250.721 88.2644 250.059C90.3326 248.901 92.1527 247.411 93.89 245.922C95.0482 244.929 96.1237 244.019 97.282 243.192L97.6129 243.027L97.7783 239.304L97.3647 239.138C96.2064 238.559 95.131 238.146 93.9728 237.897Z" fill="#D33833"/>
<path d="M98.2754 234.588L98.0272 234.754V235.085C97.8617 236.657 98.1099 237.649 98.3581 238.808C98.5236 239.304 98.6063 239.966 98.7718 240.71L98.8545 241.124L99.2682 241.29C100.013 241.538 100.592 241.62 101.171 241.62C103.156 241.62 104.149 240.462 104.48 239.8C105.473 238.146 105.142 235.664 103.818 234.423C103.074 233.761 101.254 232.52 98.2754 234.588Z" fill="#D33833"/>
<path d="M94.4695 248.073C89.7539 251.216 84.5419 254.195 83.2183 259.986C90.0021 263.791 97.8614 267.597 105.638 269.913C102.329 262.302 99.3506 254.277 94.4695 248.073Z" fill="#81B0C4"/>
<path d="M90.5817 238.145C92.319 237.235 94.8836 237.318 96.4555 236.242C96.4555 235.829 96.4555 235.498 96.5382 235.084C93.6427 234.836 92.5672 233.595 90.6644 232.52C87.5207 230.782 82.8878 228.962 78.834 228.218C73.8702 227.308 74.2839 235.001 74.5321 239.634C74.6975 243.274 76.6003 247.163 77.4276 249.562C77.8413 250.72 77.924 251.878 78.834 252.126C80.5713 252.54 86.197 250.306 87.8516 249.396C91.2435 247.576 93.8909 244.598 96.7864 242.613C96.7864 241.62 96.8691 240.71 96.8691 239.717C95.2145 238.807 93.1463 238.228 90.5817 238.145Z" fill="#D33833"/>
<path d="M78.9179 252.127C78.587 251.383 78.0906 250.555 77.5942 249.645C77.677 250.555 77.7597 251.465 77.8424 252.458L78.9179 252.127Z" fill="#EF3D3A"/>
<path d="M101.336 233.678C100.426 232.603 96.7861 233.347 95.4624 232.685C93.146 231.444 90.8296 230.286 88.5131 229.045C85.5348 227.473 78.6683 225.24 75.5245 227.391C68.4925 232.189 74.2008 243.192 77.5928 249.645C77.2619 245.922 77.0137 242.199 76.6827 238.476C76.0209 231.527 78.3374 232.768 84.3766 232.768C85.2867 232.768 90.0022 233.844 90.3332 234.588C91.9878 237.897 87.6031 237.153 92.236 239.635C96.0415 241.786 102.908 238.394 101.336 233.678Z" fill="#EF3D3A"/>
<path d="M121.936 237.235C121.771 234.34 121.026 228.301 119.206 227.308C115.401 225.074 108.7 231.775 105.887 232.768C106.218 233.678 106.714 234.34 106.714 235.498C108.369 235.084 110.437 235.333 111.926 236.077C110.271 236.243 108.369 236.243 107.293 237.07C106.879 238.228 107.376 239.883 107.128 241.537C111.099 242.695 115.732 243.275 120.778 243.44C121.688 242.034 122.019 239.634 121.936 237.235Z" fill="#D33833"/>
<path d="M120.447 225.901L116.889 224.743L105.555 231.279L104.976 234.588V241.124L109.113 242.613C109.113 242.613 107.044 239.635 108.533 238.725C110.023 237.814 111.512 238.725 112.422 237.235C113.332 235.746 112.422 234.836 112.753 233.099C113.084 231.362 114.573 231.031 116.062 230.7C117.551 230.369 121.688 229.79 122.349 231.279L120.447 225.901Z" fill="#EF3D3A"/>
<path d="M98.6044 235.167C98.439 237.401 98.9354 238.062 99.349 240.627C106.629 242.861 105.306 230.7 98.6044 235.167Z" fill="#D33833"/>
<path d="M105.306 246.17C107.374 247.08 111.841 249.48 111.841 249.48V243.854L101.748 241.786L94.8818 242.696L106.464 270.079L108.863 270.41L110.021 267.432C110.021 267.432 101.666 251.382 101.666 248.983C101.748 248.9 103.238 245.26 105.306 246.17Z" fill="#DCD9D8"/>
<path d="M133.6 153.843L128.885 145.156L121.439 133.243L105.307 121.661L86.8581 118.931L70.1467 126.128L60.6327 132.995L55.1726 141.681L55.2553 148.465L53.4352 160.378L53.7662 168.982L54.9244 175.849L53.7662 177.338L50.2088 177.917L47.2305 171.381L40.943 168.403L33.2491 171.133L29.9399 179.737L32.9182 189.582L37.0547 196.449L44.2522 198.848L45.4104 202.074L50.7879 217.296L57.6544 224.742L65.4311 227.141L75.5241 227.39L85.9481 227.141L102.08 225.321L113.994 223.501L118.461 218.786L124.666 210.099L131.284 193.718L134.841 175.27L133.6 153.843Z" fill="#F0D6B7"/>
<path d="M54.3448 158.807C54.593 157.483 60.0532 132.499 85.0376 127.618C106.134 123.481 117.22 128.528 121.356 133.243C121.356 133.243 102.576 110.906 84.7067 117.773C66.8371 124.64 53.683 137.132 54.0139 145.157C54.5103 156.573 54.4276 158.476 54.3448 158.807Z" fill="#F7E4CD"/>
<path d="M51.9463 195.208C51.6154 193.139 49.878 192.891 49.878 192.891L45.9897 196.697L46.8998 209.768L56.4137 224.659C56.4137 224.659 67.0858 227.059 65.9276 226.149C53.1872 216.055 52.2772 197.359 51.9463 195.208Z" fill="#F7E4CD"/>
<path d="M100.919 190.741C101.416 189.169 106.462 185.86 106.462 185.86C106.462 185.86 106.462 183.461 104.063 182.716C101.829 182.137 101.002 189.086 100.919 190.741Z" fill="#F7E4CD"/>
<path d="M125.574 157.98C125.574 157.98 120.693 159.055 120.196 163.357C119.783 167.659 125.574 164.267 126.484 163.936L125.574 157.98Z" fill="#F7E4CD"/>
<path d="M89.5034 158.31C89.5034 158.31 82.9678 159.22 82.9678 163.357C82.9678 167.493 90.4135 167.245 92.4817 165.425L89.5034 158.31Z" fill="#F7E4CD"/>
<path d="M48.9669 177.67L48.636 173.202L44.1686 169.645L36.392 169.066L29.5254 176.181L30.6836 185.116L34.241 194.381L38.1293 195.539C32.5037 188.673 35.151 183.957 36.3093 177.339C37.7157 170.803 48.9669 177.67 48.9669 177.67Z" fill="#F7E4CD"/>
<path d="M126.154 142.509L123.507 136.222C123.507 136.222 114.903 135.891 114.572 143.668C114.572 143.668 114.572 144.826 115.151 146.067C115.151 146.067 122.017 138.29 126.154 142.509Z" fill="#F7E4CD"/>
<path d="M85.6977 146.894C85.6977 146.894 84.2085 134.981 74.0328 141.93C67.4971 146.397 68.0762 152.685 69.2344 153.843C70.3926 155.001 70.0617 157.401 70.9718 155.829C71.8818 154.174 71.5509 148.797 74.8601 147.307C78.1693 145.736 83.5467 144.081 85.6977 146.894Z" fill="#F7E4CD"/>
<path d="M92.7315 228.383C92.7315 228.631 92.4006 228.549 92.3179 228.714C95.6271 231.279 98.109 231.858 102.659 231.61C104.727 230.121 106.465 228.383 108.616 226.977C103.735 227.473 97.5299 230.534 92.7315 228.383Z" fill="#F7E4CD"/>
<path d="M81.313 198.104C80.5684 199.097 82.1403 204.474 82.1403 204.474L83.6295 204.805C83.2985 198.849 86.9387 198.27 86.9387 198.27C83.7949 196.78 81.6439 197.525 81.313 198.104Z" fill="#F7E4CD"/>
<path d="M70.1453 126.13L66.9188 121.662L50.4556 129.687L43.6718 135.064L39.7835 143.42L33.8269 151.445L32.0068 160.959L33.2478 171.135L40.9417 168.404L47.2292 171.383L50.2074 177.918L53.7648 177.339L54.6748 173.782L52.8548 166.915L54.6748 150.535L53.1857 141.6L58.5631 135.313L70.1453 126.13Z" fill="#6D6B6D"/>
<path d="M68.6557 122.819L49.2969 130.265L41.8512 137.711L38.542 143.667L45.4086 143.088C45.4086 143.088 49.876 132.085 67.7456 126.708C85.6153 121.33 68.6557 122.819 68.6557 122.819Z" fill="#DCD9D8"/>
<path d="M36.8062 145.487L32.0078 160.958L33.1661 171.051L36.4752 168.983C36.4752 168.983 30.1878 148.135 54.0967 145.157L53.1867 141.599L36.8062 145.487Z" fill="#DCD9D8"/>
<path d="M151.716 267.928L144.85 267.018L135.336 269.996L126.153 274.463L121.354 273.636L117.549 275.125L120.693 300.11L132.357 296.883L154.364 295.642L157.673 285.549L151.716 267.928Z" fill="white"/>
<path d="M60.5495 252.954L59.7222 254.857C59.7222 254.857 59.1431 260.234 59.1431 261.723C59.1431 263.213 59.7222 275.705 59.7222 275.705H64.5205V257.835L60.5495 252.954Z" fill="#49728B"/>
<path d="M51.1188 281.66L60.6327 283.149V278.351L47.2305 278.93L51.1188 281.66Z" fill="#49728B"/>
<path d="M156.849 286.707L153.54 277.193C154.45 284.308 150.892 291.174 150.892 291.174C149.403 291.174 132.692 290.264 132.692 290.264C132.692 288.444 130.044 272.974 130.044 272.974L126.156 274.463L129.465 290.844C128.307 290.513 120.53 294.153 120.53 294.153L121.44 298.951L124.75 297.793L135.173 296.304L138.152 300.192L147.087 300.523L152.464 299.365L157.262 292.25L156.849 286.707Z" fill="#DCD9D8"/>
<path d="M105.8 242.282C105.8 242.282 101.002 242.282 98.9339 242.282C96.8656 242.282 95.3765 246.419 95.3765 246.419L102.243 256.264L108.779 272.975L111.757 255.684L112.336 244.681L105.8 242.282Z" fill="white"/>
<path d="M57.6523 224.743V227.391L61.4579 231.61L73.371 236.987L73.6192 228.052L65.429 227.142L57.6523 224.743Z" fill="white"/>
<path d="M72.5471 231.858C69.5688 232.768 60.3031 228.88 60.3031 228.88L59.3931 230.038L64.4396 233.595L72.7953 235.415L72.5471 231.858Z" fill="#DCD9D8"/>
<path d="M131.369 167.328C129.052 163.936 127.481 159.883 125.66 156.077C125.495 156.077 125.412 156.077 125.247 156.077C124.999 160.462 126.653 163.109 127.729 166.17C125.743 167.411 121.938 166.667 119.787 167.577C119.621 174.195 129.797 170.969 131.369 167.328Z" fill="#1D1919"/>
<path d="M83.7984 168.652C80.7374 173.45 89.755 174.36 93.6433 173.202C94.7188 172.871 96.5388 171.299 96.787 170.555C97.8625 167.494 95.7115 166.17 94.5533 165.095C92.0714 162.696 91.4923 159.304 89.755 156.16C88.514 159.552 91.8232 165.426 93.6433 168.321C91.3268 170.72 87.0249 168.818 83.7984 168.652Z" fill="#1D1919"/>
<path d="M35.5679 179.242C36.5606 178.58 37.3052 176.76 39.1252 177.67C37.5534 180.731 37.967 186.605 40.0353 188.508C40.0353 184.95 39.4562 178.745 42.5172 178.994C44.6682 179.159 45.0818 183.709 46.9018 184.785C48.9701 175.023 36.8915 170.141 35.5679 179.242Z" fill="#1D1919"/>
<path d="M133.188 279.923C137.655 280.172 140.965 275.704 145.515 274.794C139.972 274.96 135.67 276.366 133.188 279.923Z" fill="#1D1919"/>
<path d="M135.588 282.653C139.394 282.984 143.779 282.322 147.584 281.991C144.358 280.915 137.408 279.923 135.588 282.653Z" fill="#1D1919"/>
<path d="M135.339 287.865C139.393 288.196 144.605 288.279 148.824 288.196C146.094 286.955 137.738 285.301 135.339 287.865Z" fill="#1D1919"/>
<path d="M71.0559 155.747C73.5378 150.287 77.5916 144.992 85.6991 146.895C87.271 144.33 84.4582 142.427 82.3899 142.097C77.5916 141.352 71.7178 146.729 70.3114 150.7C69.7322 152.272 68.8222 155.251 71.0559 155.747Z" fill="#1D1919"/>
<path d="M101.915 195.54C111.429 196.45 117.965 192.396 123.756 188.673C123.508 187.184 125.493 184.537 124.997 182.386C124.831 181.641 123.094 180.566 122.018 179.407C117.716 174.774 111.925 167.742 109.526 162.365C109.278 161.786 109.113 158.477 107.292 159.8C107.044 167.825 113.084 174.526 117.551 179.904C119.702 182.551 122.349 184.04 119.95 188.094C116.062 189.583 109.774 193.802 104.314 192.892C101.419 192.396 102.08 189.169 101.088 187.349C99.1022 189.831 99.8468 193.802 101.915 195.54Z" fill="#1D1919"/>
<path d="M113.002 203.481C120.944 203.316 124.832 197.607 127.48 192.478C122.847 194.629 119.041 197.69 113.002 198.269C112.671 199.262 112.837 201.827 113.002 203.481Z" fill="#1D1919"/>
<path d="M111.019 203.812C111.019 201.992 111.019 200.09 110.605 198.6C103.738 198.766 94.39 198.518 89.2607 195.87C91.6599 202.075 102.167 204.226 111.019 203.812Z" fill="#1D1919"/>
<path d="M88.4301 200.833C83.9627 200.833 87.7683 203.315 88.5128 204.308C90.0847 206.293 91.9048 209.768 94.8003 211.34C99.3505 213.739 108.285 212.746 111.594 211.423C112.835 210.926 113.745 209.603 114.242 208.444C103.983 208.61 91.9048 209.603 88.4301 200.833Z" fill="#1D1919"/>
<path d="M159.247 282.985C158.42 279.262 156.435 273.222 154.78 269.665C150.23 259.986 136.745 266.025 129.547 269.665C133.022 260.399 136.083 250.885 139.144 240.544C140.054 237.483 141.874 233.016 141.461 229.872C141.047 226.811 136.331 223.667 133.849 221.268C132.443 219.944 126.073 215.063 125.659 213.243C125.328 211.506 128.306 207.452 129.217 205.467C130.623 202.571 131.616 199.096 132.278 196.697C137.324 178.91 137.82 154.505 130.623 139.945C127.893 134.402 120.199 126.791 115.483 123.15C104.232 114.629 83.3014 113.637 69.7337 118.683C65.9282 120.089 62.2881 121.33 58.9789 123.316C50.044 128.528 40.6128 132.003 37.9655 142.509C31.4298 145.405 29.527 153.761 29.858 163.44C29.9407 165.343 30.9334 167.659 30.6025 169.479C30.4371 170.389 29.1961 171.547 28.9479 172.127C25.8042 179.572 28.3688 189.334 31.9262 194.629C34.0772 197.856 37.7173 200.668 42.4329 201.413C42.5983 204.226 43.3429 206.708 44.5839 209.603C45.4112 211.423 48.5549 214.732 47.3967 217.049C46.8176 218.207 41.7711 220.772 40.1165 221.764C34.4081 225.156 30.3543 227.225 25.0596 231.03C21.6677 233.429 16.373 233.76 17.2003 239.386C17.7794 243.192 19.9304 247.907 21.1713 251.713C22.495 255.849 24.3978 259.572 25.556 263.874C28.0379 273.388 28.5343 282.323 29.1134 291.588C29.3616 295.229 28.9479 299.034 29.9407 301.102C30.9334 303.171 34.4908 303.832 37.1382 305.073C44.6666 308.548 52.6087 313.843 62.4535 312.767C64.77 320.709 67.0037 329.065 69.8165 336.014C79.9095 339.655 95.8764 339.075 106.383 337.834C109.61 337.421 112.919 335.849 113.663 333.119C113.415 331.382 113.167 329.727 113.332 327.741C116.642 327.08 121.109 326.5 121.854 322.86C122.846 317.731 118.627 310.451 120.034 304.825C121.936 304.246 124.005 303.75 123.674 300.689C126.9 299.034 130.706 298.621 134.759 298.786C135.256 299.779 136 300.771 136.662 301.351C142.371 302.509 147.831 302.592 152.546 301.02C157.924 299.117 160.488 288.197 159.247 282.985ZM65.8455 124.722C66.3418 124.557 66.7555 124.888 67.1691 125.384C67.0864 126.791 65.7627 126.791 64.7699 127.204C63.2808 129.024 61.1298 129.852 59.3925 131.837C57.5724 133.823 55.5042 139.283 53.105 139.862C51.8641 140.193 50.5404 139.614 49.4649 139.696C46.6521 139.862 44.6666 141.268 41.8538 141.682C45.5766 133.657 56.9934 127.204 65.8455 124.722ZM37.7173 149.872C41.3574 145.901 46.3212 143.419 52.4432 142.923C55.5869 150.948 50.2095 160.379 52.195 169.148C52.7741 171.796 54.9251 176.015 51.5332 176.098C51.6159 168.486 42.1847 163.688 35.0699 168.156C34.5736 162.282 33.7463 154.174 37.7173 149.872ZM47.5621 203.647C47.314 202.571 46.8176 200.172 46.983 199.593C47.3967 197.276 51.6159 196.201 49.9613 192.974C46.9003 192.974 46.2385 195.705 43.5084 196.035C36.3109 196.78 31.2643 186.522 31.5953 180.317C31.8435 175.105 36.3109 170.058 42.3501 170.72C46.6521 171.217 48.0585 175.849 48.9685 180.069C51.4504 180.234 55.0078 179.986 56.166 178C56.0006 173.285 53.8496 169.479 53.9323 165.177C54.1805 157.07 58.6479 149.707 55.256 141.682C58.8961 133.409 69.651 126.791 77.5931 122.902C87.4379 118.021 103.074 121.91 112.34 127.122C117.634 130.1 121.605 135.891 125.328 140.772C120.116 139.2 115.649 141.93 116.476 146.232C120.861 142.178 128.389 146.149 130.54 150.617C132.691 154.836 132.608 161.206 132.939 167.494C133.767 182.799 130.127 198.6 122.433 209.686C120.364 212.664 118.627 215.891 115.732 217.876C108.782 222.757 98.1101 227.225 89.0925 224.164C77.0967 220.11 71.6365 212.168 65.0182 202.985C65.1836 208.031 68.741 212.168 72.2156 215.973C75.2766 219.365 78.9168 223.088 82.8878 224.66C79.5786 223.915 74.5321 223.667 73.1257 226.563C65.4318 226.066 58.317 225.239 54.6769 220.027C51.7814 216.056 48.8858 209.024 47.5621 203.647ZM102.66 231.609C98.1101 231.858 95.7109 231.278 92.319 228.714C92.4017 228.466 92.7327 228.631 92.7327 228.383C97.531 230.534 103.736 227.473 108.617 227.059C106.466 228.466 104.646 230.12 102.66 231.609ZM99.4338 240.544C99.0201 238.062 98.441 237.318 98.6892 235.084C105.308 230.699 106.631 242.861 99.4338 240.544ZM96.5382 235.084C96.5382 235.498 96.5382 235.829 96.4555 236.242C94.8836 237.318 92.319 237.235 90.5817 238.145C93.1463 238.228 95.1318 238.89 96.8692 239.717C96.8692 240.71 96.7864 241.62 96.7864 242.612C93.8909 244.598 91.2435 247.576 87.8516 249.396C86.2797 250.306 80.5714 252.54 78.834 252.126C77.8413 251.878 77.7586 250.72 77.4276 249.562C76.6003 247.163 74.6975 243.274 74.5321 239.634C74.2839 235.001 73.8702 227.307 78.834 228.217C82.8878 228.962 87.5207 230.865 90.6644 232.519C92.5672 233.595 93.6427 234.836 96.5382 235.084ZM94.47 248.073C99.351 254.277 102.329 262.219 105.556 269.913C97.8619 267.597 89.9198 263.791 83.136 259.986C84.5424 254.277 89.7544 251.299 94.47 248.073ZM97.0346 245.922C97.6137 245.342 98.1101 244.681 98.6892 244.019C101.088 245.012 102.66 242.695 104.48 242.861C106.631 243.109 108.286 246.004 111.347 245.839C110.851 253.698 111.099 261.64 108.948 268.92C104.811 261.392 102.412 252.292 97.0346 245.922ZM113.663 246.17C117.965 244.184 121.605 246.583 123.343 249.479C119.206 256.511 115.318 263.791 110.354 269.996C112.422 263.957 113.332 253.864 113.663 246.17ZM120.695 243.357C115.649 243.192 111.099 242.612 107.045 241.454C107.293 239.8 106.797 238.228 107.21 236.987C108.286 236.159 110.189 236.159 111.843 235.994C110.354 235.249 108.369 235.001 106.631 235.415C106.631 234.257 106.052 233.595 105.804 232.685C108.617 231.692 115.318 224.991 119.123 227.225C120.944 228.3 121.688 234.257 121.854 237.152C122.019 239.634 121.688 242.033 120.695 243.357ZM71.3056 233.512C68.1619 233.347 58.3997 229.789 60.9644 227.142C63.4463 228.879 68.3273 228.466 72.0502 229.127C72.2157 230.286 71.3056 231.858 71.3056 233.512ZM33.7462 297.049C33.1671 277.028 30.0234 256.263 22.0813 239.303C30.3543 232.933 39.6201 226.149 49.5477 222.261C50.2922 221.93 55.7524 229.127 56.5797 229.707C61.0471 232.85 66.5073 235.332 71.7193 237.814C72.0502 240.213 72.7948 243.274 74.0357 247.328C75.4421 251.878 76.6003 258.248 82.6396 255.022C82.0605 257.587 78.7513 259.241 79.6613 262.219C80.2404 264.122 86.5279 266.439 88.5134 267.597C92.1535 269.665 95.5455 270.823 98.3583 272.064C85.5352 272.395 73.4566 273.471 61.6262 275.043C60.2198 272.809 60.7989 269.417 60.6335 265.942C60.468 262.137 62.0399 253.533 60.5507 253.036C58.8961 252.457 58.5652 255.849 58.4825 256.594C58.1516 260.648 60.3853 269.169 58.2343 273.967C55.8351 273.305 54.6769 271.485 52.3605 270.658C51.4504 273.471 54.1805 273.553 53.9323 275.373C53.6014 277.69 49.134 275.787 49.134 279.262C52.0296 279.758 56.4142 278.352 59.558 279.675C60.3853 289.107 61.6262 298.124 63.1154 308.134C50.7059 307.39 42.7638 301.268 33.7462 297.049ZM72.1329 330.968C66.6727 314.174 63.6945 298.207 61.6262 279.262C74.4494 276.863 92.8154 274.794 105.887 277.524C107.045 285.301 106.631 292.912 107.541 300.523C108.7 310.616 107.872 322.199 109.775 331.63C99.0201 334.939 84.2942 334.691 72.1329 330.968ZM117.883 321.702C115.566 322.529 114.242 323.191 111.099 323.191C110.85 318.228 110.189 310.699 110.437 305.983C112.009 306.066 114.242 304.908 115.483 305.239C115.98 310.534 118.131 315.911 117.883 321.702ZM109.94 301.93C109.279 293.739 108.865 285.715 108.948 277.607C111.181 276.863 113.084 276.945 115.318 276.863C117.221 283.812 117.138 292.664 118.048 300.523C115.152 301.185 113.084 301.516 109.94 301.93ZM111.678 272.478C116.393 264.288 121.523 256.594 126.156 248.321C125.494 246.666 123.756 246.004 123.26 244.184C126.486 238.062 124.997 219.117 116.724 223.088C117.883 221.351 120.944 220.027 122.35 217.876C125.825 220.689 127.976 223.336 131.285 226.315C133.105 227.969 136.662 229.872 136.993 232.519C137.159 234.008 136.331 237.566 136 239.22C134.511 246.418 131.285 256.015 128.141 263.626C126.983 266.356 125.907 269.831 124.418 270.41C120.199 272.147 115.152 270.327 111.678 272.478ZM128.307 295.89C126.486 296.221 125.245 297.297 123.012 297.214C122.433 290.265 120.861 282.902 120.116 276.283C121.523 276.283 123.26 275.953 124.749 276.283C127.81 281.33 128.389 289.768 128.307 295.89ZM148.824 298.207C145.432 299.034 140.22 299.282 137.986 298.207C140.716 296.718 144.77 296.718 147.913 295.725C143.446 293.822 136.745 295.642 131.367 295.311C130.706 288.61 130.209 281.413 128.637 276.118C131.781 272.726 139.392 271.982 143.777 269.169C146.424 267.431 149.816 269.913 150.974 271.733C152.629 274.215 154.201 281.661 155.028 285.549C156.435 291.423 153.539 297.131 148.824 298.207Z" fill="#1D1919"/>
<path d="M105.804 250.969C106.718 250.969 107.459 250.228 107.459 249.314C107.459 248.4 106.718 247.659 105.804 247.659C104.891 247.659 104.15 248.4 104.15 249.314C104.15 250.228 104.891 250.969 105.804 250.969Z" fill="#1D1919"/>
<path d="M107.376 258.579C108.29 258.579 109.03 257.839 109.03 256.925C109.03 256.011 108.29 255.27 107.376 255.27C106.462 255.27 105.721 256.011 105.721 256.925C105.721 257.839 106.462 258.579 107.376 258.579Z" fill="#1D1919"/>
<path d="M233.209 190.245C234.367 190.411 235.857 190.659 237.677 191.073C239.497 191.486 240.986 191.9 242.227 192.479C243.964 193.224 245.122 194.134 245.536 195.127C246.032 196.119 246.198 197.36 246.198 198.932V249.315C246.198 256.595 244.791 262.055 241.896 265.695C239 269.335 235.029 271.073 229.983 271.073C228.659 271.073 227.418 270.742 226.177 270.163C224.936 269.583 224.109 268.839 223.695 268.012V267.184C226.094 265.281 228.245 263.13 230.065 260.897C231.968 258.58 232.878 256.098 232.878 253.451C232.878 250.307 231.803 247.66 229.652 245.509C227.501 243.358 224.605 242.283 220.965 242.283C217.077 242.283 214.099 243.523 211.865 246.088C209.631 248.653 208.556 251.879 208.556 255.768C208.556 262.386 210.955 267.515 215.753 271.321C220.552 275.126 226.839 276.946 234.698 276.946C239.248 276.946 243.468 276.285 247.439 275.044C251.41 273.803 255.05 271.9 258.276 269.335C261.42 266.771 263.985 263.627 265.805 259.821C267.625 256.016 268.535 251.879 268.535 247.329V198.105C268.535 196.616 268.783 195.292 269.279 194.051C269.776 192.893 270.851 192.066 272.589 191.569C274.078 191.155 275.401 190.907 276.56 190.659C277.718 190.411 279.124 190.245 280.862 189.997V185.116H233.209V190.245Z" fill="black"/>
<path d="M342.577 264.288C339.434 266.439 335.876 267.515 331.988 267.515C324.79 267.515 319.496 265.281 316.187 260.813C312.877 256.346 311.223 249.81 311.223 241.206H353.746V237.07C353.746 233.513 353.167 230.121 352.091 226.894C351.016 223.668 349.279 220.855 346.879 218.456C344.397 215.974 341.254 213.988 337.531 212.582C333.725 211.175 328.927 210.431 323.053 210.431C317.676 210.431 312.877 211.341 308.493 213.161C304.191 214.981 300.551 217.38 297.738 220.358C294.842 223.419 292.609 226.894 291.037 230.865C289.465 234.753 288.72 238.89 288.72 243.192C288.72 247.908 289.465 252.292 290.871 256.346C292.278 260.4 294.511 263.874 297.407 266.853C300.302 269.831 304.025 272.23 308.575 273.967C313.043 275.705 318.42 276.615 324.625 276.615C328.348 276.615 331.657 276.201 334.553 275.374C337.448 274.547 340.261 273.388 343.074 271.734C345.721 270.245 348.038 268.425 350.106 266.274C352.174 264.123 353.911 261.889 355.401 259.49L350.602 256.015C348.368 259.407 345.721 262.137 342.577 264.288ZM314.284 220.358C316.187 217.049 318.751 215.477 321.978 215.477C323.88 215.477 325.452 215.974 326.693 216.967C327.934 217.959 328.927 219.448 329.589 221.434C330.251 223.089 330.664 225.24 330.912 227.887C331.161 230.534 331.326 233.099 331.326 235.581L311.14 235.829C311.305 228.797 312.381 223.668 314.284 220.358Z" fill="black"/>
<path d="M438.545 268.425C437.304 267.845 436.394 267.184 435.981 266.191C435.484 265.281 435.319 264.04 435.319 262.468V231.692C435.319 225.24 433.581 220.11 430.19 216.222C426.798 212.334 421.668 210.431 414.802 210.431C411.989 210.431 409.259 210.762 406.777 211.506C404.295 212.251 402.227 213.078 400.655 214.071C399.249 214.981 397.677 216.222 396.022 217.628C394.368 219.118 392.961 220.358 391.72 221.434H391.472V212.334L390.562 211.424L360.614 213.078V217.628C362.02 217.794 363.261 217.959 364.419 218.29C365.578 218.621 366.488 219.035 367.315 219.531C368.39 220.358 369.3 221.351 369.962 222.592C370.624 223.833 370.955 225.157 370.955 226.398V262.964C370.955 264.536 370.707 265.777 370.21 266.77C369.714 267.763 368.804 268.425 367.48 268.921C366.736 269.169 365.826 269.335 364.75 269.5C363.675 269.665 362.599 269.748 361.607 269.831V274.381H399.828V269.831C398.835 269.665 397.842 269.5 396.849 269.169C395.857 268.838 395.029 268.507 394.368 268.176C393.375 267.68 392.713 266.935 392.299 265.943C391.886 264.95 391.637 263.709 391.637 262.303V228.549C392.134 227.887 392.796 227.142 393.458 226.232C394.202 225.322 395.195 224.495 396.353 223.668C397.759 222.675 399.166 221.93 400.572 221.434C402.061 220.938 403.551 220.689 405.288 220.689C408.349 220.689 410.665 221.765 412.237 223.916C413.809 226.067 414.636 229.293 414.636 233.595V263.047C414.636 264.784 414.471 266.025 414.057 266.935C413.644 267.845 413.064 268.507 412.154 268.921C411.575 269.252 410.748 269.417 409.59 269.583C408.432 269.748 407.522 269.831 406.694 269.914V274.464H444.502V269.914C443.261 269.748 442.103 269.583 441.11 269.252C440.034 269.004 439.207 268.755 438.545 268.425Z" fill="black"/>
<path d="M520.281 264.784C516.475 259.159 512.835 253.781 509.361 248.735C505.886 243.688 502.08 238.145 498.027 232.189C500.095 230.369 501.998 228.797 503.57 227.556C505.141 226.315 506.879 225.157 508.533 223.998C511.098 222.261 513.497 220.937 515.731 219.862C517.965 218.869 521.108 217.711 525.328 216.553V212.251H493.394V216.718C496.041 217.132 498.027 217.546 499.35 218.042C500.674 218.538 501.336 219.2 501.336 219.945C501.336 220.11 501.253 220.524 501.088 221.268C500.922 222.013 500.178 223.088 498.771 224.495C496.455 226.894 493.311 229.872 489.423 233.512C485.534 237.153 482.06 240.379 478.999 243.109V178.249L478.089 177.256L446.817 178.911V183.461C448.141 183.544 449.547 183.792 451.119 184.123C452.691 184.454 453.932 184.867 454.676 185.364C455.834 186.108 456.744 187.266 457.324 188.756C457.903 190.245 458.234 191.651 458.234 193.058V263.13C458.234 264.702 457.985 265.943 457.489 266.935C456.993 267.928 456.083 268.59 454.759 269.086C453.932 269.334 453.022 269.5 451.946 269.665C450.871 269.831 449.878 269.914 448.802 269.996V274.546H487.851V269.996C486.858 269.914 485.865 269.748 484.873 269.5C483.88 269.252 482.97 268.921 482.225 268.59C480.984 268.094 480.157 267.432 479.661 266.439C479.247 265.446 478.999 264.205 478.999 262.716V248.983L482.722 245.839C485.369 249.645 488.265 253.781 491.243 258.249C494.221 262.716 497.613 268.094 501.253 274.546H530.87V269.996C528.968 269.831 526.982 269.417 525.079 268.755C523.177 268.011 521.522 266.687 520.281 264.784Z" fill="black"/>
<path d="M549.734 200.338C553.126 200.338 556.021 199.18 558.421 196.946C560.902 194.712 562.061 191.982 562.061 188.838C562.061 185.695 560.82 182.964 558.421 180.648C556.021 178.414 553.043 177.256 549.651 177.256C546.259 177.256 543.364 178.414 540.882 180.648C538.4 182.882 537.242 185.612 537.242 188.838C537.242 191.982 538.483 194.712 540.882 196.946C543.364 199.18 546.342 200.338 549.734 200.338Z" fill="black"/>
<path d="M565.369 268.341C564.21 267.845 563.3 267.1 562.639 266.025C561.977 265.032 561.728 263.791 561.728 262.302V212.416L560.818 211.423L530.043 213.078V217.628C531.284 217.793 532.69 218.041 534.262 218.538C535.751 219.034 536.91 219.448 537.654 219.944C538.647 220.606 539.474 221.516 540.136 222.592C540.798 223.667 541.129 224.991 541.129 226.48V263.047C541.129 264.618 540.881 265.859 540.301 266.769C539.722 267.679 538.812 268.424 537.489 268.92C536.744 269.251 535.834 269.417 534.759 269.582C533.683 269.748 532.608 269.83 531.532 269.913V274.463H571.242V269.913C570.167 269.748 569.091 269.582 568.099 269.251C567.106 269.003 566.196 268.672 565.369 268.341Z" fill="black"/>
<path d="M654.223 268.425C652.982 267.845 652.072 267.184 651.658 266.191C651.162 265.281 650.996 264.04 650.996 262.468V231.692C650.996 225.24 649.259 220.11 645.867 216.222C642.475 212.334 637.346 210.431 630.479 210.431C627.666 210.431 624.936 210.762 622.454 211.506C619.972 212.251 617.904 213.078 616.332 214.071C614.926 214.981 613.354 216.222 611.699 217.628C610.045 219.118 608.638 220.358 607.397 221.434H607.149V212.334L606.239 211.424L576.291 213.078V217.628C577.697 217.794 578.938 217.959 580.097 218.29C581.255 218.621 582.165 219.035 582.992 219.531C584.068 220.358 584.978 221.351 585.639 222.592C586.301 223.833 586.632 225.157 586.632 226.398V262.964C586.632 264.536 586.384 265.777 585.888 266.77C585.391 267.763 584.481 268.425 583.158 268.921C582.413 269.169 581.503 269.335 580.428 269.5C579.352 269.665 578.277 269.748 577.284 269.831V274.381H615.505V269.831C614.512 269.665 613.519 269.5 612.527 269.169C611.534 268.838 610.707 268.507 610.045 268.176C609.052 267.68 608.39 266.935 607.977 265.943C607.563 264.95 607.315 263.709 607.315 262.303V228.549C607.811 227.887 608.473 227.142 609.135 226.232C609.879 225.322 610.872 224.495 612.03 223.668C613.437 222.675 614.843 221.93 616.25 221.434C617.739 220.938 619.228 220.689 620.965 220.689C624.026 220.689 626.343 221.765 627.914 223.916C629.486 226.067 630.314 229.293 630.314 233.595V263.047C630.314 264.784 630.148 266.025 629.734 266.935C629.321 267.845 628.742 268.507 627.832 268.921C627.253 269.252 626.425 269.417 625.267 269.583C624.109 269.748 623.199 269.831 622.372 269.914V274.464H660.179V269.914C658.938 269.748 657.78 269.583 656.787 269.252C655.712 269.004 654.884 268.755 654.223 268.425Z" fill="black"/>
<path d="M718.916 242.365C715.441 239.055 709.981 236.408 702.453 234.505C697.571 233.264 693.849 231.941 691.119 230.452C688.388 229.045 687.065 226.729 687.065 223.502C687.065 221.103 687.975 219.283 689.795 217.877C691.615 216.553 694.18 215.891 697.406 215.891C701.543 215.891 705.348 217.463 708.905 220.607C712.463 223.75 714.945 227.556 716.434 231.858H720.819L719.826 210.431H715.028L713.704 214.154C711.553 213.244 708.823 212.416 705.596 211.589C702.37 210.845 698.895 210.431 695.09 210.431C687.065 210.431 680.529 212.251 675.565 215.891C670.602 219.531 668.12 224.33 668.12 230.203C668.12 233.43 668.699 236.16 669.857 238.476C671.015 240.793 672.504 242.778 674.407 244.35C676.558 246.17 678.709 247.577 680.695 248.404C682.763 249.231 685.162 250.141 688.058 250.969C690.87 251.796 693.27 252.54 695.255 253.12C697.241 253.699 698.978 254.443 700.633 255.27C702.122 256.098 703.28 257.008 704.107 258.083C704.934 259.159 705.348 260.565 705.348 262.22C705.348 265.281 704.438 267.597 702.535 269.086C700.633 270.576 697.82 271.32 694.014 271.32C691.119 271.32 688.388 270.658 685.907 269.335C683.342 268.011 681.108 266.439 679.123 264.536C677.22 262.633 675.565 260.565 674.076 258.166C672.587 255.767 671.594 253.699 670.932 251.796H666.382L667.21 275.208H672.091L673.994 270.906C676.145 272.23 679.123 273.554 683.011 274.712C686.899 275.87 690.87 276.532 694.924 276.532C703.611 276.532 710.643 274.629 716.02 270.906C721.398 267.101 724.128 261.806 724.128 254.94C724.128 249.893 722.39 245.674 718.916 242.365Z" fill="black"/>
</g>
</svg>
