<svg width="929" height="441" viewBox="0 0 929 441" fill="none" xmlns="http://www.w3.org/2000/svg">
<mask id="mask0" mask-type="alpha" maskUnits="userSpaceOnUse" x="0" y="0" width="929" height="441">
<rect x="0.322266" y="0.919922" width="928.65" height="439.129" fill="#C4C4C4"/>
</mask>
<g mask="url(#mask0)">
<path d="M174.214 180.813H186.783V244.763C186.783 261.626 179.305 273.397 161.964 273.397C155.44 273.397 150.349 272.284 146.849 271.011V258.762C150.667 260.353 155.281 261.148 159.895 261.148C170.555 261.148 174.214 254.785 174.214 245.559V180.813V180.813Z" fill="#253858"/>
<path d="M209.692 175.879C214.624 175.879 218.124 178.901 218.124 184.31C218.124 189.56 214.624 192.741 209.692 192.741C204.76 192.741 201.26 189.719 201.26 184.31C201.26 179.06 204.76 175.879 209.692 175.879ZM203.487 202.763H215.579V272.757H203.487V202.763Z" fill="#253858"/>
<path d="M245.489 272.758H233.716V202.763H245.489V215.012C249.626 206.74 256.626 200.854 270.309 201.649V213.421C254.876 211.83 245.489 216.444 245.489 231.397V272.758Z" fill="#253858"/>
<path d="M326.788 260.19C322.333 269.416 313.901 274.188 303.082 274.188C284.468 274.188 275.081 258.44 275.081 237.76C275.081 218.035 284.945 201.332 304.514 201.332C314.696 201.332 322.651 205.945 326.788 215.012V202.763H338.879V272.757H326.788V260.19ZM306.264 263.053C317.083 263.053 326.629 256.213 326.629 240.623V235.056C326.629 219.466 317.878 212.626 307.537 212.626C294.014 212.626 287.013 221.534 287.013 237.76C287.172 254.622 293.855 263.053 306.264 263.053Z" fill="#253858"/>
<path d="M409.997 274.189C392.178 274.189 383.905 270.69 376.745 267.031V254.146C385.336 258.6 398.382 261.781 410.633 261.781C424.474 261.781 429.725 256.373 429.725 248.26C429.725 240.147 424.634 235.852 407.133 231.557C386.45 226.466 377.222 219.308 377.222 204.196C377.222 189.879 388.2 179.221 409.519 179.221C422.883 179.221 431.316 182.402 437.68 185.902V198.469C428.452 193.219 418.429 191.47 409.042 191.47C396.951 191.47 389.791 195.606 389.791 204.037C389.791 211.672 395.678 215.331 411.906 219.467C431.316 224.398 442.293 230.602 442.293 247.146C442.452 263.372 432.907 274.189 409.997 274.189Z" fill="#253858"/>
<path d="M453.113 237.601C453.113 216.603 465.363 201.332 486.364 201.332C507.206 201.332 519.456 216.603 519.456 237.601C519.456 258.599 507.206 274.188 486.364 274.188C465.363 274.188 453.113 258.599 453.113 237.601ZM464.886 237.601C464.886 250.963 471.409 262.894 486.523 262.894C501.319 262.894 507.842 250.804 507.842 237.601C507.842 224.398 501.478 212.467 486.523 212.467C471.409 212.626 464.886 224.398 464.886 237.601Z" fill="#253858"/>
<path d="M550.001 202.764H568.138V213.9H550.001V272.759H538.228V213.9H526.932V202.764H538.228V195.129C538.228 182.084 545.546 173.335 560.501 173.335C564.161 173.335 566.547 173.971 568.615 174.449V185.584C566.547 185.107 563.842 184.948 560.979 184.948C553.501 184.948 549.842 189.243 549.842 195.606V202.764H550.001Z" fill="#253858"/>
<path d="M608.869 261.465C611.733 261.465 614.278 260.829 616.505 260.511V272.123C614.437 272.76 612.051 273.237 608.391 273.237C593.436 273.237 586.118 264.488 586.118 251.443V214.059H574.822V202.924H586.118V188.129H597.891V202.924H616.505V214.059H597.891V251.125C597.891 257.329 601.391 261.465 608.869 261.465Z" fill="#253858"/>
<path d="M697.963 272.758L685.871 238.874L679.507 217.24L673.143 238.874L661.052 272.758H645.619L619.845 202.764H633.21L653.415 262.1L673.78 202.764H685.235L705.599 262.1L725.805 202.764H739.169L713.395 272.758H697.963Z" fill="#253858"/>
<path d="M794.059 260.19C789.604 269.416 781.172 274.188 770.353 274.188C751.739 274.188 742.352 258.44 742.352 237.76C742.352 218.035 752.216 201.332 771.785 201.332C781.968 201.332 789.922 205.945 794.059 215.012V202.763H806.151V272.757H794.059V260.19ZM773.694 263.053C784.513 263.053 794.059 256.213 794.059 240.623V235.056C794.059 219.466 785.309 212.626 774.967 212.626C761.444 212.626 754.444 221.534 754.444 237.76C754.444 254.622 761.126 263.053 773.694 263.053Z" fill="#253858"/>
<path d="M836.06 272.758H824.287V202.763H836.06V215.012C840.196 206.74 847.197 200.854 860.879 201.649V213.421C845.447 211.83 836.06 216.444 836.06 231.397V272.758Z" fill="#253858"/>
<path d="M903.358 274.188C877.107 274.188 865.652 259.076 865.652 237.601C865.652 216.444 877.425 201.332 898.744 201.332C920.381 201.332 928.972 216.285 928.972 237.601V243.009H877.902C879.652 254.94 887.289 262.576 903.835 262.576C911.949 262.576 918.79 260.985 925.154 258.758V269.893C919.267 273.075 910.517 274.188 903.358 274.188ZM877.743 232.829H916.881C916.245 219.784 910.358 212.467 898.267 212.467C885.38 212.308 879.016 220.58 877.743 232.829Z" fill="#253858"/>
<path d="M115.509 223.444L63.6431 171.584L58.5519 166.493L19.5731 205.468L1.75414 223.444C-0.155027 225.352 -0.155027 228.375 1.75414 230.125L37.392 265.759L58.5519 286.916L97.6899 248.101L98.3263 247.464L115.509 230.125C117.418 228.375 117.418 225.352 115.509 223.444ZM58.5519 244.601L40.733 226.784L58.5519 208.967L76.3708 226.784L58.5519 244.601Z" fill="#2684FF"/>
<path d="M58.552 208.966C46.9379 197.354 46.7788 178.423 58.3929 166.651L19.4141 205.626L40.7331 226.942L58.552 208.966Z" fill="url(#paint0_linear)"/>
<path d="M76.5308 226.783L58.7119 244.6C70.4851 256.372 70.4851 275.303 58.7119 287.075L97.8498 247.941L76.5308 226.783Z" fill="url(#paint1_linear)"/>
</g>
<defs>
<linearGradient id="paint0_linear" x1="55.4197" y1="190.96" x2="30.5363" y2="215.846" gradientUnits="userSpaceOnUse">
<stop offset="0.176" stop-color="#0052CC"/>
<stop offset="1" stop-color="#2684FF"/>
</linearGradient>
<linearGradient id="paint1_linear" x1="62.0078" y1="262.442" x2="86.842" y2="237.605" gradientUnits="userSpaceOnUse">
<stop offset="0.176" stop-color="#0052CC"/>
<stop offset="1" stop-color="#2684FF"/>
</linearGradient>
</defs>
</svg>
