<svg width="1395" height="440" viewBox="0 0 1395 440" fill="none" xmlns="http://www.w3.org/2000/svg">
<mask id="mask0" mask-type="alpha" maskUnits="userSpaceOnUse" x="0" y="0" width="1395" height="440">
<rect x="0.322266" y="0.248047" width="1394.6" height="439.129" fill="#C4C4C4"/>
</mask>
<g mask="url(#mask0)">
<path d="M138.494 194.929H149.143V249.598C149.143 264.013 142.807 274.077 128.115 274.077C122.588 274.077 118.275 273.125 115.31 272.037V261.566C118.545 262.925 122.454 263.605 126.363 263.605C135.394 263.605 138.494 258.166 138.494 250.278V194.929V194.929Z" fill="#253858"/>
<path d="M168.688 190.85C172.867 190.85 175.832 193.433 175.832 198.057C175.832 202.545 172.867 205.265 168.688 205.265C164.509 205.265 161.544 202.681 161.544 198.057C161.544 193.433 164.509 190.85 168.688 190.85ZM163.431 213.697H173.675V273.534H163.431V213.697Z" fill="#253858"/>
<path d="M199.016 273.535H189.041V213.698H199.016V224.17C202.52 217.098 208.451 212.066 220.043 212.746V222.81C206.969 221.45 199.016 225.393 199.016 238.177V273.535Z" fill="#253858"/>
<path d="M267.896 262.791C264.121 270.679 256.977 274.759 247.811 274.759C232.041 274.759 224.088 261.295 224.088 243.616C224.088 226.753 232.445 212.474 249.025 212.474C257.651 212.474 264.391 216.417 267.896 224.169V213.698H278.14V273.535H267.896V262.791ZM250.507 265.239C259.673 265.239 267.761 259.391 267.761 246.064V241.304C267.761 227.977 260.347 222.129 251.586 222.129C240.128 222.129 234.197 229.745 234.197 243.616C234.332 258.031 239.993 265.239 250.507 265.239Z" fill="#253858"/>
<path d="M338.392 274.757C323.295 274.757 316.286 271.766 310.22 268.638V257.622C317.499 261.43 328.552 264.15 338.931 264.15C350.658 264.15 355.106 259.526 355.106 252.591C355.106 245.655 350.793 241.983 335.966 238.311C318.443 233.959 310.625 227.84 310.625 214.92C310.625 202.681 319.925 193.569 337.988 193.569C349.31 193.569 356.454 196.289 361.846 199.281V210.025C354.028 205.537 345.536 204.041 337.583 204.041C327.339 204.041 321.273 207.577 321.273 214.784C321.273 221.312 326.261 224.44 340.009 227.976C356.454 232.192 365.755 237.495 365.755 251.639C365.755 265.51 357.802 274.757 338.392 274.757Z" fill="#253858"/>
<path d="M406.733 274.759C384.492 274.759 374.787 261.839 374.787 243.48C374.787 225.393 384.761 212.474 402.824 212.474C421.155 212.474 428.434 225.257 428.434 243.48V248.104H385.166C386.648 258.303 393.118 264.831 407.137 264.831C414.011 264.831 419.808 263.471 425.199 261.567V271.087C420.212 273.807 412.798 274.759 406.733 274.759ZM385.031 239.4H418.19C417.651 228.249 412.663 221.993 402.419 221.993C391.501 221.857 386.109 228.929 385.031 239.4Z" fill="#253858"/>
<path d="M450.541 273.535H440.566V213.698H450.541V224.17C454.045 217.098 459.976 212.066 471.568 212.746V222.81C458.493 221.45 450.541 225.393 450.541 238.177V273.535Z" fill="#253858"/>
<path d="M496.64 273.535L473.59 213.698H484.239L503.514 264.832L522.655 213.698H533.304L510.254 273.535H496.64Z" fill="#253858"/>
<path d="M547.321 190.85C551.5 190.85 554.465 193.433 554.465 198.057C554.465 202.545 551.5 205.265 547.321 205.265C543.143 205.265 540.177 202.681 540.177 198.057C540.177 193.433 543.143 190.85 547.321 190.85ZM542.064 213.697H552.309V273.534H542.064V213.697Z" fill="#253858"/>
<path d="M609.597 272.039C606.092 273.943 600.566 274.759 595.174 274.759C574.011 274.759 564.171 261.839 564.171 243.48C564.171 225.393 574.011 212.474 595.174 212.474C600.566 212.474 604.609 213.154 609.327 215.329V224.849C605.553 223.081 601.509 221.993 595.983 221.993C580.616 221.993 574.281 231.785 574.281 243.48C574.281 255.176 580.481 264.967 595.983 264.967C602.048 264.967 605.822 264.151 609.462 262.791V272.039H609.597Z" fill="#253858"/>
<path d="M649.494 274.759C627.253 274.759 617.548 261.839 617.548 243.48C617.548 225.393 627.523 212.474 645.585 212.474C663.917 212.474 671.196 225.257 671.196 243.48V248.104H627.927C629.41 258.303 635.88 264.831 649.899 264.831C656.773 264.831 662.569 263.471 667.961 261.567V271.087C663.108 273.807 655.56 274.759 649.494 274.759ZM627.793 239.4H660.952C660.413 228.249 655.425 221.993 645.181 221.993C634.397 221.857 628.871 228.929 627.793 239.4Z" fill="#253858"/>
<path d="M717.565 201.456V273.669H706.917V194.929H725.383L743.041 240.079L750.32 261.702L757.599 240.079L775.391 194.929H792.645V273.533H781.996V202.272L772.83 230.695L755.577 273.669H745.198L728.214 230.695L717.565 201.456Z" fill="#253858"/>
<path d="M849.932 262.791C846.158 270.679 839.013 274.759 829.848 274.759C814.077 274.759 806.124 261.295 806.124 243.616C806.124 226.753 814.481 212.474 831.061 212.474C839.687 212.474 846.427 216.417 849.932 224.169V213.698H860.176V273.535H849.932V262.791ZM832.543 265.239C841.709 265.239 849.797 259.391 849.797 246.064V241.304C849.797 227.977 842.383 222.129 833.622 222.129C822.164 222.129 816.233 229.745 816.233 243.616C816.368 258.031 822.03 265.239 832.543 265.239Z" fill="#253858"/>
<path d="M925.956 273.533H915.711V237.495C915.711 226.751 911.398 221.992 901.693 221.992C892.257 221.992 885.653 228.383 885.653 240.487V273.805H875.408V213.968H885.653V223.76C889.427 216.688 896.436 212.744 904.389 212.744C918.003 212.744 925.821 222.264 925.821 238.719V273.533H925.956Z" fill="#253858"/>
<path d="M980.413 262.791C976.639 270.679 969.495 274.759 960.329 274.759C944.558 274.759 936.605 261.295 936.605 243.616C936.605 226.753 944.963 212.474 961.542 212.474C970.169 212.474 976.909 216.417 980.413 224.169V213.698H990.658V273.535H980.413V262.791ZM963.025 265.239C972.191 265.239 980.278 259.391 980.278 246.064V241.304C980.278 227.977 972.865 222.129 964.103 222.129C952.646 222.129 946.715 229.745 946.715 243.616C946.85 258.031 952.511 265.239 963.025 265.239Z" fill="#253858"/>
<path d="M1045.92 262.791C1042.15 270.679 1035 274.759 1025.84 274.759C1010.2 274.759 1002.38 261.295 1002.38 243.616C1002.38 226.753 1010.61 212.474 1027.05 212.474C1035.68 212.474 1042.42 216.417 1045.92 224.169V213.698H1055.9V268.095C1055.9 285.638 1047.67 297.47 1026.51 297.47C1016.54 297.47 1011.14 296.11 1005.35 294.206V284.142C1011.82 286.318 1018.69 287.678 1025.97 287.678C1040.8 287.678 1045.92 279.654 1045.92 268.503V262.791V262.791ZM1028.67 265.239C1037.83 265.239 1045.92 259.391 1045.92 246.064V241.304C1045.92 227.977 1038.51 222.129 1029.75 222.129C1018.29 222.129 1012.36 229.745 1012.36 243.616C1012.36 258.031 1018.02 265.239 1028.67 265.239Z" fill="#253858"/>
<path d="M1099.7 274.759C1077.46 274.759 1067.76 261.839 1067.76 243.48C1067.76 225.393 1077.73 212.474 1095.8 212.474C1114.13 212.474 1121.41 225.257 1121.41 243.48V248.104H1078.14C1079.62 258.303 1086.09 264.831 1100.11 264.831C1106.98 264.831 1112.78 263.471 1118.17 261.567V271.087C1113.18 273.807 1105.77 274.759 1099.7 274.759ZM1078 239.4H1111.16C1110.62 228.249 1105.64 221.993 1095.39 221.993C1084.47 221.857 1079.08 228.929 1078 239.4Z" fill="#253858"/>
<path d="M1183.95 273.533H1173.71V237.495C1173.71 226.751 1169.39 221.992 1159.69 221.992C1150.25 221.992 1143.65 228.383 1143.65 240.487V273.805H1133.4V213.968H1143.65V223.76C1147.42 216.688 1154.43 212.744 1162.38 212.744C1172.49 212.744 1179.37 217.912 1182.33 227.295C1185.7 218.048 1193.66 212.744 1203.5 212.744C1216.84 212.744 1224.12 221.856 1224.12 238.719V273.805H1213.87V240.351C1213.87 227.975 1209.56 221.856 1199.86 221.856C1190.42 221.856 1183.82 228.247 1183.82 240.351V273.533H1183.95Z" fill="#253858"/>
<path d="M1266.71 274.759C1244.47 274.759 1234.77 261.839 1234.77 243.48C1234.77 225.393 1244.74 212.474 1262.8 212.474C1281.14 212.474 1288.41 225.257 1288.41 243.48V248.104H1245.15C1246.63 258.303 1253.1 264.831 1267.12 264.831C1273.99 264.831 1279.79 263.471 1285.18 261.567V271.087C1280.19 273.807 1272.78 274.759 1266.71 274.759ZM1245.01 239.4H1278.03C1277.5 228.249 1272.51 221.993 1262.26 221.993C1251.48 221.857 1246.09 228.929 1245.01 239.4Z" fill="#253858"/>
<path d="M1350.96 273.533H1340.71V237.495C1340.71 226.751 1336.4 221.992 1326.7 221.992C1317.26 221.992 1310.66 228.383 1310.66 240.487V273.805H1300.41V213.968H1310.66V223.76C1314.43 216.688 1321.44 212.744 1329.39 212.744C1343.01 212.744 1350.82 222.264 1350.82 238.719V273.533H1350.96Z" fill="#253858"/>
<path d="M1388.7 263.877C1391.13 263.877 1393.28 263.333 1395.17 263.061V272.988C1393.42 273.532 1391.4 273.94 1388.3 273.94C1375.63 273.94 1369.43 266.461 1369.43 255.309V223.351H1359.86V213.831H1369.43V201.048H1379.4V213.695H1395.17V223.215H1379.4V254.901C1379.27 260.341 1382.37 263.877 1388.7 263.877Z" fill="#253858"/>
<path d="M48.5707 226.098L76.6924 226.243C80.3254 226.243 82.3437 230.737 80.1908 233.781L38.7483 293.51C25.6966 283.072 23.0056 263.066 32.828 249.003L48.5707 226.098Z" fill="url(#paint0_linear)"/>
<path d="M32.6913 249.003L4.70419 248.714C1.07124 248.714 -0.947062 244.219 1.2058 241.175L42.3792 182.026C55.4309 192.464 58.1219 212.471 48.2995 226.533L32.6913 249.003Z" fill="#2684FF"/>
</g>
<defs>
<linearGradient id="paint0_linear" x1="47.5185" y1="230.507" x2="61.0339" y2="268.426" gradientUnits="userSpaceOnUse">
<stop stop-color="#0052CC"/>
<stop offset="1" stop-color="#2684FF"/>
</linearGradient>
</defs>
</svg>
