<svg width="240" height="28" viewBox="0 0 240 28" fill="none" xmlns="http://www.w3.org/2000/svg">
<rect width="28" height="28" rx="7" fill="url(#paint0_linear_528_4736)"/>
<path opacity="0.5" fill-rule="evenodd" clip-rule="evenodd" d="M0 5.25V5.425H5.25V11.025H0V11.2H5.25V16.8H0V16.975H5.25V22.575H0V22.75H5.25V28H5.425V22.75H11.025V28H11.2V22.75H16.8V28H16.975V22.75H22.575V28H22.75V22.75H28V22.575H22.75V16.975H28V16.8H22.75V11.2H28V11.025H22.75V5.425H28V5.25H22.75V0H22.575V5.25H16.975V0H16.8V5.25H11.2V0H11.025V5.25H5.425V0H5.25V5.25H0ZM22.575 16.975V22.575H16.975V16.975H22.575ZM16.8 16.975V22.575H11.2V16.975H16.8ZM11.025 16.975V22.575H5.425V16.975H11.025ZM5.425 16.8H11.025V11.2H5.425V16.8ZM11.2 16.8H16.8V11.2H11.2V16.8ZM16.975 16.8H22.575V11.2H16.975V16.8ZM22.575 5.425V11.025H16.975V5.425H22.575ZM16.8 5.425V11.025H11.2V5.425H16.8ZM11.025 5.425V11.025H5.425V5.425H11.025Z" fill="url(#paint1_radial_528_4736)"/>
<rect width="21" height="21" transform="translate(3.5 4.5)" fill="white" fill-opacity="0.01"/>
<path d="M21.8392 5.8125H13.7184C13.7184 7.82812 15.3613 9.46875 17.3798 9.46875H18.8819V10.8984C18.8819 12.9141 20.5249 14.5547 22.5433 14.5547V6.51562C22.5433 6.11719 22.2382 5.8125 21.8392 5.8125Z" fill="white"/>
<path d="M17.7084 9.96093H9.58752C9.58752 11.9766 11.2305 13.6172 13.2489 13.6172H14.7511V15.0469C14.7511 17.0625 16.394 18.7031 18.4125 18.7031V10.6641C18.4125 10.2891 18.1074 9.96093 17.7084 9.96093Z" fill="url(#paint2_linear_528_4736)"/>
<path d="M13.5775 14.1328H5.45667C5.45667 16.1485 7.09961 17.7891 9.11808 17.7891H10.6202V19.2188C10.6202 21.2344 12.2631 22.875 14.2816 22.875V14.836C14.2816 14.4375 13.953 14.1328 13.5775 14.1328Z" fill="url(#paint3_linear_528_4736)"/>
<path d="M42.8 14.72C42.8 15.68 42.432 16.336 41.344 16.336C40.864 16.336 40.4 16.256 40 16.096V17.872C40.4 18.016 40.976 18.144 41.728 18.144C43.824 18.144 44.72 16.816 44.72 14.88V7.568H42.8V14.72Z" fill="#344563"/>
<path d="M46.2155 7.84C46.2155 8.56 46.7275 8.992 47.4155 8.992C48.1035 8.992 48.6155 8.56 48.6155 7.84C48.6155 7.12 48.1035 6.704 47.4155 6.704C46.7275 6.704 46.2155 7.12 46.2155 7.84ZM46.5035 18.08H48.3115V10H46.5035V18.08Z" fill="#344563"/>
<path d="M51.9838 13.536C51.9838 12.016 52.9277 11.536 54.6558 11.696V9.888C53.2157 9.808 52.4318 10.48 51.9838 11.52V10H50.2078V18.08H51.9838V13.536Z" fill="#344563"/>
<path d="M56.9907 14.048C56.9907 12.368 57.6788 11.456 59.0228 11.456C60.0468 11.456 60.9108 12.144 60.9108 13.712V14.368C60.9108 15.936 59.9508 16.624 58.8948 16.624C57.6628 16.624 56.9907 15.76 56.9907 14.048ZM60.9108 18.08H62.7188V10H60.9108V11.44C60.4468 10.416 59.5828 9.84 58.4468 9.84C56.2548 9.84 55.1988 11.76 55.1988 14.048C55.1988 16.432 56.2068 18.24 58.2868 18.24C59.4708 18.24 60.4148 17.696 60.9108 16.624V18.08Z" fill="#344563"/>
<path d="M75.5929 11.216C75.5929 8.96 74.2809 7.568 71.6249 7.568H67.7529V18.08H69.6729V14.864H71.6249C74.2809 14.864 75.5929 13.552 75.5929 11.216ZM71.4329 13.184H69.6729V9.312H71.4329C73.0809 9.312 73.7049 10.096 73.7049 11.248C73.7049 12.448 73.0809 13.248 71.4329 13.184Z" fill="#344563"/>
<path d="M78.5507 13.536C78.5507 12.016 79.4947 11.536 81.2227 11.696V9.888C79.7827 9.808 78.9987 10.48 78.5507 11.52V10H76.7747V18.08H78.5507V13.536Z" fill="#344563"/>
<path d="M85.6698 18.256C88.1178 18.256 89.5578 16.48 89.5578 14.032C89.5578 11.568 88.1178 9.84 85.6698 9.84C83.2057 9.84 81.7657 11.568 81.7657 14.032C81.7657 16.48 83.2057 18.256 85.6698 18.256ZM85.6698 11.456C87.1418 11.456 87.7817 12.64 87.7817 14.032C87.7817 15.424 87.1418 16.624 85.6698 16.624C84.1818 16.624 83.5257 15.424 83.5257 14.032C83.5257 12.64 84.1818 11.456 85.6698 11.456Z" fill="#344563"/>
<path d="M92.3714 14.048C92.3714 12.368 93.0594 11.456 94.4034 11.456C95.4274 11.456 96.2914 12.144 96.2914 13.712V14.368C96.2914 15.936 95.3314 16.624 94.2754 16.624C93.0434 16.624 92.3714 15.76 92.3714 14.048ZM96.2914 18.08H98.0994V6.736H96.2914V11.44C95.8274 10.416 94.9634 9.84 93.8274 9.84C91.6354 9.84 90.5794 11.76 90.5794 14.048C90.5794 16.432 91.5874 18.24 93.6674 18.24C94.8514 18.24 95.7954 17.696 96.2914 16.624V18.08Z" fill="#344563"/>
<path d="M99.8529 14.784C99.8529 16.992 100.829 18.24 102.637 18.24C103.741 18.24 104.637 17.696 105.133 16.72V18.08H106.941V10H105.133V14.496C105.133 15.936 104.381 16.656 103.277 16.656C102.157 16.656 101.661 16.112 101.661 14.864V10H99.8529V14.784Z" fill="#344563"/>
<path d="M114.65 16.256C114.17 16.432 113.674 16.544 112.842 16.544C110.954 16.544 110.17 15.408 110.17 14.032C110.17 12.656 110.938 11.488 112.794 11.488C113.546 11.488 114.09 11.648 114.618 11.888V10.256C113.962 9.952 113.386 9.84 112.602 9.84C109.754 9.84 108.41 11.584 108.41 14.032C108.41 16.496 109.754 18.24 112.65 18.24C113.418 18.24 114.154 18.112 114.65 17.84V16.256Z" fill="#344563"/>
<path d="M118.38 15.376V11.584H120.316V10H118.38V8.304H116.604V10H115.452V11.584H116.604V15.52C116.604 17.088 117.404 18.144 119.212 18.144C119.708 18.144 120.028 18.08 120.316 18.016V16.352C120.092 16.4 119.82 16.448 119.516 16.448C118.764 16.448 118.38 16.032 118.38 15.376Z" fill="#344563"/>
<path d="M129.026 9.328C131.298 9.328 132.322 10.544 132.322 12.88C132.322 15.184 131.25 16.32 129.106 16.32H126.946V9.328H129.026ZM125.026 18.08H129.09C132.546 18.08 134.226 16.032 134.226 12.848C134.226 9.696 132.562 7.568 129.09 7.568H125.026V18.08Z" fill="#344563"/>
<path d="M135.355 7.84C135.355 8.56 135.867 8.992 136.555 8.992C137.243 8.992 137.755 8.56 137.755 7.84C137.755 7.12 137.243 6.704 136.555 6.704C135.867 6.704 135.355 7.12 135.355 7.84ZM135.643 18.08H137.451V10H135.643V18.08Z" fill="#344563"/>
<path d="M145.123 15.808C145.123 14.448 144.307 13.712 142.355 13.28C141.027 12.976 140.691 12.688 140.691 12.192C140.691 11.664 141.155 11.376 142.035 11.376C142.899 11.376 143.763 11.648 144.755 12.096V10.432C144.147 10.096 143.139 9.84 142.051 9.84C140.147 9.84 139.027 10.72 139.027 12.192C139.027 13.488 139.763 14.256 141.699 14.688C143.011 14.992 143.427 15.296 143.427 15.808C143.427 16.336 142.947 16.704 142.051 16.704C141.011 16.704 139.811 16.32 139.107 15.92V17.632C139.731 17.952 140.755 18.24 142.003 18.24C144.227 18.24 145.123 17.232 145.123 15.808Z" fill="#344563"/>
<path d="M152.391 16.256C151.911 16.432 151.415 16.544 150.583 16.544C148.695 16.544 147.911 15.408 147.911 14.032C147.911 12.656 148.679 11.488 150.535 11.488C151.287 11.488 151.831 11.648 152.359 11.888V10.256C151.703 9.952 151.127 9.84 150.343 9.84C147.495 9.84 146.151 11.584 146.151 14.032C146.151 16.496 147.495 18.24 150.391 18.24C151.159 18.24 151.895 18.112 152.391 17.84V16.256Z" fill="#344563"/>
<path d="M157.322 18.256C159.77 18.256 161.21 16.48 161.21 14.032C161.21 11.568 159.77 9.84 157.322 9.84C154.858 9.84 153.418 11.568 153.418 14.032C153.418 16.48 154.858 18.256 157.322 18.256ZM157.322 11.456C158.794 11.456 159.434 12.64 159.434 14.032C159.434 15.424 158.794 16.624 157.322 16.624C155.834 16.624 155.178 15.424 155.178 14.032C155.178 12.64 155.834 11.456 157.322 11.456Z" fill="#344563"/>
<path d="M166.831 18.08L169.695 10H167.871L165.615 16.752L163.343 10H161.503L164.367 18.08H166.831Z" fill="#344563"/>
<path d="M173.853 11.312C175.037 11.312 175.645 12.064 175.725 13.456H171.805C171.933 12.144 172.573 11.312 173.853 11.312ZM177.053 17.76V16.208C176.301 16.448 175.453 16.624 174.509 16.624C172.813 16.624 172.013 15.92 171.821 14.688H177.469V14.064C177.469 11.584 176.445 9.84 173.901 9.84C171.389 9.84 170.029 11.6 170.029 14.064C170.029 16.592 171.373 18.24 174.461 18.24C175.341 18.24 176.365 18.096 177.053 17.76Z" fill="#344563"/>
<path d="M180.738 13.536C180.738 12.016 181.682 11.536 183.41 11.696V9.888C181.97 9.808 181.186 10.48 180.738 11.52V10H178.962V18.08H180.738V13.536Z" fill="#344563"/>
<path d="M185.533 21.296C187.581 21.296 188.317 20.128 189.133 17.808L191.949 10H190.077L187.837 16.64L185.581 10H183.725L186.381 17.504H187.549C186.989 19.008 186.525 19.696 185.389 19.696C184.925 19.696 184.413 19.648 183.917 19.504V21.072C184.333 21.232 184.733 21.296 185.533 21.296Z" fill="#344563"/>
<rect x="203.949" y="6" width="36" height="16" rx="3" fill="#DEEBFF"/>
<path d="M212.441 14.799C213.299 14.799 213.651 15.162 213.651 15.8C213.651 16.537 213.277 16.856 212.463 16.856H210.549V14.799H212.441ZM212.122 11.895C212.881 11.895 213.244 12.192 213.244 12.874C213.244 13.468 212.914 13.831 212.122 13.831H210.549V11.895H212.122ZM209.229 18H212.43C214.124 18 214.938 17.186 214.938 15.976C214.938 15.019 214.443 14.469 213.42 14.271C214.179 14.04 214.553 13.501 214.553 12.665C214.553 11.499 213.805 10.773 212.254 10.773H209.229V18Z" fill="#0747A6"/>
<path d="M216.693 18H221.654V16.79H218.013V14.975H221.214V13.864H218.013V11.983H221.588V10.773H216.693V18Z" fill="#0747A6"/>
<path d="M222.852 10.773V11.983H224.854V18H226.185V11.983H228.187V10.773H222.852Z" fill="#0747A6"/>
<path d="M234.343 18H235.773L233.221 10.773H231.153L228.601 18H230.031L230.537 16.471H233.837L234.343 18ZM233.452 15.305H230.922L232.187 11.477L233.452 15.305Z" fill="#0747A6"/>
<defs>
<linearGradient id="paint0_linear_528_4736" x1="14" y1="0" x2="14" y2="28" gradientUnits="userSpaceOnUse">
<stop stop-color="#87BBFF"/>
<stop offset="0.983663" stop-color="#2684FF"/>
</linearGradient>
<radialGradient id="paint1_radial_528_4736" cx="0" cy="0" r="1" gradientUnits="userSpaceOnUse" gradientTransform="translate(13.7846 13.7846) rotate(90) scale(13.7846)">
<stop stop-color="#DEEBFF" stop-opacity="0"/>
<stop offset="1" stop-color="#DEEBFF"/>
</radialGradient>
<linearGradient id="paint2_linear_528_4736" x1="18.2398" y1="9.98125" x2="14.7922" y2="13.5417" gradientUnits="userSpaceOnUse">
<stop offset="0.176" stop-color="white" stop-opacity="0.4"/>
<stop offset="1" stop-color="white"/>
</linearGradient>
<linearGradient id="paint3_linear_528_4736" x1="14.3345" y1="14.16" x2="10.348" y2="18.0443" gradientUnits="userSpaceOnUse">
<stop offset="0.176" stop-color="white" stop-opacity="0.4"/>
<stop offset="1" stop-color="white"/>
</linearGradient>
</defs>
</svg>
