<svg width="854" height="440" viewBox="0 0 854 440" fill="none" xmlns="http://www.w3.org/2000/svg">
<mask id="mask0" mask-type="alpha" maskUnits="userSpaceOnUse" x="0" y="0" width="854" height="440">
<rect x="0.98584" y="0.0759277" width="853.014" height="439.129" fill="#C4C4C4"/>
</mask>
<g mask="url(#mask0)">
<path d="M137.072 186.01C136.22 183.284 134.176 181.07 131.621 179.707L79.6719 154.84C78.3093 154.159 76.7764 153.988 75.4138 153.988C74.0512 153.988 72.5182 153.988 71.1556 154.329L19.2063 179.367C16.6514 180.559 14.7779 182.773 14.0965 185.669L1.1518 241.706C0.640821 244.602 1.32212 247.497 3.02538 249.882L38.9641 294.337C41.008 296.381 43.9035 297.743 46.7991 297.913H104.199C107.265 298.254 110.16 296.892 112.034 294.337L147.973 249.882C149.676 247.497 150.357 244.602 150.016 241.706L137.072 186.01Z" fill="#326DE6"/>
<path d="M128.896 239.491C128.725 239.491 128.725 239.491 128.725 239.321C128.725 239.151 128.214 239.151 128.044 239.151C127.363 238.98 126.681 238.98 126 238.98C125.659 238.98 125.319 238.98 124.978 238.81H124.808C122.934 238.64 120.89 238.299 119.017 237.788C118.506 237.618 117.995 237.107 117.824 236.596C117.824 236.426 117.654 236.426 117.654 236.426L116.291 236.085C116.973 231.145 116.632 226.036 115.61 221.096C114.418 216.157 112.374 211.388 109.649 207.13L110.671 206.108V205.937C110.671 205.426 110.841 204.745 111.182 204.404C112.715 203.212 114.248 202.02 115.951 201.168C116.291 200.998 116.632 200.827 116.973 200.657C117.654 200.316 118.165 199.976 118.846 199.635C119.017 199.465 119.187 199.465 119.357 199.295C119.528 199.124 119.528 199.124 119.528 199.124C121.061 197.932 121.401 195.888 120.209 194.355C119.698 193.674 118.676 193.163 117.824 193.163C116.973 193.163 116.121 193.503 115.44 194.014L115.269 194.185C115.099 194.355 114.929 194.525 114.758 194.525C114.248 195.036 113.737 195.547 113.396 196.058C113.226 196.399 112.885 196.569 112.715 196.74C111.352 198.102 109.989 199.465 108.456 200.487C108.116 200.657 107.775 200.827 107.434 200.827C107.264 200.827 106.924 200.827 106.753 200.657V200.657L105.391 201.679C104.028 200.316 102.495 198.954 101.132 197.591C94.8304 192.652 86.9954 189.586 78.9901 188.734L78.8198 187.372L78.6494 187.201C78.1385 186.861 77.9681 186.35 77.7978 185.839C77.7978 183.965 77.7978 182.092 78.1385 180.048V179.877C78.1385 179.537 78.3088 179.196 78.3088 178.855C78.4791 178.174 78.4791 177.493 78.6494 176.812V175.79C78.8198 174.086 77.4572 172.383 75.7539 172.383C74.732 172.383 73.71 172.724 73.0287 173.405C72.3474 174.086 72.0067 174.938 72.0067 175.79V176.641C72.0067 177.323 72.1771 178.004 72.3474 178.685C72.5177 179.026 72.5177 179.366 72.5177 179.707V179.877C72.8584 181.751 72.8584 183.625 72.8584 185.668C72.688 186.179 72.5177 186.69 72.0067 187.031L71.8364 187.201L71.6661 188.564C69.7925 188.734 67.9189 189.075 65.875 189.416C57.8697 191.119 50.5457 195.377 44.925 201.338L43.903 200.657H43.7327C43.5624 200.657 43.392 200.827 43.0514 200.827C42.7107 200.827 42.1997 200.657 42.0294 200.487C40.4965 199.295 39.1339 197.932 37.7713 196.569C37.601 196.229 37.2603 196.058 37.09 195.888C36.579 195.377 36.2383 194.866 35.7274 194.355C35.557 194.185 35.3867 194.185 35.2164 194.014C35.0461 193.844 35.0461 193.844 35.0461 193.844C34.3648 193.333 33.5131 192.992 32.6615 192.992C31.6396 192.992 30.7879 193.333 30.1066 194.185C29.0847 195.718 29.4253 197.762 30.7879 198.954C30.9583 198.954 30.9583 199.124 30.9583 199.124C30.9583 199.124 31.2989 199.465 31.4692 199.465C31.9802 199.805 32.6615 200.146 33.3428 200.487C33.6835 200.657 34.0241 200.827 34.3648 200.998C36.068 202.02 37.601 203.042 39.1339 204.234C39.4745 204.575 39.8152 205.256 39.6449 205.767V205.937L40.6668 206.959C40.4965 207.3 40.3262 207.47 40.1558 207.811C34.8757 216.157 32.8318 226.036 34.3648 235.744L33.0022 236.085C33.0022 236.255 32.8318 236.255 32.8318 236.255C32.6615 236.766 32.1505 237.107 31.6396 237.447C29.766 237.958 27.8924 238.299 25.8485 238.469H25.6782C25.3375 238.469 24.9969 238.469 24.6562 238.64C23.9749 238.64 23.2936 238.81 22.6123 238.81C22.442 238.81 22.2716 238.98 21.931 238.98C21.7607 238.98 21.7607 238.98 21.5903 239.151C19.7168 239.491 18.5245 241.195 18.8651 243.068C19.2058 244.601 20.7387 245.623 22.2716 245.453C22.6123 245.453 22.7826 245.453 23.1233 245.282C23.2936 245.282 23.2936 245.282 23.2936 245.112C23.2936 244.942 23.6342 244.942 23.9749 244.942C24.6562 244.771 25.3375 244.431 25.8485 244.261C26.1891 244.09 26.5298 243.92 26.8704 243.92H27.0408C28.744 243.239 30.6176 242.728 32.4912 242.387H32.6615C33.1725 242.387 33.6835 242.557 34.0241 242.898C34.1944 242.898 34.1944 243.068 34.1944 243.068L35.7274 242.898C38.2823 250.733 43.0514 257.716 49.6941 262.826C51.227 264.018 52.5896 265.04 54.2929 265.892L53.6116 267.254C53.6116 267.425 53.7819 267.425 53.7819 267.425C54.1225 267.936 54.1225 268.617 53.9522 269.128C53.2709 270.831 52.249 272.535 51.227 274.067V274.238C51.0567 274.578 50.8864 274.749 50.5457 275.089C50.2051 275.43 49.8644 276.111 49.3534 276.793C49.1831 276.963 49.1831 277.133 49.0128 277.304C49.0128 277.304 49.0128 277.474 48.8425 277.474C47.9908 279.177 48.6721 281.221 50.2051 282.073C50.5457 282.243 51.0567 282.413 51.5677 282.413C52.9303 282.413 54.1225 281.562 54.8039 280.37C54.8039 280.37 54.8039 280.199 54.9742 280.199C54.9742 280.029 55.1445 279.859 55.3148 279.688C55.4852 279.007 55.8258 278.496 55.9961 277.815L56.3368 276.793C56.8478 274.919 57.6994 273.216 58.551 271.513C58.8917 271.002 59.4026 270.661 59.9136 270.491C60.0839 270.491 60.0839 270.491 60.0839 270.32L60.7653 268.958C65.5344 270.831 70.4738 271.683 75.5836 271.683C78.6494 271.683 81.7153 271.342 84.7812 270.661C86.6547 270.32 88.5283 269.639 90.2316 269.128L90.9129 270.32C91.0832 270.32 91.0832 270.32 91.0832 270.491C91.5942 270.661 92.1052 271.002 92.4458 271.513C93.2975 273.216 93.9788 274.919 94.6601 276.622V276.793L95.0007 277.815C95.171 278.496 95.3414 279.177 95.682 279.688C95.8523 279.859 95.8523 280.029 96.0227 280.199C96.0227 280.199 96.0227 280.37 96.193 280.37C96.8743 281.562 98.0666 282.413 99.4292 282.413C99.9402 282.413 100.281 282.243 100.792 282.073C101.473 281.732 102.154 281.051 102.325 280.199C102.495 279.348 102.495 278.326 102.154 277.474C102.154 277.304 101.984 277.304 101.984 277.304C101.984 277.133 101.814 276.963 101.643 276.793C101.303 276.111 100.962 275.6 100.451 275.089C100.281 274.749 100.11 274.578 99.7698 274.238V274.067C98.5776 272.535 97.7259 270.831 97.0446 269.128C96.8743 268.617 96.8743 267.936 97.2149 267.425C97.2149 267.254 97.3853 267.254 97.3853 267.254L96.8743 265.892C105.731 260.612 112.204 252.436 115.44 242.728L116.802 242.898C116.973 242.898 116.973 242.728 116.973 242.728C117.313 242.387 117.824 242.217 118.335 242.217H118.506C120.379 242.557 122.253 243.068 123.956 243.75H124.126C124.467 243.92 124.808 244.09 125.148 244.09C125.83 244.431 126.341 244.601 127.022 244.771C127.192 244.771 127.363 244.942 127.703 244.942C127.874 244.942 127.874 244.942 128.044 245.112C128.385 245.282 128.555 245.282 128.896 245.282C130.428 245.282 131.791 244.261 132.302 242.898C131.791 241.195 130.599 239.832 128.896 239.491ZM79.8417 234.211L75.2429 236.426L70.6441 234.211L69.2815 229.272L72.5177 225.184H77.7978L81.034 229.272L79.8417 234.211ZM107.605 223.14C108.456 226.717 108.627 230.294 108.286 233.871L92.1052 229.272C90.5722 228.931 89.7206 227.398 90.0613 225.865C90.2316 225.354 90.4019 225.014 90.7426 224.673L103.517 213.091C105.391 216.157 106.753 219.563 107.605 223.14ZM98.4072 206.789L84.6108 216.668C83.4186 217.349 81.7153 217.179 80.8637 215.986C80.523 215.646 80.3527 215.305 80.3527 214.794L79.3307 197.591C86.4844 198.443 93.2975 201.679 98.4072 206.789ZM67.5783 198.102L70.9848 197.421L69.9628 214.454C69.9628 215.986 68.6002 217.179 67.0673 217.179C66.5563 217.179 66.2157 217.008 65.7047 216.838L51.9083 206.789C56.1665 202.531 61.6169 199.465 67.5783 198.102ZM46.7985 213.091L59.4026 224.332C60.5949 225.354 60.7653 227.058 59.7433 228.25C59.4026 228.761 59.062 228.931 58.3807 229.102L42.0294 233.871C41.3481 226.717 43.0514 219.393 46.7985 213.091ZM43.903 241.876L60.7653 238.98C62.1279 238.98 63.4905 239.832 63.6608 241.195C63.8311 241.706 63.8311 242.387 63.4905 242.898L57.0181 258.568C51.0567 254.65 46.2876 248.689 43.903 241.876ZM82.5669 262.996C80.1824 263.507 77.6275 263.848 75.0726 263.848C71.4958 263.848 67.7486 263.167 64.3421 262.145L72.688 246.986C73.5397 245.964 74.9023 245.623 76.0946 246.304C76.6055 246.645 76.9462 246.986 77.4572 247.497L85.6328 262.315C84.7812 262.485 83.7592 262.656 82.5669 262.996ZM103.347 248.178C100.792 252.266 97.2149 255.843 93.1271 258.398L86.4844 242.557C86.1438 241.195 86.6548 239.832 88.0174 239.151C88.5283 238.98 89.0393 238.81 89.5503 238.81L106.583 241.706C105.731 244.09 104.709 246.304 103.347 248.178Z" fill="white"/>
<path d="M215.253 232.167C217.127 230.123 218.83 228.079 220.874 226.035C222.747 223.821 224.621 221.777 226.495 219.733C228.368 217.519 230.072 215.645 231.604 213.772C233.137 211.898 234.67 210.195 235.863 208.832H257.664C253.236 213.772 248.978 218.711 244.89 223.31C240.632 227.909 236.203 232.678 231.264 237.447C233.989 240.002 236.544 242.557 238.928 245.452C241.483 248.518 244.038 251.584 246.593 254.991C248.978 258.227 251.362 261.633 253.406 264.869C255.45 268.106 257.153 271.171 258.516 273.897H237.566C236.203 271.682 234.67 269.468 232.967 266.913C231.264 264.358 229.39 261.804 227.687 259.078C225.813 256.523 223.769 253.969 221.555 251.584C219.682 249.37 217.638 247.326 215.423 245.623V274.067H197.028V180.729L215.423 177.833V232.167" fill="#326DE5"/>
<path d="M322.389 271.343C318.472 272.365 314.384 273.217 310.296 273.728C305.186 274.579 299.906 274.92 294.796 274.92C290.027 275.09 285.429 274.238 281 272.706C277.594 271.343 274.698 269.299 272.313 266.574C270.099 263.678 268.566 260.442 267.715 256.865C266.693 252.948 266.352 248.69 266.352 244.602V208.663H284.747V242.558C284.747 248.519 285.599 252.777 287.132 255.332C288.665 257.887 291.56 259.25 295.818 259.42C297.181 259.42 298.544 259.42 300.077 259.25C301.609 259.079 302.802 259.079 303.994 258.739V208.663H322.389V271.343Z" fill="#326DE5"/>
<path d="M381.323 240.683C381.323 228.76 376.894 222.969 368.208 222.969C366.334 222.969 364.46 223.14 362.587 223.651C361.054 223.991 359.521 224.673 358.158 225.524V258.908C359.01 259.078 360.202 259.249 361.565 259.419C362.928 259.589 364.461 259.589 366.164 259.589C370.592 259.93 374.85 258.056 377.576 254.48C380.13 250.392 381.493 245.623 381.323 240.683ZM400.059 241.364C400.059 246.134 399.377 250.903 397.674 255.502C396.311 259.589 394.097 263.166 391.202 266.232C388.136 269.298 384.559 271.682 380.641 273.215C376.043 274.919 371.274 275.6 366.334 275.6C364.12 275.6 361.735 275.43 359.351 275.259C356.966 275.089 354.582 274.748 352.197 274.578C349.983 274.237 347.769 273.897 345.554 273.386C343.34 273.045 341.467 272.364 339.934 271.682V180.729L358.329 177.833V210.195C360.373 209.343 362.587 208.662 364.801 208.151C367.186 207.64 369.57 207.47 371.955 207.47C376.213 207.47 380.301 208.151 384.218 210.025C387.625 211.557 390.691 213.942 393.075 216.838C395.63 220.074 397.504 223.651 398.526 227.568C399.548 231.826 400.229 236.595 400.059 241.364Z" fill="#326DE5"/>
<path d="M411.127 241.706C410.957 236.597 411.978 231.487 413.682 226.718C415.215 222.63 417.599 219.053 420.665 215.817C423.561 212.921 426.797 210.707 430.544 209.345C434.291 207.812 438.209 207.13 442.126 207.13C451.324 207.13 458.648 210.026 463.928 215.647C469.208 221.267 471.933 229.613 471.933 240.514C471.933 241.536 471.933 242.728 471.763 244.091C471.592 245.454 471.592 246.476 471.592 247.498H429.863C430.203 251.074 432.077 254.311 435.143 256.354C438.89 258.739 443.318 259.931 447.747 259.761C450.983 259.761 454.39 259.42 457.626 258.909C460.351 258.398 463.076 257.547 465.631 256.525L468.186 271.513C466.994 272.195 465.631 272.535 464.268 273.046C462.395 273.557 460.521 274.068 458.648 274.239C456.604 274.579 454.56 274.92 452.175 275.261C449.961 275.431 447.577 275.601 445.192 275.601C439.912 275.772 434.802 274.92 429.863 273.046C425.775 271.513 422.198 269.129 419.132 266.063C416.237 262.997 414.193 259.25 412.83 255.333C411.808 250.734 411.127 246.135 411.127 241.706ZM454.219 234.723C454.219 233.19 453.879 231.657 453.368 230.124C453.027 228.591 452.175 227.399 451.324 226.207C450.302 225.015 449.109 223.993 447.747 223.311C446.044 222.46 444.34 222.119 442.467 222.119C440.593 222.119 438.89 222.46 437.187 223.311C435.824 223.993 434.461 224.844 433.44 226.037C432.418 227.229 431.566 228.591 431.055 230.124C430.544 231.657 430.203 233.19 430.033 234.723H454.219Z" fill="#326DE5"/>
<path d="M525.415 225.014C523.711 224.673 521.838 224.162 519.624 223.821C517.239 223.31 514.855 223.14 512.47 223.14C511.107 223.14 509.745 223.31 508.212 223.481C507.02 223.651 505.827 223.821 504.635 224.162V273.727H486.24V212.069C489.987 210.706 493.904 209.684 497.822 208.833C502.761 207.64 507.871 207.129 512.811 207.3C514.003 207.3 515.195 207.47 516.387 207.47C517.75 207.47 519.113 207.64 520.646 207.981C522.008 208.151 523.371 208.322 524.904 208.662C526.096 208.833 527.288 209.173 528.481 209.684L525.415 225.014Z" fill="#326DE5"/>
<path d="M538.359 210.876C542.276 209.854 546.364 209.002 550.452 208.321C555.562 207.47 560.842 207.129 565.952 207.129C570.55 206.959 575.149 207.81 579.578 209.343C582.984 210.535 586.05 212.579 588.264 215.305C590.478 218.03 592.011 221.266 592.863 224.672C593.885 228.59 594.226 232.678 594.226 236.766V273.386H575.83V239.15C575.83 233.189 574.979 229.101 573.446 226.546C571.913 224.161 569.017 222.799 564.759 222.799C563.397 222.799 562.034 222.799 560.501 222.969C558.968 222.969 557.776 223.14 556.584 223.31V273.386H538.188L538.359 210.876Z" fill="#326DE5"/>
<path d="M608.192 241.706C608.022 236.597 609.044 231.487 610.747 226.718C612.28 222.63 614.664 219.053 617.73 215.817C620.626 212.921 623.862 210.707 627.609 209.345C631.356 207.812 635.274 207.13 639.191 207.13C648.389 207.13 655.713 210.026 660.993 215.647C666.273 221.267 668.998 229.613 668.998 240.514C668.998 241.536 668.998 242.728 668.828 244.091C668.828 245.454 668.658 246.476 668.658 247.498H626.928C627.268 251.074 629.142 254.311 632.208 256.354C635.955 258.739 640.383 259.931 644.812 259.761C648.048 259.761 651.455 259.42 654.691 258.909C657.416 258.398 660.141 257.547 662.696 256.525L665.251 271.513C664.059 272.195 662.696 272.535 661.334 273.046C659.46 273.557 657.586 274.068 655.713 274.239C653.669 274.579 651.625 274.92 649.24 275.261C647.026 275.431 644.642 275.601 642.257 275.601C636.977 275.772 631.867 274.92 626.928 273.046C622.84 271.513 619.263 269.129 616.197 266.063C613.302 262.997 611.258 259.25 609.895 255.333C608.703 250.734 608.022 246.135 608.192 241.706ZM651.284 234.723C651.284 233.19 650.944 231.657 650.433 230.124C650.092 228.591 649.411 227.229 648.389 226.037C647.367 224.844 646.175 223.822 644.812 223.141C643.109 222.289 641.405 221.949 639.532 221.949C637.658 221.949 635.955 222.289 634.252 223.141C632.889 223.822 631.527 224.674 630.505 225.866C629.483 227.058 628.631 228.421 628.12 229.954C627.609 231.487 627.268 233.02 627.098 234.553L651.284 234.723Z" fill="#326DE5"/>
<path d="M682.627 192.481L701.022 189.586V208.662H723.164V223.991H701.022V246.815C700.851 250.051 701.533 253.287 703.066 256.013C704.428 258.227 707.153 259.419 711.412 259.419C713.455 259.419 715.499 259.249 717.373 258.908C719.417 258.568 721.29 258.057 723.164 257.375L725.719 271.683C723.334 272.705 720.78 273.386 718.225 274.067C714.988 274.749 711.582 275.089 708.175 275.089C703.917 275.26 699.659 274.578 695.742 273.045C692.676 271.853 689.951 269.809 687.907 267.425C685.863 264.87 684.5 261.804 683.649 258.568C682.797 254.82 682.456 250.903 682.627 247.156V192.481Z" fill="#326DE5"/>
<path d="M732.53 241.706C732.36 236.597 733.382 231.487 735.085 226.718C736.618 222.63 739.003 219.053 742.068 215.817C744.964 212.921 748.2 210.707 751.947 209.345C755.694 207.812 759.612 207.13 763.529 207.13C772.727 207.13 780.051 210.026 785.331 215.647C790.611 221.267 793.336 229.613 793.336 240.514C793.336 241.536 793.336 242.728 793.166 244.091C793.166 245.454 792.996 246.476 792.996 247.498H751.266C751.607 251.074 753.651 254.311 756.546 256.354C760.293 258.739 764.722 259.931 769.15 259.761C772.386 259.761 775.793 259.42 779.029 258.909C781.754 258.398 784.479 257.547 787.034 256.525L789.589 271.513C788.397 272.195 787.034 272.535 785.672 273.046C783.798 273.557 781.925 274.068 780.051 274.239C778.007 274.579 775.963 274.92 773.579 275.261C771.364 275.431 768.98 275.601 766.595 275.601C761.315 275.772 756.205 274.92 751.266 273.046C747.178 271.513 743.601 269.129 740.535 266.063C737.64 262.997 735.596 259.25 734.233 255.333C733.211 250.734 732.53 246.135 732.53 241.706ZM775.793 234.723C775.793 233.19 775.452 231.657 774.941 230.124C774.601 228.591 773.749 227.229 772.897 226.037C771.875 224.844 770.683 223.822 769.321 223.141C767.617 222.289 765.914 221.949 764.04 221.949C762.167 221.949 760.464 222.289 758.76 223.141C757.398 223.822 756.035 224.674 755.013 225.866C753.991 227.058 753.14 228.421 752.629 229.954C752.118 231.487 751.777 233.02 751.607 234.553L775.793 234.723Z" fill="#326DE5"/>
<path d="M826.382 260.442C828.767 260.613 831.322 260.272 833.536 259.42C834.899 258.739 835.75 257.206 835.58 255.673C835.41 253.97 834.388 252.437 832.855 251.926C830.3 250.393 827.404 249.03 824.509 248.179C821.613 247.157 819.058 245.965 816.674 244.772C814.46 243.75 812.586 242.388 810.712 240.685C809.009 238.981 807.817 237.108 806.965 234.893C805.943 232.339 805.603 229.613 805.603 226.888C805.432 221.267 807.987 215.817 812.416 212.41C817.014 208.834 823.146 207.13 830.981 207.13C834.728 207.13 838.646 207.471 842.393 208.152C845.289 208.663 848.184 209.345 851.08 210.367L847.843 224.674C845.459 223.822 843.245 223.311 840.86 222.63C838.135 222.119 835.239 221.778 832.514 221.949C826.723 221.949 823.828 223.482 823.828 226.718C823.828 227.399 823.998 228.08 824.168 228.762C824.509 229.443 825.02 229.954 825.701 230.465C826.382 230.976 827.404 231.487 828.597 232.168C829.789 232.85 831.492 233.531 833.536 234.212C836.943 235.404 840.349 236.937 843.585 238.641C845.97 239.833 848.014 241.366 849.717 243.41C851.25 244.943 852.272 246.987 852.953 249.03C853.635 251.415 853.975 253.8 853.975 256.184C854.316 261.975 851.591 267.596 846.651 270.832C841.882 274.068 835.069 275.772 826.212 275.772C821.273 275.942 816.504 275.431 811.734 274.239C809.009 273.557 806.454 272.706 803.899 271.854L806.965 256.865C810.031 258.058 813.267 259.08 816.504 259.761C819.569 260.102 822.806 260.442 826.382 260.442Z" fill="#326DE5"/>
</g>
</svg>
