<svg width="806" height="440" viewBox="0 0 806 440" fill="none" xmlns="http://www.w3.org/2000/svg">
<mask id="mask0" mask-type="alpha" maskUnits="userSpaceOnUse" x="0" y="0" width="806" height="440">
<rect x="0.322266" y="0.276367" width="804.785" height="439.129" fill="#C4C4C4"/>
</mask>
<g mask="url(#mask0)">
<path d="M281.657 272.047L259.638 225.893C254.382 214.987 248.983 202.598 247.14 196.774L246.715 197.2C247.424 205.434 247.566 215.805 247.707 224.464L248.274 272.047H232.232V173.763H250.696L274.558 221.749C278.557 229.907 281.929 238.358 284.646 247.029L285.071 246.603C284.646 241.63 283.653 227.573 283.653 218.619L283.37 173.741H298.856V272.025L281.657 272.047Z" fill="black"/>
<path d="M328.093 240.378V241.468C328.093 251.414 331.79 261.917 345.848 261.917C352.522 261.917 358.346 259.507 363.744 254.817L369.851 264.338C362.689 270.564 353.494 273.951 344.004 273.859C323.698 273.859 310.916 259.234 310.916 236.223C310.916 223.583 313.61 215.196 319.87 208.096C325.693 201.422 332.793 198.434 341.889 198.434C349.183 198.204 356.275 200.856 361.628 205.817C367.877 211.499 371.007 220.3 371.007 237.062V240.334L328.093 240.378ZM341.867 210.267C333.066 210.267 328.235 217.225 328.235 228.872H354.79C354.79 217.246 349.686 210.267 341.867 210.267Z" fill="black"/>
<path d="M454.122 272.331H439.443L430.642 239.242C428.373 230.725 425.952 219.612 425.952 219.612H425.669C425.669 219.612 424.578 226.711 420.979 239.919L412.32 272.298H397.684L378.054 201.137L393.54 198.956L401.349 233.757C403.334 242.7 405.046 252.646 405.046 252.646H405.471C406.518 246.142 407.894 239.696 409.594 233.331L418.831 200.101H434.175L442.278 232.513C445.267 244.161 446.826 252.962 446.826 252.962H447.251C447.251 252.962 448.953 242.056 450.807 233.648L458.19 200.123H474.385L454.122 272.331Z" fill="black"/>
<path d="M565.417 272.047L556.899 256.845C550.094 244.783 545.536 237.967 540.137 232.514C539.349 231.587 538.367 230.844 537.261 230.337C536.155 229.83 534.952 229.572 533.735 229.58V272.047H517.693V173.764H547.662C569.681 173.764 579.616 186.545 579.616 201.89C579.616 215.948 570.532 228.882 555.187 228.882C558.743 230.725 565.275 240.246 570.379 248.513L584.862 272.091L565.417 272.047ZM542.689 186.982H533.735V218.085H542.111C550.629 218.085 555.198 216.995 558.165 213.963C560.858 211.269 562.527 207.147 562.527 202.032C562.581 192.086 557.183 186.971 542.689 186.971V186.982Z" fill="black"/>
<path d="M606.313 240.378V241.468C606.313 251.414 610.01 261.917 624.068 261.917C630.742 261.917 636.566 259.507 641.964 254.817L648.072 264.338C640.909 270.564 631.714 273.951 622.225 273.859C601.918 273.859 589.136 259.234 589.136 236.223C589.136 223.583 591.83 215.196 598.09 208.096C603.914 201.422 611.013 198.434 620.109 198.434C627.404 198.204 634.495 200.856 639.849 205.817C646.098 211.499 649.228 220.3 649.228 237.062V240.334L606.313 240.378ZM620.098 210.267C611.297 210.267 606.466 217.225 606.466 228.872H632.978C632.978 217.246 627.907 210.267 620.098 210.267Z" fill="black"/>
<path d="M678.466 273.618C662.696 273.618 662.696 259.44 662.696 253.311V192.086C662.878 185.054 662.422 178.02 661.333 171.07L677.386 167.515C678.477 171.877 678.662 177.886 678.662 187.254V248.185C678.662 257.848 679.088 259.408 680.222 261.109C680.842 261.819 681.676 262.309 682.598 262.506C683.52 262.702 684.481 262.595 685.337 262.199L687.889 271.862C684.894 273.063 681.692 273.659 678.466 273.618Z" fill="black"/>
<path d="M705.589 189.535C704.244 189.523 702.915 189.244 701.678 188.714C700.441 188.185 699.322 187.416 698.384 186.452C697.446 185.488 696.708 184.347 696.214 183.096C695.719 181.845 695.477 180.509 695.501 179.164C695.517 177.122 696.139 175.132 697.289 173.444C698.439 171.757 700.064 170.45 701.959 169.689C703.853 168.928 705.931 168.748 707.929 169.171C709.926 169.593 711.752 170.601 713.176 172.064C714.6 173.528 715.556 175.382 715.923 177.39C716.29 179.398 716.052 181.47 715.239 183.343C714.426 185.216 713.074 186.804 711.356 187.907C709.638 189.01 707.63 189.577 705.589 189.535V189.535ZM697.78 272.06V201.325L713.55 198.478V272.049L697.78 272.06Z" fill="black"/>
<path d="M758.286 273.903C738.656 273.903 727.75 260.128 727.75 236.975C727.75 210.801 743.378 198.347 759.377 198.347C767.186 198.347 772.868 200.19 779.258 206.155L771.483 216.516C767.218 212.677 763.532 210.976 759.41 210.976C757.014 210.935 754.659 211.6 752.639 212.888C750.618 214.175 749.021 216.029 748.046 218.217C745.865 222.58 745.069 229.298 745.069 238.24C745.069 248.056 746.628 254.294 749.9 257.871C751.104 259.193 752.576 260.244 754.217 260.955C755.859 261.666 757.632 262.02 759.421 261.993C764.394 261.993 769.236 259.583 773.904 254.894L781.287 264.414C774.754 270.914 767.938 273.903 758.286 273.903Z" fill="black"/>
<path d="M794.616 273.629C792.528 273.64 790.483 273.03 788.742 271.878C787 270.726 785.64 269.083 784.834 267.157C784.027 265.231 783.81 263.108 784.211 261.059C784.612 259.01 785.612 257.126 787.085 255.645C788.557 254.165 790.436 253.155 792.484 252.744C794.531 252.332 796.654 252.538 798.584 253.335C800.514 254.131 802.165 255.483 803.326 257.218C804.487 258.954 805.107 260.995 805.107 263.083C805.113 264.465 804.846 265.834 804.321 267.113C803.797 268.391 803.025 269.554 802.05 270.534C801.076 271.513 799.917 272.291 798.641 272.822C797.366 273.353 795.998 273.627 794.616 273.629V273.629ZM794.616 254.631C792.922 254.557 791.246 254.992 789.802 255.879C788.358 256.767 787.213 258.067 786.514 259.611C785.816 261.155 785.596 262.874 785.883 264.544C786.17 266.215 786.95 267.761 788.124 268.984C789.298 270.206 790.811 271.049 792.468 271.404C794.126 271.759 795.852 271.609 797.423 270.975C798.995 270.34 800.34 269.249 801.286 267.842C802.232 266.436 802.735 264.778 802.73 263.083C802.76 261.993 802.574 260.907 802.181 259.889C801.788 258.872 801.197 257.942 800.442 257.155C799.688 256.367 798.784 255.738 797.783 255.303C796.783 254.867 795.706 254.635 794.616 254.62V254.631ZM796.688 268.928C796.23 268.132 796.033 267.838 795.597 266.965C794.43 264.839 794.07 264.239 793.645 264.075C793.53 264.017 793.403 263.987 793.274 263.988V268.928H790.951V257.096H795.314C795.777 257.064 796.242 257.131 796.678 257.293C797.114 257.455 797.51 257.708 797.84 258.035C798.17 258.362 798.427 258.756 798.593 259.19C798.759 259.624 798.831 260.089 798.803 260.553C798.872 261.334 798.635 262.11 798.143 262.72C797.651 263.33 796.942 263.726 796.164 263.825C796.346 263.974 796.507 264.146 796.644 264.337C797.32 265.188 799.48 268.928 799.48 268.928H796.688ZM795.477 259.168C795.044 259.047 794.596 258.988 794.147 258.993H793.296V262.2H794.092C795.117 262.2 795.564 262.08 795.881 261.796C796.185 261.476 796.349 261.049 796.339 260.607C796.371 260.306 796.304 260.003 796.148 259.744C795.993 259.484 795.757 259.282 795.477 259.168V259.168Z" fill="black"/>
<path d="M176.808 211.596C168.465 173.261 122.497 150.719 74.1183 161.232C25.7398 171.746 -6.70512 211.356 1.62697 249.679C9.95905 288.002 55.9382 310.566 104.306 300.042C152.673 289.518 185.14 249.962 176.808 211.596ZM89.2229 265.972C82.2343 265.972 75.4026 263.9 69.5918 260.017C63.781 256.135 59.252 250.616 56.5776 244.159C53.9032 237.703 53.2034 230.598 54.5668 223.744C55.9303 216.889 59.2956 210.593 64.2373 205.652C69.179 200.71 75.4751 197.345 82.3294 195.981C89.1837 194.618 96.2884 195.318 102.745 197.992C109.202 200.666 114.72 205.195 118.603 211.006C122.486 216.817 124.558 223.649 124.558 230.637C124.558 235.278 123.644 239.872 121.868 244.159C120.092 248.446 117.49 252.342 114.209 255.623C110.927 258.904 107.032 261.507 102.745 263.283C98.458 265.058 93.8632 265.972 89.2229 265.972V265.972Z" fill="#008C99"/>
<path d="M97.0294 181.169C86.9956 181.171 77.1877 184.148 68.846 189.724C60.5042 195.301 54.0032 203.225 50.1649 212.496C46.3267 221.766 45.3235 231.967 47.2823 241.807C49.2412 251.648 54.074 260.687 61.1697 267.781C68.2654 274.876 77.3054 279.706 87.1466 281.663C96.9877 283.62 107.188 282.614 116.458 278.774C125.728 274.934 133.651 268.431 139.225 260.088C144.799 251.745 147.774 241.937 147.774 231.903C147.774 225.24 146.462 218.641 143.911 212.485C141.361 206.329 137.623 200.736 132.911 196.025C128.199 191.314 122.604 187.577 116.448 185.028C110.291 182.479 103.693 181.168 97.0294 181.169V181.169ZM89.2099 261.502C83.1056 261.502 77.1385 259.691 72.063 256.3C66.9875 252.909 63.0316 248.089 60.6956 242.449C58.3596 236.809 57.7484 230.604 58.9393 224.617C60.1302 218.63 63.0696 213.13 67.386 208.814C71.7024 204.498 77.2017 201.558 83.1887 200.367C89.1756 199.177 95.3813 199.788 101.021 202.124C106.66 204.46 111.481 208.416 114.872 213.491C118.263 218.567 120.073 224.534 120.073 230.638C120.073 238.822 116.823 246.67 111.038 252.458C105.252 258.246 97.4044 261.499 89.2208 261.502H89.2099Z" fill="#70CCD3"/>
</g>
</svg>
