<svg width="562" height="440" viewBox="0 0 562 440" fill="none" xmlns="http://www.w3.org/2000/svg">
<mask id="mask0" mask-type="alpha" maskUnits="userSpaceOnUse" x="0" y="0" width="562" height="440">
<rect x="0.322266" y="0.84668" width="561.51" height="439.129" fill="#C4C4C4"/>
</mask>
<g mask="url(#mask0)">
<path d="M38.6162 219.134C51.1847 219.134 61.3735 208.945 61.3735 196.376C61.3735 183.808 51.1847 173.619 38.6162 173.619C26.0477 173.619 15.8589 183.808 15.8589 196.376C15.8589 208.945 26.0477 219.134 38.6162 219.134Z" fill="url(#paint0_linear)"/>
<path d="M36.6786 264.266C21.8096 254.777 9.44802 241.842 0.641927 226.558C0.320175 225.977 0.237452 225.294 0.411325 224.654C0.585197 224.013 1.00197 223.465 1.57314 223.127H1.7007L18.9345 214.669C19.5155 214.386 20.1824 214.334 20.8004 214.523C21.4184 214.713 21.9415 215.13 22.2639 215.69C30.9764 230.294 43.8604 241.956 59.2573 249.175C53.5817 254.899 47.2932 259.981 40.5055 264.33C39.9238 264.673 39.2585 264.849 38.5831 264.838C37.9076 264.826 37.2485 264.629 36.6786 264.266V264.266Z" fill="url(#paint1_linear)"/>
<path d="M40.556 264.266C55.425 254.777 67.7866 241.842 76.5927 226.558C76.9061 225.966 76.9734 225.273 76.78 224.631C76.5866 223.989 76.1481 223.448 75.5594 223.127H75.4446L58.2491 214.606C57.6681 214.322 57.0012 214.27 56.3832 214.46C55.7652 214.649 55.2421 215.066 54.9197 215.626C46.2072 230.23 33.3233 241.892 17.9263 249.112C23.5986 254.84 29.8875 259.922 36.6781 264.266C37.2596 264.629 37.9315 264.822 38.6171 264.822C39.3027 264.822 39.9745 264.629 40.556 264.266V264.266Z" fill="#2684FF"/>
<path d="M107.771 214.337C107.771 192.103 120.527 176.502 143.361 176.502C166.195 176.502 178.888 192.116 178.888 214.337C178.888 236.776 166.131 252.491 143.425 252.491C120.719 252.491 107.771 236.763 107.771 214.337ZM117.874 214.337C117.874 229.938 125.171 242.848 143.387 242.848C161.603 242.848 168.683 229.938 168.683 214.337C168.683 199.03 161.386 186.159 143.323 186.159C125.26 186.159 117.874 199.068 117.874 214.337Z" fill="#253858"/>
<path d="M201.389 241.495V273.258H191.746V195.253H201.389V205.356C204.987 197.945 211.722 194.131 220.358 194.131C235.296 194.131 242.809 206.811 242.809 223.305C242.809 239.135 234.951 252.491 219.248 252.491C211.046 252.491 204.757 248.792 201.389 241.495ZM217.781 203.111C209.145 203.111 201.389 208.609 201.389 221.072V225.562C201.389 238.013 208.469 243.511 216.697 243.511C227.591 243.511 233.204 236.329 233.204 223.305C233.165 209.847 227.77 203.111 217.781 203.111V203.111Z" fill="#253858"/>
<path d="M271.664 252.493C264.92 252.653 258.232 251.234 252.134 248.347V238.142C258.258 241.544 265.108 243.429 272.111 243.64C279.522 243.64 283.336 240.617 283.336 236.228C283.336 231.84 280.084 229.493 269.419 226.916C256.956 223.88 251.688 219.058 251.688 209.861C251.688 200.09 259.201 194.145 272.009 194.145C278.263 194.051 284.451 195.432 290.072 198.176V208.177C283.336 204.809 277.838 203.075 271.894 203.075C264.814 203.075 261 205.537 261 209.925C261 213.854 263.692 216.303 274.024 218.79C286.487 221.814 292.763 226.444 292.763 236.19C292.763 245.426 286.704 252.493 271.664 252.493Z" fill="#253858"/>
<path d="M343.954 241.266C340.357 248.677 333.635 252.491 324.986 252.491C310.163 252.491 302.764 239.811 302.764 223.305C302.764 207.487 310.507 194.131 326.108 194.131C334.298 194.131 340.587 197.83 343.967 205.127V195.253H353.394V246.279C353.394 262.786 345.651 273.896 325.56 273.896C318.774 274.091 312.008 273.067 305.583 270.873V261.433C311.864 263.607 318.455 264.753 325.101 264.827C339.132 264.827 343.954 257.313 343.954 246.866V241.266ZM327.562 243.511C336.211 243.511 343.954 238.013 343.954 225.562V221.072C343.954 208.609 336.887 203.111 328.647 203.111C317.766 203.111 312.153 210.293 312.153 223.305C312.191 236.763 317.574 243.511 327.562 243.511V243.511Z" fill="#253858"/>
<path d="M394.8 252.491C373.816 252.491 364.606 240.373 364.606 223.152C364.606 206.199 374.033 194.08 391.101 194.08C408.386 194.08 415.338 206.084 415.338 223.152V227.578H374.377C375.729 237.12 381.891 243.294 395.145 243.294C400.964 243.289 406.737 242.262 412.2 240.258V249.187C407.608 251.598 400.528 252.491 394.8 252.491ZM374.263 219.325H405.579C405.018 208.877 400.311 202.933 390.654 202.933C380.437 202.882 375.334 209.502 374.263 219.274V219.325Z" fill="#253858"/>
<path d="M474.502 251.367H464.846V217.474C464.846 207.371 460.815 202.88 451.605 202.88C442.675 202.88 436.45 208.825 436.45 220.165V251.367H426.793V195.239H436.45V204.437C438.171 201.252 440.737 198.604 443.865 196.784C446.993 194.963 450.563 194.04 454.181 194.117C467.091 194.117 474.502 203.046 474.502 218.469V251.367Z" fill="#253858"/>
<path d="M492.922 173.695C493.822 173.632 494.725 173.764 495.57 174.08C496.415 174.397 497.182 174.891 497.819 175.53C498.456 176.168 498.949 176.936 499.264 177.782C499.579 178.627 499.709 179.53 499.644 180.43C499.644 182.217 498.935 183.93 497.672 185.193C496.409 186.456 494.695 187.166 492.909 187.166C491.123 187.166 489.41 186.456 488.146 185.193C486.883 183.93 486.174 182.217 486.174 180.43C486.122 179.531 486.261 178.631 486.582 177.789C486.902 176.948 487.398 176.184 488.035 175.547C488.673 174.911 489.438 174.417 490.28 174.098C491.122 173.778 492.023 173.641 492.922 173.695V173.695ZM487.972 195.253H497.629V251.381H487.972V195.253Z" fill="#253858"/>
<path d="M541.293 252.491C520.309 252.491 511.099 240.373 511.099 223.152C511.099 206.199 520.526 194.08 537.594 194.08C554.878 194.08 561.831 206.084 561.831 223.152V227.578H520.87C522.209 237.12 528.383 243.294 541.637 243.294C547.456 243.289 553.229 242.262 558.693 240.258V249.187C554.088 251.598 547.021 252.491 541.293 252.491ZM520.755 219.325H552.072C551.511 208.877 546.791 202.933 537.147 202.933C526.929 202.882 521.763 209.502 520.755 219.274V219.325Z" fill="#253858"/>
</g>
<defs>
<linearGradient id="paint0_linear" x1="38.6162" y1="181.184" x2="38.6162" y2="227.91" gradientUnits="userSpaceOnUse">
<stop stop-color="#2684FF"/>
<stop offset="0.82" stop-color="#0052CC"/>
</linearGradient>
<linearGradient id="paint1_linear" x1="24.5983" y1="226.609" x2="40.2504" y2="259.367" gradientUnits="userSpaceOnUse">
<stop stop-color="#2684FF"/>
<stop offset="0.62" stop-color="#0052CC"/>
</linearGradient>
</defs>
</svg>
