<svg width="534" height="440" viewBox="0 0 534 440" fill="none" xmlns="http://www.w3.org/2000/svg">
<mask id="mask0" mask-type="alpha" maskUnits="userSpaceOnUse" x="0" y="0" width="534" height="440">
<rect x="0.322266" y="0.408203" width="532.715" height="439.129" fill="#C4C4C4"/>
</mask>
<g mask="url(#mask0)">
<path fill-rule="evenodd" clip-rule="evenodd" d="M197.654 237.816C197.654 251.381 186.619 262.416 173.055 262.416C159.491 262.416 148.455 251.381 148.455 237.816C148.455 224.252 159.491 213.217 173.055 213.217C186.619 213.217 197.654 224.252 197.654 237.816ZM173.055 201.562C163.855 201.562 155.18 204.977 148.455 211.211V202.145V201.479H147.788H137.468H136.801V202.145V298.283V298.95H137.468H147.788H148.455V298.283V264.42C155.18 270.655 163.855 274.07 173.055 274.07C193.045 274.07 209.308 257.807 209.308 237.816C209.308 217.825 193.045 201.562 173.055 201.562Z" fill="black"/>
<path fill-rule="evenodd" clip-rule="evenodd" d="M230.617 231.906C233.281 220.979 243.202 213.133 254.52 213.133C265.689 213.133 275.047 220.812 277.54 231.906H230.617ZM254.52 201.479C234.529 201.479 218.266 217.742 218.266 237.733C218.266 257.723 234.529 273.987 254.52 273.987C265.715 273.987 275.991 269.795 282.713 262.487L286.207 258.689L286.658 258.199L286.168 257.747L278.572 250.76L278.081 250.309L277.63 250.8L274.136 254.598C269.681 259.441 262.347 262.333 254.52 262.333C243.203 262.333 233.281 254.486 230.617 243.56H289.168H289.835V242.893V237.733C289.835 217.403 274.323 201.479 254.52 201.479Z" fill="black"/>
<path fill-rule="evenodd" clip-rule="evenodd" d="M333.918 201.479C325.598 201.479 317.673 204.624 311.435 210.369V202.145V201.479H310.768H300.448H299.781V202.145V237.263V242.423V273.889V274.556H300.448H310.768H311.435V273.889V242.423V237.263C311.435 223.958 321.521 213.133 333.918 213.133C346.317 213.133 356.403 223.958 356.403 237.263V273.889V274.556H357.07H367.39H368.057V273.889V237.263C368.057 217.531 352.742 201.479 333.918 201.479Z" fill="black"/>
<path fill-rule="evenodd" clip-rule="evenodd" d="M438.777 238.222C438.777 251.786 427.742 262.821 414.178 262.821C400.613 262.821 389.578 251.786 389.578 238.222C389.578 224.657 400.613 213.622 414.178 213.622C427.742 213.622 438.777 224.657 438.777 238.222ZM439.444 177.088H438.777V177.755V211.617C432.052 205.382 423.377 201.968 414.178 201.968C394.187 201.968 377.924 218.231 377.924 238.222C377.924 258.213 394.187 274.476 414.178 274.476C423.377 274.476 432.052 271.061 438.777 264.827V273.893V274.559H439.444H449.764H450.431V273.893V177.755V177.088H449.764H439.444Z" fill="black"/>
<mask id="mask1" mask-type="alpha" maskUnits="userSpaceOnUse" x="460" y="201" width="74" height="74">
<path d="M533.035 274.476V201.968H460.528V274.476H533.035Z" fill="white"/>
</mask>
<g mask="url(#mask1)">
<path fill-rule="evenodd" clip-rule="evenodd" d="M521.381 238.222C521.381 251.786 510.346 262.821 496.781 262.821C483.217 262.821 472.182 251.786 472.182 238.222C472.182 224.657 483.217 213.622 496.781 213.622C510.346 213.622 521.381 224.657 521.381 238.222ZM496.781 201.968C476.791 201.968 460.528 218.231 460.528 238.222C460.528 258.212 476.791 274.476 496.781 274.476C516.772 274.476 533.035 258.212 533.035 238.222C533.035 218.231 516.772 201.968 496.781 201.968Z" fill="black"/>
</g>
<mask id="mask2" mask-type="alpha" maskUnits="userSpaceOnUse" x="0" y="189" width="110" height="110">
<path d="M0.322266 298.955H109.771V189.506H0.322266V298.955Z" fill="white"/>
</mask>
<g mask="url(#mask2)">
<path fill-rule="evenodd" clip-rule="evenodd" d="M55.0465 189.506L0.322266 244.23H55.0465V298.955L109.771 244.23V189.506H55.0465Z" fill="#EC2059"/>
</g>
</g>
</svg>
