<svg width="390" height="440" viewBox="0 0 390 440" fill="none" xmlns="http://www.w3.org/2000/svg">
<mask id="mask0" mask-type="alpha" maskUnits="userSpaceOnUse" x="0" y="0" width="390" height="440">
<rect x="0.322266" y="0.567383" width="388.737" height="439.129" fill="#C4C4C4"/>
</mask>
<g mask="url(#mask0)">
<path fill-rule="evenodd" clip-rule="evenodd" d="M164.45 233.255C161.823 233.255 159.255 232.476 157.071 231.016C154.887 229.557 153.185 227.483 152.179 225.056C151.174 222.629 150.911 219.958 151.424 217.382C151.936 214.805 153.201 212.439 155.059 210.581C156.916 208.724 159.283 207.459 161.859 206.946C164.436 206.434 167.106 206.697 169.533 207.702C171.96 208.707 174.034 210.41 175.494 212.594C176.953 214.778 177.732 217.346 177.732 219.973C177.732 223.495 176.333 226.874 173.842 229.365C171.351 231.855 167.973 233.255 164.45 233.255V233.255ZM164.45 192.286C160.227 192.285 156.06 193.25 152.266 195.106C148.473 196.962 145.154 199.661 142.563 202.996C139.972 206.331 138.178 210.214 137.317 214.348C136.456 218.483 136.551 222.759 137.596 226.851C138.641 230.943 140.607 234.742 143.344 237.958C146.081 241.174 149.517 243.722 153.39 245.407C157.262 247.092 161.469 247.869 165.687 247.68C169.906 247.491 174.026 246.34 177.732 244.315V247.672C177.732 251.194 176.333 254.573 173.842 257.063C171.351 259.554 167.973 260.954 164.45 260.954C162.651 261.118 160.978 261.95 159.76 263.285C158.542 264.619 157.866 266.361 157.866 268.168C157.866 269.975 158.542 271.717 159.76 273.052C160.978 274.387 162.651 275.218 164.45 275.383C171.786 275.36 178.816 272.436 184.003 267.249C189.191 262.061 192.115 255.032 192.137 247.696V219.985C192.118 212.647 189.195 205.614 184.007 200.424C178.82 195.234 171.789 192.308 164.45 192.286Z" fill="black"/>
<path fill-rule="evenodd" clip-rule="evenodd" d="M27.9849 233.255C25.358 233.255 22.7901 232.476 20.6059 231.016C18.4216 229.557 16.7193 227.483 15.714 225.056C14.7087 222.629 14.4457 219.958 14.9582 217.382C15.4707 214.805 16.7356 212.439 18.5932 210.581C20.4507 208.724 22.8173 207.459 25.3937 206.946C27.9702 206.434 30.6407 206.697 33.0677 207.702C35.4946 208.707 37.569 210.41 39.0284 212.594C40.4879 214.778 41.2668 217.346 41.2668 219.973C41.2668 223.495 39.8675 226.874 37.3766 229.365C34.8858 231.855 31.5075 233.255 27.9849 233.255V233.255ZM27.9849 192.286C20.6509 192.315 13.6259 195.243 8.44335 200.433C3.26077 205.622 0.341342 212.651 0.322266 219.985L0.322266 259.42C0.322266 261.342 1.08554 263.184 2.44419 264.543C3.80283 265.902 5.64554 266.665 7.56695 266.665C9.48836 266.665 11.3311 265.902 12.6897 264.543C14.0484 263.184 14.8116 261.342 14.8116 259.42V244.315C18.516 246.331 22.6318 247.474 26.8451 247.658C31.0584 247.841 35.258 247.06 39.1237 245.374C42.9894 243.688 46.419 241.142 49.1511 237.929C51.8833 234.717 53.8457 230.922 54.8888 226.836C55.932 222.75 56.0283 218.479 55.1704 214.35C54.3125 210.221 52.523 206.342 49.9385 203.01C47.3539 199.677 44.0425 196.979 40.2568 195.121C36.471 193.262 32.3109 192.293 28.0936 192.286H27.9849Z" fill="#1B1C21"/>
<path fill-rule="evenodd" clip-rule="evenodd" d="M105.673 192.286C98.3366 192.312 91.3086 195.239 86.1234 200.429C80.9382 205.618 78.0171 212.649 77.998 219.985V240.512C77.998 242.433 78.7613 244.276 80.12 245.634C81.4786 246.993 83.3213 247.756 85.2427 247.756C87.1641 247.756 89.0069 246.993 90.3655 245.634C91.7241 244.276 92.4874 242.433 92.4874 240.512V219.985C92.3307 218.152 92.5564 216.307 93.1503 214.566C93.7442 212.824 94.6932 211.226 95.9374 209.871C97.1815 208.516 98.6936 207.434 100.378 206.694C102.062 205.954 103.881 205.571 105.721 205.571C107.561 205.571 109.38 205.954 111.064 206.694C112.749 207.434 114.261 208.516 115.505 209.871C116.749 211.226 117.698 212.824 118.292 214.566C118.886 216.307 119.111 218.152 118.955 219.985V240.512C118.955 242.433 119.718 244.276 121.077 245.634C122.435 246.993 124.278 247.756 126.199 247.756C128.121 247.756 129.963 246.993 131.322 245.634C132.681 244.276 133.444 242.433 133.444 240.512V219.985C133.425 212.632 130.491 205.587 125.284 200.395C120.078 195.202 113.026 192.286 105.673 192.286" fill="black"/>
<path fill-rule="evenodd" clip-rule="evenodd" d="M282.031 233C279.404 233 276.836 232.221 274.652 230.761C272.468 229.302 270.765 227.227 269.76 224.8C268.755 222.374 268.492 219.703 269.004 217.127C269.517 214.55 270.782 212.183 272.639 210.326C274.497 208.468 276.863 207.203 279.44 206.691C282.016 206.178 284.687 206.442 287.114 207.447C289.541 208.452 291.615 210.154 293.074 212.339C294.534 214.523 295.313 217.091 295.313 219.718C295.313 223.24 293.914 226.619 291.423 229.109C288.932 231.6 285.554 233 282.031 233ZM282.031 192.043C276.552 192.036 271.193 193.654 266.634 196.693C262.074 199.731 258.518 204.054 256.416 209.114C254.314 214.174 253.759 219.744 254.823 225.119C255.887 230.494 258.521 235.433 262.392 239.311C266.263 243.189 271.197 245.831 276.57 246.904C281.943 247.977 287.514 247.433 292.578 245.339C297.642 243.246 301.97 239.697 305.017 235.143C308.064 230.589 309.691 225.233 309.694 219.754C309.678 212.418 306.76 205.386 301.577 200.194C296.394 195.002 289.367 192.072 282.031 192.043V192.043Z" fill="#1B1C21"/>
<path fill-rule="evenodd" clip-rule="evenodd" d="M223.239 233.253C220.612 233.253 218.044 232.474 215.86 231.015C213.676 229.556 211.973 227.481 210.968 225.054C209.963 222.627 209.7 219.957 210.212 217.38C210.725 214.804 211.99 212.437 213.847 210.58C215.705 208.722 218.071 207.457 220.648 206.945C223.224 206.432 225.895 206.695 228.322 207.701C230.749 208.706 232.823 210.408 234.282 212.592C235.742 214.777 236.521 217.345 236.521 219.971C236.521 223.494 235.121 226.872 232.631 229.363C230.14 231.854 226.761 233.253 223.239 233.253V233.253ZM243.693 173.34C241.772 173.34 239.929 174.103 238.57 175.462C237.212 176.82 236.448 178.663 236.448 180.585V195.678C231.12 192.764 224.982 191.682 218.978 192.597C212.975 193.512 207.438 196.374 203.22 200.743C199.001 205.112 196.335 210.745 195.63 216.777C194.926 222.809 196.223 228.905 199.321 234.128C202.419 239.352 207.147 243.412 212.778 245.686C218.409 247.96 224.631 248.322 230.488 246.715C236.344 245.107 241.51 241.621 245.192 236.791C248.874 231.962 250.867 226.056 250.865 219.984V180.585C250.865 178.663 250.102 176.82 248.743 175.462C247.385 174.103 245.542 173.34 243.621 173.34H243.693Z" fill="#1B1C21"/>
<path fill-rule="evenodd" clip-rule="evenodd" d="M66.3213 192.284C64.3999 192.284 62.5572 193.047 61.1986 194.405C59.8399 195.764 59.0767 197.607 59.0767 199.528V240.461C59.0767 242.382 59.8399 244.225 61.1986 245.583C62.5572 246.942 64.3999 247.705 66.3213 247.705C68.2428 247.705 70.0855 246.942 71.4441 245.583C72.8028 244.225 73.566 242.382 73.566 240.461V199.516C73.566 197.595 72.8028 195.752 71.4441 194.393C70.0855 193.035 68.2428 192.271 66.3213 192.271" fill="#1B1C21"/>
<path fill-rule="evenodd" clip-rule="evenodd" d="M59.1006 180.585C59.1006 182.017 59.5255 183.418 60.3215 184.609C61.1176 185.801 62.2491 186.729 63.5729 187.278C64.8966 187.826 66.3533 187.97 67.7586 187.69C69.164 187.41 70.4549 186.72 71.468 185.707C72.4812 184.694 73.1712 183.403 73.4508 181.998C73.7303 180.593 73.5868 179.136 73.0385 177.812C72.4902 176.488 71.5616 175.357 70.3702 174.561C69.1788 173.765 67.7781 173.34 66.3453 173.34C64.4239 173.34 62.5811 174.103 61.2225 175.462C59.8639 176.82 59.1006 178.663 59.1006 180.585" fill="#1B1C21"/>
<path fill-rule="evenodd" clip-rule="evenodd" d="M351.037 247.453C352.958 247.453 354.801 246.689 356.159 245.331C357.518 243.972 358.281 242.129 358.281 240.208V209.563C358.28 209.167 358.356 208.775 358.507 208.409C358.657 208.043 358.878 207.71 359.158 207.429C359.437 207.149 359.769 206.926 360.135 206.774C360.5 206.623 360.892 206.544 361.288 206.544C364.81 206.544 368.189 207.944 370.68 210.435C373.17 212.925 374.57 216.304 374.57 219.826V240.353C374.57 242.274 375.333 244.117 376.692 245.476C378.05 246.834 379.893 247.598 381.814 247.598C383.736 247.598 385.579 246.834 386.937 245.476C388.296 244.117 389.059 242.274 389.059 240.353V219.826C389.043 212.488 386.124 205.454 380.938 200.262C375.752 195.07 368.723 192.141 361.384 192.115C357.878 192.118 354.405 192.798 351.157 194.12C347.881 192.76 344.369 192.054 340.822 192.043C333.483 192.068 326.454 194.997 321.268 200.19C316.082 205.382 313.163 212.416 313.147 219.754V240.281C313.055 241.283 313.173 242.294 313.494 243.249C313.815 244.204 314.331 245.081 315.01 245.825C315.689 246.569 316.516 247.163 317.437 247.569C318.358 247.976 319.354 248.186 320.361 248.186C321.368 248.186 322.365 247.976 323.286 247.569C324.207 247.163 325.034 246.569 325.713 245.825C326.392 245.081 326.908 244.204 327.229 243.249C327.549 242.294 327.668 241.283 327.576 240.281V219.754C327.576 216.231 328.975 212.853 331.466 210.362C333.957 207.871 337.335 206.472 340.858 206.472C341.656 206.475 342.421 206.795 342.985 207.36C343.548 207.926 343.864 208.692 343.864 209.491V240.22C343.864 242.142 344.628 243.984 345.986 245.343C347.345 246.702 349.188 247.465 351.109 247.465" fill="#1B1C21"/>
</g>
</svg>
