<svg width="471" height="440" viewBox="0 0 471 440" fill="none" xmlns="http://www.w3.org/2000/svg">
<mask id="mask0" mask-type="alpha" maskUnits="userSpaceOnUse" x="0" y="0" width="471" height="440">
<rect x="0.98584" y="0.330078" width="469.459" height="439.129" fill="#C4C4C4"/>
</mask>
<g mask="url(#mask0)">
<path d="M83.785 212.692V174.626H54.6817L39.0524 158.988V129.91H0.98584V167.976H30.0975L45.7101 183.589V203.737L30.0892 219.358H0.98584V257.425H39.0524V228.313L54.6733 212.692H83.785ZM13.6747 142.599H26.3636V155.287H13.6747V142.599ZM26.3636 244.719H13.6747V232.03H26.3636V244.719Z" fill="#FFAE1A"/>
<path d="M125.919 295.484H109.137V212.685H125.919V217.697C128.617 214.456 134.573 211.34 141.064 211.34C158.656 211.34 168.63 225.95 168.63 242.999C168.63 260.049 158.606 274.517 141.064 274.517C134.573 274.517 128.617 271.409 125.919 268.16V295.484ZM125.919 252.881C126.972 254.993 128.593 256.77 130.6 258.012C132.606 259.255 134.919 259.913 137.279 259.915C146.343 259.915 151.756 252.614 151.756 243.008C151.756 233.268 146.343 225.958 137.279 225.958C134.922 225.972 132.614 226.636 130.61 227.877C128.605 229.118 126.982 230.888 125.919 232.992V252.881Z" fill="#222222"/>
<path d="M229.545 273.163H212.771V267.608C210.693 269.821 208.176 271.578 205.382 272.766C202.588 273.954 199.577 274.547 196.541 274.508C183.008 274.508 175.298 265.586 175.298 252.187V212.684H192.072V248.804C192.072 255.161 195.187 259.497 201.812 259.497C204.311 259.586 206.763 258.801 208.746 257.276C210.728 255.751 212.116 253.582 212.671 251.143V212.717H229.578L229.545 273.163Z" fill="#222222"/>
<path d="M257.435 295.484H240.636V212.685H257.435V217.697C260.141 214.456 266.089 211.34 272.588 211.34C290.172 211.34 300.154 225.95 300.154 242.999C300.154 260.049 290.13 274.517 272.588 274.517C266.089 274.517 260.141 271.409 257.435 268.16V295.484ZM257.435 252.881C258.489 254.993 260.109 256.77 262.116 258.012C264.123 259.255 266.436 259.913 268.796 259.915C277.859 259.915 283.272 252.614 283.272 243.008C283.272 233.268 277.859 225.958 268.796 225.958C266.438 225.972 264.13 226.636 262.126 227.877C260.122 229.118 258.498 230.888 257.435 232.992V252.881Z" fill="#222222"/>
<path d="M324.265 295.484H307.475V212.685H324.265V217.697C326.972 214.456 332.928 211.34 339.418 211.34C357.01 211.34 366.984 225.95 366.984 242.999C366.984 260.049 356.96 274.517 339.418 274.517C332.928 274.517 326.972 271.409 324.265 268.16V295.484ZM324.265 252.881C325.321 254.993 326.943 256.77 328.951 258.012C330.959 259.254 333.273 259.913 335.634 259.915C344.697 259.915 350.111 252.614 350.111 243.008C350.111 233.268 344.697 225.958 335.634 225.958C333.277 225.97 330.969 226.631 328.963 227.869C326.958 229.107 325.332 230.874 324.265 232.975V252.881Z" fill="#222222"/>
<path d="M427.202 253.407C425.038 266.263 415.566 274.508 400.413 274.508C382.829 274.508 371.059 261.66 371.059 242.991C371.059 224.722 383.238 211.331 400.145 211.331C417.871 211.331 427.611 223.644 427.611 241.403V246.541H387.289C387.832 255.604 392.978 261.017 400.413 261.017C406.101 261.017 410.295 258.578 411.648 253.441L427.202 253.407ZM387.699 236.358H411.088C410.955 230.001 407.162 224.997 400.229 224.997C393.788 224.997 389.186 228.923 387.699 236.358Z" fill="#222222"/>
<path d="M438.563 226.216H429.374V212.684H438.563V196.311H455.211V212.684H468.468V226.216H455.211V252.705C455.211 257.441 457.776 259.605 462.111 259.605C464.682 259.593 467.204 258.892 469.412 257.575V272.461C467.115 273.672 463.055 274.349 458.553 274.349C446.248 274.349 438.504 268.259 438.504 254.869L438.563 226.216Z" fill="#222222"/>
</g>
</svg>
