<svg width="456" height="440" viewBox="0 0 456 440" fill="none" xmlns="http://www.w3.org/2000/svg">
<mask id="mask0" mask-type="alpha" maskUnits="userSpaceOnUse" x="0" y="0" width="456" height="440">
<rect x="0.322266" y="0.292969" width="455.224" height="439.129" fill="#C4C4C4"/>
</mask>
<g mask="url(#mask0)">
<path d="M145.952 263.76L151.638 250.554C157.782 255.14 165.944 257.524 174.014 257.524C179.975 257.524 183.735 255.231 183.735 251.746C183.643 242.026 148.061 249.637 147.786 225.244C147.695 212.863 158.699 203.326 174.289 203.326C183.551 203.326 192.813 205.619 199.416 210.846L194.097 224.327C188.045 220.475 180.525 217.724 173.372 217.724C168.512 217.724 165.302 220.016 165.302 222.951C165.394 232.488 201.25 227.261 201.617 250.554C201.617 263.21 190.888 272.105 175.481 272.105C164.201 272.105 153.839 269.445 145.952 263.76Z" fill="black"/>
<path d="M364.12 245.786C361.277 250.738 355.958 254.131 349.814 254.131C340.735 254.131 333.398 246.794 333.398 237.716C333.398 228.637 340.735 221.3 349.814 221.3C355.958 221.3 361.277 224.693 364.12 229.646L379.801 220.934C373.932 210.479 362.652 203.326 349.814 203.326C330.831 203.326 315.424 218.733 315.424 237.716C315.424 256.698 330.831 272.105 349.814 272.105C362.744 272.105 373.932 265.044 379.801 254.498L364.12 245.786Z" fill="black"/>
<path d="M229.129 174.807H209.504V270.822H229.129V174.807Z" fill="black"/>
<path d="M387.504 174.807V270.822H407.129V242.026L430.422 270.822H455.549L425.928 236.616L453.348 204.702H429.321L407.129 231.205V174.807H387.504Z" fill="black"/>
<path d="M287.454 245.969C284.611 250.646 278.742 254.131 272.139 254.131C263.06 254.131 255.724 246.794 255.724 237.716C255.724 228.637 263.06 221.3 272.139 221.3C278.742 221.3 284.611 224.969 287.454 229.737V245.969ZM287.454 204.702V212.497C284.244 207.086 276.266 203.326 267.921 203.326C250.68 203.326 237.108 218.549 237.108 237.624C237.108 256.698 250.68 272.105 267.921 272.105C276.266 272.105 284.244 268.345 287.454 262.934V270.729H307.079V204.702H287.454Z" fill="black"/>
<path d="M24.6232 245.879C24.6232 252.574 19.2126 257.985 12.5181 257.985C5.82368 257.985 0.413086 252.574 0.413086 245.879C0.413086 239.185 5.82368 233.774 12.5181 233.774H24.6232V245.879Z" fill="#E01E5A"/>
<path d="M30.6782 245.878C30.6782 239.184 36.0888 233.773 42.7833 233.773C49.4777 233.773 54.8883 239.184 54.8883 245.878V276.141C54.8883 282.836 49.4777 288.246 42.7833 288.246C36.0888 288.246 30.6782 282.836 30.6782 276.141V245.878Z" fill="#E01E5A"/>
<path d="M42.7833 197.275C36.0888 197.275 30.6782 191.864 30.6782 185.17C30.6782 178.475 36.0888 173.064 42.7833 173.064C49.4777 173.064 54.8883 178.475 54.8883 185.17V197.275H42.7833Z" fill="#36C5F0"/>
<path d="M42.7817 203.418C49.4761 203.418 54.8867 208.829 54.8867 215.523C54.8867 222.217 49.4761 227.628 42.7817 227.628H12.4273C5.73286 227.628 0.322266 222.217 0.322266 215.523C0.322266 208.829 5.73286 203.418 12.4273 203.418H42.7817Z" fill="#36C5F0"/>
<path d="M91.2954 215.523C91.2954 208.829 96.706 203.418 103.4 203.418C110.095 203.418 115.506 208.829 115.506 215.523C115.506 222.217 110.095 227.628 103.4 227.628H91.2954V215.523Z" fill="#2EB67D"/>
<path d="M85.2414 215.524C85.2414 222.218 79.8308 227.629 73.1363 227.629C66.4419 227.629 61.0312 222.218 61.0312 215.524V185.17C61.0312 178.475 66.4419 173.064 73.1363 173.064C79.8308 173.064 85.2414 178.475 85.2414 185.17V215.524Z" fill="#2EB67D"/>
<path d="M73.1353 264.036C79.8298 264.036 85.2404 269.447 85.2404 276.141C85.2404 282.836 79.8298 288.246 73.1353 288.246C66.4409 288.246 61.0303 282.836 61.0303 276.141V264.036H73.1353Z" fill="#ECB22E"/>
<path d="M73.1402 257.984C66.4458 257.984 61.0352 252.573 61.0352 245.878C61.0352 239.184 66.4458 233.773 73.1402 233.773H103.495C110.189 233.773 115.6 239.184 115.6 245.878C115.6 252.573 110.189 257.984 103.495 257.984H73.1402Z" fill="#ECB22E"/>
</g>
</svg>
