<svg width="1023" height="440" viewBox="0 0 1023 440" fill="none" xmlns="http://www.w3.org/2000/svg">
<mask id="mask0" mask-type="alpha" maskUnits="userSpaceOnUse" x="0" y="0" width="1023" height="440">
<rect x="0.322266" y="0.320312" width="1022.24" height="439.129" fill="#C4C4C4"/>
</mask>
<g mask="url(#mask0)">
<path d="M995.078 273.32H983.611C983.611 182.837 906.783 109.111 812.754 109.111V97.9404C913.09 97.9404 995.078 176.694 995.078 273.32Z" fill="#CB3032"/>
<path d="M1003.11 212.997C989.346 156.027 942.331 109.11 882.703 92.354L885.57 83.4175C948.065 100.732 997.373 151 1012.28 210.763L1003.11 212.997Z" fill="#CB3032"/>
<path d="M1011.71 159.936C997.374 129.775 973.293 103.524 943.479 85.6512L947.492 79.5073C978.453 97.9389 1004.25 125.307 1018.59 157.143L1011.71 159.936Z" fill="#CB3032"/>
<path d="M4.90904 247.624C10.0692 250.417 20.9628 254.326 28.9896 254.326C37.5898 254.326 41.0299 251.534 41.0299 247.066C41.0299 242.597 38.1632 240.363 27.8429 237.012C8.92248 230.868 2.04231 220.815 2.04231 210.202C2.04231 194.005 16.376 181.159 39.3099 181.159C49.6301 181.159 59.377 183.393 65.1105 186.185L59.9504 205.176C55.9369 202.941 47.9101 200.149 40.4566 200.149C33.5764 200.149 29.563 202.941 29.563 207.41C29.563 211.319 33.0031 213.554 44.47 217.463C61.6704 223.049 69.1239 231.985 69.1239 244.831C69.1239 261.587 55.9369 273.317 29.563 273.317C17.5227 273.317 7.20243 270.524 0.322266 267.173L4.90904 247.624Z" fill="#1B171B"/>
<path d="M168.313 226.401C168.313 258.796 144.806 273.876 120.152 273.876C93.7777 273.876 73.1372 257.12 73.1372 228.076C73.1372 199.033 92.631 181.16 121.872 181.16C149.392 181.16 168.313 199.591 168.313 226.401ZM102.378 226.959C102.378 242.04 108.685 253.769 120.725 253.769C131.619 253.769 138.499 243.157 138.499 226.959C138.499 213.555 133.339 200.15 120.725 200.15C107.538 200.708 102.378 214.113 102.378 226.959Z" fill="#1B171B"/>
<path d="M178.062 211.32C178.062 200.15 177.488 190.655 177.488 182.835H202.142L203.289 195.123H203.862C207.302 189.538 217.049 181.16 231.956 181.16C250.303 181.16 264.637 192.889 264.637 219.14V271.642H236.543V222.491C236.543 211.32 232.53 203.501 222.209 203.501C214.183 203.501 209.596 208.528 207.876 213.555C206.729 215.23 206.729 218.023 206.729 220.257V271.083H178.062V211.32Z" fill="#1B171B"/>
<path d="M331.719 271.641L329.999 262.705H329.426C323.692 269.966 313.945 273.317 303.625 273.317C285.278 273.317 274.384 260.471 274.384 245.949C274.384 223.049 295.598 211.878 327.706 211.878V210.761C327.706 206.293 324.839 199.591 311.079 199.591C301.905 199.591 292.158 202.942 285.851 206.293L280.691 188.42C286.998 185.069 299.612 180.601 316.239 180.601C346.626 180.601 356.373 197.915 356.373 218.581V249.3C356.373 257.678 356.946 266.056 357.52 271.083H331.719V271.641ZM328.279 229.751C313.372 229.751 301.905 233.103 301.905 243.715C301.905 250.976 306.492 254.327 312.799 254.327C319.679 254.327 325.412 249.859 327.706 244.273C328.279 242.598 328.279 240.922 328.279 239.805V229.751Z" fill="#1B171B"/>
<path d="M370.704 211.878C370.704 199.032 370.131 190.096 370.131 182.835H394.211L395.358 199.032H395.931C400.518 186.186 411.985 180.601 420.585 180.601C423.452 180.601 424.599 180.601 426.319 181.159V206.852C424.599 206.852 421.732 206.293 418.865 206.293C408.545 206.293 401.665 211.878 399.372 220.256C398.798 221.932 398.798 224.166 398.798 226.4V271.083H370.704V211.878Z" fill="#1B171B"/>
<path d="M433.77 255.445C438.357 258.238 446.957 261.589 455.557 261.589C467.598 261.589 472.758 256.004 472.758 248.743C472.758 240.923 468.171 237.014 456.131 232.545C440.077 226.96 432.05 218.023 432.05 207.97C432.05 194.007 443.517 182.277 463.011 182.277C472.185 182.277 480.211 185.07 485.372 187.863L481.358 199.592C477.918 197.358 471.038 194.565 463.011 194.565C453.264 194.565 448.104 200.15 448.104 206.294C448.104 213.555 453.264 216.906 465.304 221.375C480.785 226.96 488.812 234.779 488.812 247.626C488.812 263.265 476.771 273.877 454.984 273.877C445.237 273.877 436.064 271.643 429.757 267.733L433.77 255.445Z" fill="#1B171B"/>
<path d="M583.992 226.958C583.992 259.353 561.058 273.316 539.271 273.316C515.19 273.316 496.27 256.002 496.27 228.075C496.27 198.473 515.763 181.717 540.991 181.717C566.218 181.717 583.992 200.148 583.992 226.958ZM512.323 228.075C512.323 247.065 523.79 261.587 539.844 261.587C555.324 261.587 567.365 247.065 567.365 227.516C567.365 212.436 559.911 194.005 540.417 194.005C520.923 194.005 512.323 211.319 512.323 228.075Z" fill="#1B171B"/>
<path d="M672.284 247.624C672.284 256.561 672.284 264.38 672.858 271.641H658.524L657.377 257.119H656.804C652.791 264.38 643.044 273.317 626.99 273.317C612.656 273.317 596.029 265.497 596.029 234.778V183.393H612.656V231.985C612.656 248.741 617.817 259.912 632.724 259.912C643.617 259.912 651.071 252.651 654.511 245.39C655.657 243.156 656.231 240.363 656.231 237.012V183.393H672.858V247.624H672.284Z" fill="#1B171B"/>
<path d="M691.78 211.321C691.78 201.267 691.78 192.331 691.207 183.953H705.541L706.114 201.267H706.687C710.701 189.538 720.448 182.277 731.341 182.277C733.061 182.277 734.781 182.277 735.928 182.836V197.916C734.208 197.358 732.488 197.358 730.195 197.358C718.728 197.358 710.701 205.736 708.407 218.023C707.834 220.258 707.834 222.492 707.834 225.284V272.201H691.78V211.321Z" fill="#1B171B"/>
<path d="M807.597 268.291C803.583 270.525 793.837 273.318 781.796 273.318C754.849 273.318 737.075 255.445 737.075 228.636C737.075 201.826 755.996 182.277 785.236 182.277C794.983 182.277 803.583 184.511 808.17 186.746L804.157 199.033C800.143 196.799 794.41 195.124 785.236 195.124C764.596 195.124 753.702 210.204 753.702 228.077C753.702 248.184 766.889 261.03 784.663 261.03C793.837 261.03 800.143 258.796 804.73 256.562L807.597 268.291Z" fill="#1B171B"/>
<path d="M827.662 230.309C828.235 252.092 841.995 261.028 858.622 261.028C870.089 261.028 877.543 258.794 883.276 256.56L886.143 267.731C880.409 270.523 870.663 273.316 856.329 273.316C828.808 273.316 812.181 255.443 812.181 229.192C812.181 202.941 828.235 181.717 854.609 181.717C883.85 181.717 891.876 206.851 891.876 223.048C891.876 226.399 891.303 228.634 891.303 230.309H827.662V230.309ZM875.249 219.138C875.249 209.085 871.236 193.446 852.315 193.446C835.688 193.446 828.235 208.526 827.088 219.138H875.249V219.138Z" fill="#1B171B"/>
</g>
</svg>
