<svg width="344" height="440" viewBox="0 0 344 440" fill="none" xmlns="http://www.w3.org/2000/svg">
<mask id="mask0" mask-type="alpha" maskUnits="userSpaceOnUse" x="0" y="0" width="344" height="440">
<rect x="0.322266" y="0.556641" width="343.292" height="439.129" fill="#C4C4C4"/>
</mask>
<g mask="url(#mask0)">
<path d="M36.9573 235.009C36.975 237.201 36.4782 239.367 35.5069 241.333C34.5474 243.255 33.1674 244.936 31.4693 246.252C29.6193 247.657 27.5348 248.723 25.3127 249.399C22.7833 250.181 20.1479 250.564 17.5008 250.536C14.4073 250.582 11.3279 250.111 8.38907 249.144C5.46016 248.078 2.73276 246.523 0.322266 244.547L4.77364 237.316C6.53838 238.853 8.48203 240.173 10.5625 241.245C12.2044 242.057 14.0095 242.486 15.8415 242.499C18.0525 242.499 19.8247 241.934 21.1748 240.793C21.8384 240.231 22.3652 239.524 22.715 238.728C23.0648 237.931 23.2285 237.065 23.1935 236.196C23.1974 235.404 23.0747 234.617 22.8299 233.863C22.5304 233.04 22.0733 232.284 21.4841 231.636C20.6702 230.724 19.7702 229.892 18.7965 229.153C17.6652 228.253 16.2023 227.148 14.4078 225.838C13.0146 224.869 11.6715 223.867 10.3786 222.833C9.09874 221.831 7.90605 220.722 6.81333 219.519C5.74857 218.353 4.87533 217.025 4.2261 215.586C3.54954 214.015 3.21609 212.318 3.24805 210.608C3.22291 208.578 3.6829 206.572 4.58973 204.756C5.47347 203.007 6.7271 201.471 8.26368 200.255C9.9212 198.952 11.8061 197.968 13.8227 197.354C16.1111 196.646 18.4952 196.296 20.8905 196.317C23.5325 196.308 26.1625 196.673 28.7024 197.4C31.1704 198.094 33.5225 199.149 35.6825 200.53L31.67 207.026C29.1459 205.176 26.1053 204.164 22.9762 204.133C21.3224 204.069 19.6974 204.58 18.3785 205.579C17.8124 205.999 17.3534 206.546 17.0389 207.177C16.7244 207.807 16.5633 208.503 16.5687 209.207C16.5738 209.905 16.7181 210.594 16.9929 211.235C17.2678 211.876 17.6678 212.456 18.1696 212.94C19.897 214.619 21.7391 216.177 23.6826 217.6C26.3158 219.551 28.4962 221.244 30.2238 222.679C31.7278 223.899 33.1031 225.27 34.3282 226.771C35.2655 227.923 35.9748 229.244 36.4181 230.662C36.8111 232.077 37.0038 233.54 36.9907 235.009" fill="#231F20"/>
<path d="M82.7162 222.817C82.7162 217.157 81.5696 212.685 79.2763 209.4C76.9831 206.115 73.8567 204.476 69.8971 204.484C65.7174 204.484 62.4182 206.227 59.9996 209.713C57.5809 213.199 56.366 217.914 56.3549 223.857C56.3549 229.659 57.5517 234.216 59.9453 237.529C62.3388 240.842 65.6227 242.5 69.7968 242.503C72.3046 242.503 74.3568 241.872 75.9911 240.589C77.6519 239.276 79.0045 237.616 79.9535 235.724C80.9758 233.698 81.6954 231.534 82.0893 229.299C82.4885 227.161 82.6983 224.992 82.7162 222.817V222.817ZM97.178 222.294C97.2178 226.116 96.5854 229.914 95.3096 233.517C94.141 236.793 92.3799 239.826 90.1143 242.465C87.3922 245.56 83.9124 247.893 80.0163 249.237C76.1203 250.581 71.9418 250.889 67.8909 250.131C66.516 249.853 65.1875 249.382 63.9452 248.731C62.6261 248.023 61.3897 247.17 60.2587 246.189C58.9011 245.007 57.6352 243.723 56.4719 242.348V275.151H43.168V197.571H56.4719L56.5388 205.095C58.963 202.06 61.5907 199.831 64.4217 198.407C67.2528 196.983 70.5338 196.287 74.2649 196.317C77.4601 196.275 80.6263 196.928 83.5438 198.232C86.3091 199.482 88.7821 201.297 90.8039 203.561C92.9006 205.949 94.503 208.729 95.5186 211.74C96.6638 215.14 97.229 218.707 97.1905 222.294" fill="#231F20"/>
<path d="M116.742 173.328H103.096V249.273H116.742V173.328Z" fill="#231F20"/>
<path d="M161.385 249.295L161.352 242.365C158.724 245.266 156.03 247.355 153.268 248.634C150.507 249.913 147.293 250.552 143.626 250.549C139.552 250.549 136.113 249.738 133.31 248.116C130.514 246.493 128.371 243.947 127.25 240.915C126.902 240.151 126.641 239.35 126.472 238.528C126.301 237.692 126.146 236.747 126.004 235.677C125.854 234.457 125.769 233.229 125.749 231.999C125.707 230.606 125.688 228.911 125.691 226.913V197.483H139.342V227.126C139.299 229.136 139.42 231.146 139.701 233.136C139.92 234.444 140.362 235.703 141.009 236.86C142.603 239.764 145.409 241.216 149.427 241.216C154.56 241.216 158.096 239.074 160.035 234.791C160.535 233.612 160.885 232.375 161.076 231.109C161.315 229.202 161.418 227.28 161.385 225.358V197.483H175.032V249.312L161.385 249.295Z" fill="#231F20"/>
<path d="M220.248 249.273V219.723C220.291 217.717 220.17 215.711 219.885 213.725C219.67 212.42 219.232 211.161 218.589 210.005C216.995 207.11 214.186 205.662 210.163 205.662C207.858 205.598 205.577 206.152 203.559 207.267C201.715 208.346 200.274 209.997 199.454 211.969C198.959 213.174 198.626 214.439 198.464 215.731C198.268 217.602 198.181 219.484 198.205 221.365V249.273H184.441V197.57H198.205L198.234 204.504C200.864 201.604 203.56 199.514 206.322 198.235C209.083 196.956 212.296 196.316 215.96 196.316C220.039 196.316 223.479 197.162 226.28 198.853C229.046 200.506 231.179 203.037 232.34 206.043C232.616 206.803 232.863 207.577 233.067 208.366C233.298 209.27 233.471 210.187 233.586 211.113C233.737 212.33 233.825 213.555 233.849 214.782C233.878 216.195 233.899 217.9 233.899 219.902V249.273H220.248Z" fill="#231F20"/>
<path d="M277.686 250.322L257.097 221.762V249.285H243.333V173.349H257.097V217.938H258.551L276.858 196.73L287.207 201.173L269.615 220.007L290.417 245.87L277.686 250.322Z" fill="#231F20"/>
<path d="M302.227 247.873V238.778L334.302 222.966L302.227 207.367V198.063L343.614 218.832V227.309L302.227 247.873Z" fill="#61A60E"/>
<path d="M306.277 184.659C307.495 184.662 308.663 185.148 309.523 186.011C310.383 186.874 310.865 188.044 310.864 189.262C310.862 190.481 310.377 191.649 309.515 192.51C308.653 193.371 307.485 193.854 306.266 193.854C305.048 193.854 303.879 193.371 303.017 192.51C302.155 191.649 301.67 190.481 301.668 189.262C301.667 188.044 302.149 186.874 303.01 186.011C303.87 185.148 305.037 184.662 306.256 184.659H306.277ZM306.256 185.382C305.752 185.393 305.256 185.503 304.795 185.706C304.335 185.909 303.919 186.201 303.571 186.566C303.224 186.93 302.951 187.359 302.77 187.829C302.589 188.299 302.502 188.8 302.515 189.303C302.499 189.81 302.584 190.315 302.765 190.789C302.946 191.263 303.219 191.696 303.569 192.064C303.919 192.431 304.339 192.725 304.804 192.928C305.269 193.131 305.769 193.24 306.277 193.248C308.341 193.269 309.988 191.514 309.988 189.324C310.005 188.821 309.923 188.319 309.745 187.848C309.568 187.377 309.299 186.946 308.954 186.58C308.609 186.213 308.194 185.919 307.735 185.713C307.275 185.508 306.78 185.395 306.277 185.382H306.256ZM305.386 192.007H304.55V186.824C305.034 186.745 305.523 186.704 306.013 186.703C306.579 186.662 307.143 186.8 307.627 187.096C307.788 187.222 307.915 187.387 307.998 187.574C308.082 187.761 308.117 187.966 308.103 188.17C308.101 188.463 307.999 188.747 307.814 188.974C307.63 189.202 307.374 189.361 307.087 189.424V189.466C307.543 189.545 307.856 189.963 307.957 190.72C308 191.162 308.111 191.595 308.287 192.003H307.418C307.222 191.587 307.103 191.14 307.067 190.682C307.06 190.546 307.025 190.414 306.964 190.292C306.902 190.171 306.816 190.064 306.711 189.978C306.606 189.892 306.484 189.829 306.353 189.794C306.222 189.758 306.085 189.75 305.951 189.771H305.374L305.386 192.007ZM305.386 189.14H305.984C306.669 189.14 307.238 188.893 307.238 188.25C307.238 187.798 306.904 187.338 305.984 187.338C305.784 187.336 305.584 187.352 305.386 187.384V189.14Z" fill="#231F20"/>
</g>
</svg>
