<svg width="739" height="441" viewBox="0 0 739 441" fill="none" xmlns="http://www.w3.org/2000/svg">
<mask id="mask0" mask-type="alpha" maskUnits="userSpaceOnUse" x="0" y="0" width="739" height="441">
<rect x="0.322266" y="0.967773" width="738.486" height="439.129" fill="#C4C4C4"/>
</mask>
<g mask="url(#mask0)">
</g>
<g clip-path="url(#clip0)">
<rect width="738.486" height="124.377" transform="translate(0.322266 173.74)" fill="white" fill-opacity="0.01"/>
<path d="M163.328 275.178C147.639 275.178 140.355 272.156 134.052 268.996V257.87C141.616 261.716 153.102 264.463 163.888 264.463C176.075 264.463 180.697 259.793 180.697 252.788C180.697 245.783 176.215 242.074 160.806 238.365C142.596 233.97 134.472 227.788 134.472 214.739C134.472 202.377 144.137 193.174 162.908 193.174C174.674 193.174 182.098 195.921 187.701 198.943V209.794C179.577 205.261 170.752 203.751 162.487 203.751C151.842 203.751 145.538 207.322 145.538 214.602C145.538 221.195 150.721 224.354 165.009 227.926C182.098 232.184 191.764 237.541 191.764 251.826C191.764 265.837 183.359 275.178 163.328 275.178Z" fill="#253858"/>
<path d="M229.304 264.189C231.826 264.189 234.067 263.639 236.028 263.365V273.392C234.207 273.941 232.106 274.353 228.884 274.353C215.717 274.353 209.273 266.799 209.273 255.535V223.118H199.188V213.503H209.133V200.729H219.499V213.503H235.888V223.118H219.499V255.123C219.499 260.48 222.721 264.189 229.304 264.189Z" fill="#253858"/>
<path d="M288.837 263.09C284.915 271.057 277.491 275.177 267.965 275.177C251.576 275.177 243.312 261.579 243.312 243.722C243.312 226.69 251.997 212.267 269.226 212.267C278.191 212.267 285.195 216.25 288.837 224.08V213.503H299.483V273.941H288.837V263.09ZM270.767 265.425C280.292 265.425 288.697 259.518 288.697 246.057V241.25C288.697 227.788 280.993 221.882 271.888 221.882C259.981 221.882 253.818 229.574 253.818 243.585C253.958 258.282 259.841 265.425 270.767 265.425Z" fill="#253858"/>
<path d="M339.825 264.189C342.346 264.189 344.588 263.639 346.549 263.365V273.392C344.728 273.941 342.627 274.353 339.405 274.353C326.237 274.353 319.794 266.799 319.794 255.535V223.118H309.848V213.503H319.794V200.729H330.16V213.503H346.549V223.118H330.16V255.123C330.02 260.48 333.241 264.189 339.825 264.189Z" fill="#253858"/>
<path d="M358.736 213.503H369.381V250.041C369.381 260.892 373.864 265.7 383.949 265.7C393.755 265.7 400.619 259.244 400.619 247.019V213.503H411.264V273.941H400.619V264.051C396.696 271.194 389.412 275.177 381.148 275.177C367 275.177 358.876 265.562 358.876 248.942V213.503H358.736Z" fill="#253858"/>
<path d="M446.564 275.177C437.319 275.177 429.754 273.117 425.132 270.645V259.656C430.455 262.678 439.28 265.562 447.124 265.562C455.249 265.562 459.451 262.266 459.451 257.595C459.451 253.063 455.809 250.315 444.182 247.568C430.455 244.272 424.712 239.052 424.712 229.162C424.712 218.585 432.976 212.267 446.984 212.267C454.968 212.267 462.252 214.19 466.875 216.662V227.376C459.451 223.805 453.427 221.882 446.844 221.882C439.14 221.882 434.937 224.492 434.937 229.299C434.937 233.558 437.879 236.167 449.225 238.915C462.953 242.211 469.817 247.156 469.817 257.595C469.676 267.485 463.093 275.177 446.564 275.177Z" fill="#253858"/>
<path d="M492.509 263.365V297.567H481.864V213.503H492.509V224.354C496.432 216.388 503.856 212.267 513.381 212.267C529.77 212.267 538.034 225.865 538.034 243.722C538.034 260.755 529.35 275.178 512.12 275.178C503.155 275.178 496.292 271.194 492.509 263.365ZM510.579 222.019C501.054 222.019 492.65 227.926 492.65 241.387V246.195C492.65 259.656 500.354 265.562 509.459 265.562C521.365 265.562 527.529 257.87 527.529 243.86C527.389 229.162 521.505 222.019 510.579 222.019Z" fill="#253858"/>
<path d="M592.104 263.09C588.182 271.057 580.758 275.177 571.232 275.177C554.843 275.177 546.579 261.579 546.579 243.722C546.579 226.69 555.263 212.267 572.493 212.267C581.458 212.267 588.462 216.25 592.104 224.08V213.503H602.75V273.941H592.104V263.09ZM574.174 265.425C583.699 265.425 592.104 259.518 592.104 246.057V241.25C592.104 227.788 584.4 221.882 575.295 221.882C563.388 221.882 557.225 229.574 557.225 243.585C557.225 258.282 563.108 265.425 574.174 265.425Z" fill="#253858"/>
<path d="M660.322 263.09C656.399 271.057 648.975 275.178 639.45 275.178C623.201 275.178 615.077 261.579 615.077 243.722C615.077 226.69 623.621 212.267 640.711 212.267C649.676 212.267 656.68 216.25 660.322 224.08V213.503H670.687V268.447C670.687 286.166 662.143 298.117 640.15 298.117C629.785 298.117 624.182 296.743 618.158 294.82V284.655C624.882 286.853 632.026 288.227 639.59 288.227C654.999 288.227 660.322 280.122 660.322 268.859V263.09ZM642.252 265.425C651.777 265.425 660.181 259.519 660.181 246.057V241.25C660.181 227.788 652.477 221.882 643.372 221.882C631.466 221.882 625.302 229.574 625.302 243.585C625.442 258.282 631.326 265.425 642.252 265.425Z" fill="#253858"/>
<path d="M716.212 275.177C693.1 275.177 683.014 262.128 683.014 243.585C683.014 225.316 693.38 212.267 712.15 212.267C731.201 212.267 738.765 225.179 738.765 243.585V248.255H693.66C695.201 258.557 701.924 265.15 716.493 265.15C723.637 265.15 729.66 263.777 735.263 261.854V271.469C730.22 274.216 722.376 275.177 716.212 275.177ZM693.66 239.327H728.119C727.559 228.063 722.376 221.745 711.73 221.745C700.384 221.745 694.64 228.887 693.66 239.327Z" fill="#253858"/>
<path d="M52.5257 273.941C66.0641 273.941 77.0392 263.179 77.0392 249.903C77.0392 236.627 66.0641 225.865 52.5257 225.865C38.9873 225.865 28.0122 236.627 28.0122 249.903C28.0122 263.179 38.9873 273.941 52.5257 273.941Z" fill="url(#paint0_linear)"/>
<path d="M0.977984 222.158L14.1452 237.405C15.1258 238.641 16.9468 238.778 18.0674 237.679C39.3591 218.998 65.6936 218.998 86.9853 237.679C88.1059 238.641 89.9269 238.503 90.9075 237.405L104.075 222.158C105.055 221.059 104.915 219.273 103.795 218.312C72.9776 191.801 32.0751 191.801 1.25814 218.312C0.137522 219.273 -0.00255548 221.059 0.977984 222.158Z" fill="#2684FF"/>
</g>
<defs>
<linearGradient id="paint0_linear" x1="52.5361" y1="265.655" x2="52.5361" y2="223.14" gradientUnits="userSpaceOnUse">
<stop stop-color="#2684FF"/>
<stop offset="0.824" stop-color="#0052CC"/>
</linearGradient>
<clipPath id="clip0">
<rect width="738.486" height="124.377" fill="white" transform="translate(0.322266 173.74)"/>
</clipPath>
</defs>
</svg>
