<svg width="548" height="440" viewBox="0 0 548 440" fill="none" xmlns="http://www.w3.org/2000/svg">
<mask id="mask0" mask-type="alpha" maskUnits="userSpaceOnUse" x="0" y="0" width="548" height="440">
<rect x="0.322266" y="0.52832" width="547.04" height="439.129" fill="#C4C4C4"/>
</mask>
<g mask="url(#mask0)">
<path d="M112.463 195.885V253.176H99.0882V247.105C96.053 252.038 90.4566 254.883 82.2993 254.883C68.7353 254.883 62.0007 247.864 62.0007 236.671V195.885H76.6081V232.782C76.6081 238.758 79.8331 242.268 86.0934 242.268C93.3971 242.268 97.8552 238.094 97.8552 230.411V195.885H112.463ZM207.315 213.148V253.176H192.708V217.511C192.708 210.682 189.957 206.508 183.602 206.508C177.247 206.508 173.548 211.251 173.548 217.89V253.176H158.94V217.511C158.94 210.207 155.905 206.508 149.835 206.508C143.385 206.508 139.78 211.251 139.78 217.89V253.176H125.173V195.885H138.737V202.24C142.057 196.738 147.558 193.988 155.051 193.988C162.355 193.988 167.857 197.023 170.987 202.429C174.876 196.833 180.662 193.988 188.155 193.988C200.391 193.988 207.315 201.291 207.315 213.148ZM324.554 253.176H309.946V173.499H324.554V253.176ZM482.958 253.176H468.351V195.885H482.958V253.176ZM468.066 187.253H483.148V173.31H468.066V187.253ZM537.688 233.636C531.713 239.991 527.634 242.457 522.132 242.457C515.588 242.457 510.94 238.663 508.853 232.782V216.088C511.035 210.113 515.682 206.318 522.322 206.318C527.16 206.318 531.049 208.026 537.214 213.812L546.32 204.801C539.016 196.833 531.902 193.893 522.322 193.893C508.948 193.893 498.609 200.912 494.53 212.674V236.197C498.514 247.959 508.663 254.883 521.943 254.883C532.282 254.883 539.396 251.468 547.363 241.604L537.688 233.636ZM30.3199 217.89C26.336 217.037 23.4904 216.278 21.8779 215.899C19.886 215.329 18.3684 214.571 17.6096 213.527V209.164C18.9375 207.077 22.1625 205.749 26.6206 205.749C32.786 205.749 37.0544 207.172 43.789 212.484L51.6618 202.999C43.6941 196.359 36.8647 193.988 27 193.988C15.6176 193.988 7.74485 198.635 4.6147 205.275V219.693C7.08088 224.53 12.7721 227.281 24.1544 229.747C28.2331 230.696 30.9838 231.36 32.5963 231.644C34.6831 232.308 36.5801 233.162 37.6235 234.679V239.707C36.2007 241.983 32.786 243.216 28.3279 243.216C25.1029 243.311 21.9728 242.647 19.0324 241.414C16.1868 240.276 12.8669 238.094 8.69338 234.679L0.251465 244.07C9.35735 252.132 17.0404 254.883 27.9485 254.883C39.6154 254.883 47.8677 250.425 50.9978 243.311V228.799C48.3419 223.392 41.9868 220.546 30.3199 217.89ZM245.636 193.893C232.452 193.893 222.113 201.007 217.844 212.389V236.482C222.018 247.864 232.452 254.978 245.636 254.978C258.821 254.978 269.065 247.864 273.238 236.576V212.294C268.97 201.007 258.631 193.893 245.636 193.893ZM259.105 232.877C256.829 238.948 251.991 242.552 245.541 242.552C239.186 242.552 234.159 238.948 231.882 232.877V215.993C234.159 209.923 238.996 206.224 245.541 206.224C251.991 206.224 256.734 209.923 259.01 215.993L259.105 232.877ZM363.633 193.893C350.449 193.893 340.11 201.007 335.841 212.389V236.482C340.11 247.864 350.449 254.978 363.633 254.978C376.818 254.978 387.062 247.864 391.235 236.576V212.294C387.062 201.007 376.723 193.893 363.633 193.893ZM377.102 232.877C374.826 238.948 369.988 242.552 363.633 242.552C357.278 242.552 352.251 238.948 349.974 232.877V215.993C352.251 209.923 357.088 206.224 363.633 206.224C370.178 206.224 374.826 209.923 377.102 215.993V232.877ZM442.077 195.885V202.24C438.377 196.738 432.591 193.988 424.624 193.988C413.81 193.988 405.084 200.627 401.29 211.156V234.774C404.989 245.303 413.716 251.848 424.624 251.848C431.927 251.848 437.429 249.382 441.318 244.544V249.097C441.318 258.582 435.816 263.04 427.28 263.04C420.924 263.04 415.707 261.143 407.36 256.211L400.246 266.74C408.309 272.146 417.794 275.087 427.469 275.182C443.594 275.182 455.451 266.55 455.451 250.425V195.885H442.077ZM440.274 230.696C438.093 236.102 433.54 239.517 427.849 239.517C422.157 239.517 417.605 236.197 415.423 230.696V215.045C417.605 209.638 422.063 206.318 427.849 206.318C433.635 206.318 438.093 209.638 440.274 215.045V230.696Z" fill="#000099"/>
</g>
</svg>
