<svg width="721" height="440" viewBox="0 0 721 440" fill="none" xmlns="http://www.w3.org/2000/svg">
<mask id="mask0" mask-type="alpha" maskUnits="userSpaceOnUse" x="0" y="0" width="721" height="440">
<rect x="0.98584" y="0.638184" width="719.884" height="439.129" fill="#C4C4C4"/>
</mask>
<g mask="url(#mask0)">
<path d="M236.473 197.497H210.874V182.207H279.436V197.497H253.808V273.891H236.531" fill="black"/>
<path d="M295.247 261.511C302.201 261.476 309.109 260.408 315.749 258.343L318.369 271.013C310.465 273.864 302.123 275.304 293.72 275.275C272.671 275.275 265.357 265.513 265.357 249.359V231.65C265.357 217.483 271.692 205.504 293.173 205.504C314.655 205.504 319.463 218.03 319.463 232.485V246.883H282.029V250.338C282.173 258.343 285.053 261.511 295.247 261.511ZM282.173 233.378H303.511V229.98C303.511 223.645 301.581 219.239 293.317 219.239C285.053 219.239 282.173 223.645 282.173 229.98V233.378V233.378ZM364.355 220.909C358.17 223.702 352.212 226.962 346.531 230.671V273.864H329.743V206.857H343.911L345.005 214.286C350.467 210.589 356.393 207.626 362.628 205.475L364.355 220.909V220.909ZM405.36 220.909C399.198 223.702 393.254 226.965 387.593 230.671V273.864H370.806V206.857H384.973L386.067 214.286C391.53 210.589 397.456 207.626 403.69 205.475L405.36 220.909V220.909ZM461.54 273.893H447.776L446.537 269.343C440.6 273.207 433.666 275.269 426.582 275.275C414.344 275.275 409.103 266.867 409.103 255.32C409.103 241.699 415.035 236.459 428.655 236.459H444.752V229.433C444.752 222.003 442.679 219.383 431.938 219.383C425.69 219.452 419.47 220.149 413.365 221.456L411.292 208.642C418.796 206.569 426.542 205.504 434.328 205.475C455.378 205.475 461.597 212.904 461.597 229.692L461.54 273.893V273.893ZM444.752 248.553H432.37C426.87 248.553 425.344 250.079 425.344 255.147C425.344 260.215 426.87 261.885 432.082 261.885C436.528 261.816 440.888 260.63 444.752 258.43V248.553V248.553ZM513.141 191.567C509.974 190.884 506.737 190.519 503.495 190.473C496.9 190.473 495.921 193.352 495.921 198.449V206.857H512.997L512.047 220.218H495.95V273.893H479.162V220.218H468.422V206.857H479.162V197.499C479.162 183.59 485.641 176.708 500.5 176.708C505.366 176.691 510.21 177.342 514.898 178.638L513.141 191.567V191.567ZM545.91 275.275C522.874 275.275 516.74 262.605 516.74 248.841V231.909C516.74 218.145 522.931 205.475 545.91 205.475C568.889 205.475 575.08 218.145 575.08 231.909V248.841C575.109 262.605 568.889 275.275 545.91 275.275ZM545.91 219.786C536.955 219.786 533.528 223.789 533.528 231.304V249.33C533.528 256.903 536.984 260.848 545.91 260.848C554.837 260.848 558.292 256.846 558.292 249.33V231.362C558.292 223.789 554.865 219.786 545.91 219.786V219.786ZM618.302 220.909C612.139 223.702 606.196 226.965 600.535 230.671V273.864H583.747V206.857H597.915L599.009 214.286C604.471 210.589 610.394 207.626 616.632 205.475L618.302 220.909ZM664.432 273.893V227.1C664.432 223.53 662.906 221.744 659.076 221.744C652.922 222.476 646.982 224.434 641.597 227.503V273.893H624.809V206.857H637.623L639.265 212.616C647.633 208.383 656.795 205.95 666.16 205.475C671.467 204.974 676.526 207.836 678.829 212.645C687.209 208.354 696.406 205.907 705.811 205.475C716.955 205.475 720.957 213.307 720.957 225.286V273.893H704.169V227.1C704.169 223.53 702.643 221.744 698.813 221.744C692.651 222.424 686.696 224.385 681.335 227.503V273.893H664.432V273.893Z" fill="black"/>
<path d="M105.801 253.908L153.025 226.668V172.101L105.801 199.399" fill="#4040B2"/>
<path d="M53.3911 172.101L100.615 199.399V253.908L53.3911 226.639" fill="#5C4EE5"/>
<path d="M0.98584 196.203L48.2102 223.472V168.934L0.98584 141.665V196.203ZM53.3934 287.168L100.618 314.437V259.898L53.3934 232.629" fill="#5C4EE5"/>
</g>
</svg>
